<ttFont>
<head>
    <!-- Most of this table will be recalculated by the compiler -->
    <tableVersion value="1.0"/>
    <fontRevision value="1.0"/>
    <checkSumAdjustment value="0x9898ed15"/>
    <magicNumber value="0x5f0f3cf5"/>
    <flags value="00000000 00011011"/>
    <unitsPerEm value="1000"/>
    <created value="Tue Jan  8 12:46:00 2013"/>
    <modified value="Thu Nov  6 12:31:23 2014"/>
    <xMin value="-114"/>
    <yMin value="-263"/>
    <xMax value="1166"/>
    <yMax value="1030"/>
    <macStyle value="00000000 00000010"/>
    <lowestRecPPEM value="9"/>
    <fontDirectionHint value="2"/>
    <indexToLocFormat value="0"/>
    <glyphDataFormat value="0"/>
  </head>
    <TTGlyph name=".notdef" xMin="68" yMin="0" xMax="532" yMax="650">
      <contour>
        <pt x="68" y="650" on="1"/>
        <pt x="532" y="650" on="1"/>
        <pt x="532" y="0" on="1"/>
        <pt x="68" y="0" on="1"/>
      </contour>
      <contour>
        <pt x="458" y="604" on="1"/>
        <pt x="142" y="604" on="1"/>
        <pt x="301" y="367" on="1"/>
      </contour>
      <contour>
        <pt x="486" y="88" on="1"/>
        <pt x="486" y="562" on="1"/>
        <pt x="328" y="325" on="1"/>
      </contour>
      <contour>
        <pt x="458" y="47" on="1"/>
        <pt x="301" y="283" on="1"/>
        <pt x="142" y="47" on="1"/>
      </contour>
      <contour>
        <pt x="115" y="88" on="1"/>
        <pt x="272" y="325" on="1"/>
        <pt x="115" y="562" on="1"/>
      </contour>
    </TTGlyph>
    <TTGlyph name="A" xMin="-6" yMin="0" xMax="600" yMax="663">
      <contour>
        <pt x="532" y="0" on="1"/>
        <pt x="524" y="0" on="0"/>
        <pt x="519" y="4" on="0"/>
        <pt x="517" y="9" on="1"/>
        <pt x="473" y="164" on="1"/>
        <pt x="157" y="164" on="1"/>
        <pt x="79" y="9" on="1"/>
        <pt x="76" y="3" on="0"/>
        <pt x="69" y="0" on="0"/>
        <pt x="61" y="0" on="1"/>
        <pt x="-6" y="0" on="1"/>
        <pt x="331" y="663" on="1"/>
        <pt x="393" y="663" on="1"/>
        <pt x="401" y="663" on="0"/>
        <pt x="406" y="659" on="0"/>
        <pt x="408" y="652" on="1"/>
        <pt x="600" y="0" on="1"/>
      </contour>
      <contour>
        <pt x="455" y="226" on="1"/>
        <pt x="412" y="376" on="1"/>
        <pt x="395" y="434" on="0"/>
        <pt x="367" y="541" on="0"/>
        <pt x="358" y="579" on="1"/>
        <pt x="351" y="562" on="0"/>
        <pt x="330" y="517" on="0"/>
        <pt x="305" y="465" on="0"/>
        <pt x="278" y="410" on="0"/>
        <pt x="266" y="385" on="1"/>
        <pt x="188" y="226" on="1"/>
      </contour>
    </TTGlyph>
    <TTGlyph name="AE" xMin="-20" yMin="0" xMax="898" yMax="663">
      <contour>
        <pt x="898" y="663" on="1"/>
        <pt x="890" y="598" on="1"/>
        <pt x="561" y="598" on="1"/>
        <pt x="535" y="377" on="1"/>
        <pt x="836" y="377" on="1"/>
        <pt x="828" y="313" on="1"/>
        <pt x="528" y="313" on="1"/>
        <pt x="499" y="65" on="1"/>
        <pt x="839" y="65" on="1"/>
        <pt x="831" y="0" on="1"/>
        <pt x="413" y="0" on="1"/>
        <pt x="432" y="164" on="1"/>
        <pt x="188" y="164" on="1"/>
        <pt x="88" y="19" on="1"/>
        <pt x="79" y="5" on="0"/>
        <pt x="68" y="0" on="0"/>
        <pt x="55" y="0" on="1"/>
        <pt x="-20" y="0" on="1"/>
        <pt x="456" y="663" on="1"/>
      </contour>
      <contour>
        <pt x="439" y="226" on="1"/>
        <pt x="482" y="587" on="1"/>
        <pt x="469" y="568" on="0"/>
        <pt x="429" y="507" on="0"/>
        <pt x="382" y="438" on="0"/>
        <pt x="333" y="366" on="0"/>
        <pt x="311" y="336" on="1"/>
        <pt x="234" y="226" on="1"/>
      </contour>
    </TTGlyph>
    <TTGlyph name="AEacute" xMin="-20" yMin="0" xMax="898" yMax="904">
      <component glyphName="AE" x="0" y="0" flags="0x204"/>
      <component glyphName="acute.cap" x="384" y="0" flags="0x4"/>
    </TTGlyph>
    <TTGlyph name="Aacute" xMin="-6" yMin="0" xMax="600" yMax="904">
      <component glyphName="A" x="0" y="0" flags="0x204"/>
      <component glyphName="acute.cap" x="130" y="0" flags="0x4"/>
    </TTGlyph>
    <TTGlyph name="Abreve" xMin="-6" yMin="0" xMax="600" yMax="866">
      <component glyphName="A" x="0" y="0" flags="0x204"/>
      <component glyphName="breve.cap" x="133" y="0" flags="0x4"/>
    </TTGlyph>
    <TTGlyph name="Acaron" xMin="-6" yMin="0" xMax="600" yMax="892">
      <component glyphName="A" x="0" y="0" flags="0x204"/>
      <component glyphName="caron.cap" x="114" y="0" flags="0x4"/>
    </TTGlyph>
    <TTGlyph name="Acircumflex" xMin="-6" yMin="0" xMax="600" yMax="882">
      <component glyphName="A" x="0" y="0" flags="0x204"/>
      <component glyphName="circumflex.cap" x="122" y="0" flags="0x4"/>
    </TTGlyph>
    <TTGlyph name="Adieresis" xMin="-6" yMin="0" xMax="600" yMax="840">
      <component glyphName="A" x="0" y="0" flags="0x204"/>
      <component glyphName="dieresis.cap" x="129" y="0" flags="0x4"/>
    </TTGlyph>
    <TTGlyph name="Agrave" xMin="-6" yMin="0" xMax="600" yMax="902">
      <component glyphName="A" x="0" y="0" flags="0x204"/>
      <component glyphName="grave.cap" x="133" y="0" flags="0x4"/>
    </TTGlyph>
    <TTGlyph name="Amacron" xMin="-6" yMin="0" xMax="600" yMax="816">
      <component glyphName="A" x="0" y="0" flags="0x204"/>
      <component glyphName="macron.cap" x="131" y="0" flags="0x4"/>
    </TTGlyph>
    <TTGlyph name="Aogonek" xMin="-6" yMin="-197" xMax="600" yMax="663">
      <contour>
        <pt x="404" y="-114" on="1"/>
        <pt x="404" y="-73" on="0"/>
        <pt x="469" y="-5" on="0"/>
        <pt x="514" y="19" on="1"/>
        <pt x="473" y="164" on="1"/>
        <pt x="157" y="164" on="1"/>
        <pt x="79" y="9" on="1"/>
        <pt x="76" y="3" on="0"/>
        <pt x="69" y="0" on="0"/>
        <pt x="61" y="0" on="1"/>
        <pt x="-6" y="0" on="1"/>
        <pt x="331" y="663" on="1"/>
        <pt x="393" y="663" on="1"/>
        <pt x="401" y="663" on="0"/>
        <pt x="406" y="659" on="0"/>
        <pt x="408" y="652" on="1"/>
        <pt x="600" y="0" on="1"/>
        <pt x="590" y="0" on="1"/>
        <pt x="565" y="0" on="0"/>
        <pt x="528" y="-11" on="0"/>
        <pt x="505" y="-33" on="1"/>
        <pt x="490" y="-48" on="0"/>
        <pt x="470" y="-85" on="0"/>
        <pt x="470" y="-104" on="1"/>
        <pt x="470" y="-141" on="0"/>
        <pt x="519" y="-141" on="1"/>
        <pt x="531" y="-141" on="0"/>
        <pt x="568" y="-136" on="0"/>
        <pt x="581" y="-133" on="1"/>
        <pt x="588" y="-172" on="1"/>
        <pt x="571" y="-183" on="0"/>
        <pt x="523" y="-197" on="0"/>
        <pt x="500" y="-197" on="1"/>
        <pt x="456" y="-197" on="0"/>
        <pt x="404" y="-148" on="0"/>
      </contour>
      <contour>
        <pt x="455" y="226" on="1"/>
        <pt x="412" y="376" on="1"/>
        <pt x="395" y="434" on="0"/>
        <pt x="367" y="541" on="0"/>
        <pt x="358" y="579" on="1"/>
        <pt x="351" y="562" on="0"/>
        <pt x="330" y="517" on="0"/>
        <pt x="305" y="465" on="0"/>
        <pt x="278" y="410" on="0"/>
        <pt x="266" y="385" on="1"/>
        <pt x="188" y="226" on="1"/>
      </contour>
    </TTGlyph>
    <TTGlyph name="Aring" xMin="-6" yMin="0" xMax="600" yMax="849">
      <contour>
        <pt x="532" y="0" on="1"/>
        <pt x="524" y="0" on="0"/>
        <pt x="519" y="4" on="0"/>
        <pt x="517" y="9" on="1"/>
        <pt x="473" y="164" on="1"/>
        <pt x="157" y="164" on="1"/>
        <pt x="79" y="9" on="1"/>
        <pt x="76" y="3" on="0"/>
        <pt x="69" y="0" on="0"/>
        <pt x="61" y="0" on="1"/>
        <pt x="-6" y="0" on="1"/>
        <pt x="324" y="649" on="1"/>
        <pt x="299" y="660" on="0"/>
        <pt x="271" y="709" on="0"/>
        <pt x="271" y="737" on="1"/>
        <pt x="271" y="760" on="0"/>
        <pt x="288" y="801" on="0"/>
        <pt x="318" y="831" on="0"/>
        <pt x="359" y="849" on="0"/>
        <pt x="382" y="849" on="1"/>
        <pt x="428" y="849" on="0"/>
        <pt x="483" y="791" on="0"/>
        <pt x="483" y="750" on="1"/>
        <pt x="483" y="715" on="0"/>
        <pt x="444" y="658" on="0"/>
        <pt x="409" y="647" on="1"/>
        <pt x="600" y="0" on="1"/>
      </contour>
      <contour>
        <pt x="455" y="226" on="1"/>
        <pt x="412" y="376" on="1"/>
        <pt x="395" y="434" on="0"/>
        <pt x="367" y="541" on="0"/>
        <pt x="358" y="579" on="1"/>
        <pt x="351" y="562" on="0"/>
        <pt x="330" y="517" on="0"/>
        <pt x="305" y="465" on="0"/>
        <pt x="278" y="410" on="0"/>
        <pt x="266" y="385" on="1"/>
        <pt x="188" y="226" on="1"/>
      </contour>
      <contour>
        <pt x="433" y="747" on="1"/>
        <pt x="433" y="767" on="0"/>
        <pt x="406" y="800" on="0"/>
        <pt x="380" y="800" on="1"/>
        <pt x="356" y="800" on="0"/>
        <pt x="322" y="769" on="0"/>
        <pt x="322" y="740" on="1"/>
        <pt x="322" y="720" on="0"/>
        <pt x="348" y="687" on="0"/>
        <pt x="374" y="687" on="1"/>
        <pt x="398" y="687" on="0"/>
        <pt x="433" y="718" on="0"/>
      </contour>
    </TTGlyph>
    <TTGlyph name="Aringacute" xMin="-6" yMin="0" xMax="600" yMax="1030">
      <component glyphName="Aring" x="0" y="0" flags="0x204"/>
      <component glyphName="acute.cap" x="133" y="126" flags="0x4"/>
    </TTGlyph>
    <TTGlyph name="Atilde" xMin="-6" yMin="0" xMax="600" yMax="846">
      <component glyphName="A" x="0" y="0" flags="0x204"/>
      <component glyphName="tilde.cap" x="127" y="0" flags="0x4"/>
    </TTGlyph>
    <TTGlyph name="B" xMin="51" yMin="0" xMax="549" yMax="663">
      <contour>
        <pt x="129" y="663" on="1"/>
        <pt x="344" y="663" on="1"/>
        <pt x="398" y="663" on="0"/>
        <pt x="478" y="642" on="0"/>
        <pt x="502" y="619" on="1"/>
        <pt x="539" y="584" on="0"/>
        <pt x="539" y="522" on="1"/>
        <pt x="539" y="477" on="0"/>
        <pt x="492" y="387" on="0"/>
        <pt x="452" y="351" on="1"/>
        <pt x="452" y="349" on="1"/>
        <pt x="497" y="331" on="0"/>
        <pt x="549" y="261" on="0"/>
        <pt x="549" y="211" on="1"/>
        <pt x="549" y="166" on="0"/>
        <pt x="516" y="91" on="0"/>
        <pt x="486" y="63" on="1"/>
        <pt x="454" y="33" on="0"/>
        <pt x="359" y="0" on="0"/>
        <pt x="296" y="0" on="1"/>
        <pt x="51" y="0" on="1"/>
      </contour>
      <contour>
        <pt x="137" y="65" on="1"/>
        <pt x="294" y="65" on="1"/>
        <pt x="343" y="65" on="0"/>
        <pt x="410" y="87" on="0"/>
        <pt x="431" y="107" on="1"/>
        <pt x="451" y="127" on="0"/>
        <pt x="470" y="182" on="0"/>
        <pt x="470" y="212" on="1"/>
        <pt x="470" y="263" on="0"/>
        <pt x="442" y="285" on="1"/>
        <pt x="426" y="297" on="0"/>
        <pt x="378" y="307" on="0"/>
        <pt x="340" y="307" on="1"/>
        <pt x="166" y="307" on="1"/>
      </contour>
      <contour>
        <pt x="173" y="369" on="1"/>
        <pt x="367" y="369" on="1"/>
        <pt x="384" y="369" on="0"/>
        <pt x="405" y="377" on="0"/>
        <pt x="415" y="388" on="1"/>
        <pt x="426" y="400" on="0"/>
        <pt x="444" y="431" on="0"/>
        <pt x="457" y="466" on="0"/>
        <pt x="464" y="501" on="0"/>
        <pt x="464" y="517" on="1"/>
        <pt x="464" y="540" on="0"/>
        <pt x="451" y="569" on="0"/>
        <pt x="440" y="578" on="1"/>
        <pt x="423" y="591" on="0"/>
        <pt x="372" y="598" on="0"/>
        <pt x="340" y="598" on="1"/>
        <pt x="200" y="598" on="1"/>
      </contour>
    </TTGlyph>
    <TTGlyph name="C" xMin="55" yMin="-10" xMax="627" yMax="673">
      <contour>
        <pt x="604" y="90" on="1"/>
        <pt x="546" y="46" on="0"/>
        <pt x="400" y="-10" on="0"/>
        <pt x="331" y="-10" on="1"/>
        <pt x="268" y="-10" on="0"/>
        <pt x="166" y="35" on="0"/>
        <pt x="94" y="115" on="0"/>
        <pt x="55" y="224" on="0"/>
        <pt x="55" y="288" on="1"/>
        <pt x="55" y="366" on="0"/>
        <pt x="107" y="505" on="0"/>
        <pt x="198" y="611" on="0"/>
        <pt x="321" y="673" on="0"/>
        <pt x="392" y="673" on="1"/>
        <pt x="437" y="673" on="0"/>
        <pt x="512" y="644" on="0"/>
        <pt x="571" y="595" on="0"/>
        <pt x="614" y="528" on="0"/>
        <pt x="627" y="491" on="1"/>
        <pt x="573" y="464" on="1"/>
        <pt x="523" y="522" on="1"/>
        <pt x="488" y="563" on="0"/>
        <pt x="422" y="598" on="0"/>
        <pt x="380" y="598" on="1"/>
        <pt x="331" y="598" on="0"/>
        <pt x="242" y="554" on="0"/>
        <pt x="175" y="475" on="0"/>
        <pt x="135" y="363" on="0"/>
        <pt x="135" y="295" on="1"/>
        <pt x="135" y="243" on="0"/>
        <pt x="161" y="158" on="0"/>
        <pt x="213" y="97" on="0"/>
        <pt x="288" y="64" on="0"/>
        <pt x="338" y="64" on="1"/>
        <pt x="375" y="64" on="0"/>
        <pt x="460" y="84" on="0"/>
        <pt x="503" y="101" on="1"/>
        <pt x="579" y="132" on="1"/>
      </contour>
    </TTGlyph>
    <TTGlyph name="Cacute" xMin="55" yMin="-10" xMax="627" yMax="904">
      <component glyphName="C" x="0" y="0" flags="0x204"/>
      <component glyphName="acute.cap" x="163" y="0" flags="0x4"/>
    </TTGlyph>
    <TTGlyph name="Ccaron" xMin="55" yMin="-10" xMax="627" yMax="892">
      <component glyphName="C" x="0" y="0" flags="0x204"/>
      <component glyphName="caron.cap" x="141" y="0" flags="0x4"/>
    </TTGlyph>
    <TTGlyph name="Ccedilla" xMin="55" yMin="-222" xMax="627" yMax="673">
      <contour>
        <pt x="604" y="90" on="1"/>
        <pt x="575" y="68" on="0"/>
        <pt x="508" y="32" on="0"/>
        <pt x="437" y="5" on="0"/>
        <pt x="364" y="-10" on="0"/>
        <pt x="330" y="-10" on="1"/>
        <pt x="326" y="-17" on="0"/>
        <pt x="321" y="-31" on="0"/>
        <pt x="321" y="-36" on="1"/>
        <pt x="321" y="-46" on="0"/>
        <pt x="351" y="-58" on="0"/>
        <pt x="388" y="-75" on="0"/>
        <pt x="418" y="-101" on="0"/>
        <pt x="418" y="-125" on="1"/>
        <pt x="418" y="-150" on="0"/>
        <pt x="387" y="-185" on="0"/>
        <pt x="337" y="-209" on="0"/>
        <pt x="275" y="-221" on="0"/>
        <pt x="244" y="-222" on="1"/>
        <pt x="238" y="-180" on="1"/>
        <pt x="303" y="-166" on="1"/>
        <pt x="329" y="-161" on="0"/>
        <pt x="350" y="-148" on="0"/>
        <pt x="350" y="-136" on="1"/>
        <pt x="350" y="-125" on="0"/>
        <pt x="321" y="-111" on="0"/>
        <pt x="285" y="-97" on="0"/>
        <pt x="256" y="-78" on="0"/>
        <pt x="256" y="-62" on="1"/>
        <pt x="256" y="-49" on="0"/>
        <pt x="272" y="-20" on="0"/>
        <pt x="284" y="-6" on="1"/>
        <pt x="231" y="2" on="0"/>
        <pt x="146" y="52" on="0"/>
        <pt x="87" y="130" on="0"/>
        <pt x="55" y="230" on="0"/>
        <pt x="55" y="288" on="1"/>
        <pt x="55" y="366" on="0"/>
        <pt x="107" y="505" on="0"/>
        <pt x="198" y="611" on="0"/>
        <pt x="321" y="673" on="0"/>
        <pt x="392" y="673" on="1"/>
        <pt x="437" y="673" on="0"/>
        <pt x="512" y="644" on="0"/>
        <pt x="571" y="595" on="0"/>
        <pt x="614" y="528" on="0"/>
        <pt x="627" y="491" on="1"/>
        <pt x="573" y="464" on="1"/>
        <pt x="523" y="522" on="1"/>
        <pt x="488" y="563" on="0"/>
        <pt x="422" y="598" on="0"/>
        <pt x="380" y="598" on="1"/>
        <pt x="331" y="598" on="0"/>
        <pt x="242" y="554" on="0"/>
        <pt x="175" y="475" on="0"/>
        <pt x="135" y="363" on="0"/>
        <pt x="135" y="295" on="1"/>
        <pt x="135" y="243" on="0"/>
        <pt x="161" y="158" on="0"/>
        <pt x="213" y="97" on="0"/>
        <pt x="288" y="64" on="0"/>
        <pt x="338" y="64" on="1"/>
        <pt x="375" y="64" on="0"/>
        <pt x="460" y="84" on="0"/>
        <pt x="503" y="101" on="1"/>
        <pt x="579" y="132" on="1"/>
      </contour>
    </TTGlyph>
    <TTGlyph name="Ccircumflex" xMin="55" yMin="-10" xMax="627" yMax="882">
      <component glyphName="C" x="0" y="0" flags="0x204"/>
      <component glyphName="circumflex.cap" x="153" y="0" flags="0x4"/>
    </TTGlyph>
    <TTGlyph name="Cdotaccent" xMin="55" yMin="-10" xMax="627" yMax="829">
      <component glyphName="C" x="0" y="0" flags="0x204"/>
      <component glyphName="dotaccent.cap" x="149" y="0" flags="0x4"/>
    </TTGlyph>
    <TTGlyph name="D" xMin="51" yMin="0" xMax="649" yMax="663">
      <contour>
        <pt x="129" y="663" on="1"/>
        <pt x="327" y="663" on="1"/>
        <pt x="417" y="663" on="0"/>
        <pt x="539" y="624" on="0"/>
        <pt x="579" y="586" on="1"/>
        <pt x="614" y="552" on="0"/>
        <pt x="649" y="455" on="0"/>
        <pt x="649" y="397" on="1"/>
        <pt x="649" y="305" on="0"/>
        <pt x="591" y="156" on="0"/>
        <pt x="537" y="103" on="1"/>
        <pt x="486" y="53" on="0"/>
        <pt x="344" y="0" on="0"/>
        <pt x="252" y="0" on="1"/>
        <pt x="51" y="0" on="1"/>
      </contour>
      <contour>
        <pt x="137" y="66" on="1"/>
        <pt x="238" y="66" on="1"/>
        <pt x="323" y="66" on="0"/>
        <pt x="444" y="109" on="0"/>
        <pt x="485" y="151" on="1"/>
        <pt x="527" y="195" on="0"/>
        <pt x="571" y="319" on="0"/>
        <pt x="571" y="396" on="1"/>
        <pt x="571" y="444" on="0"/>
        <pt x="548" y="517" on="0"/>
        <pt x="523" y="541" on="1"/>
        <pt x="492" y="571" on="0"/>
        <pt x="393" y="597" on="0"/>
        <pt x="315" y="597" on="1"/>
        <pt x="199" y="597" on="1"/>
      </contour>
    </TTGlyph>
    <TTGlyph name="Dcaron" xMin="51" yMin="0" xMax="649" yMax="892">
      <component glyphName="D" x="0" y="0" flags="0x204"/>
      <component glyphName="caron.cap" x="129" y="0" flags="0x4"/>
    </TTGlyph>
    <TTGlyph name="Dcroat" xMin="25" yMin="0" xMax="676" yMax="663">
      <contour>
        <pt x="121" y="370" on="1"/>
        <pt x="156" y="663" on="1"/>
        <pt x="360" y="663" on="1"/>
        <pt x="516" y="663" on="0"/>
        <pt x="676" y="522" on="0"/>
        <pt x="676" y="388" on="1"/>
        <pt x="676" y="302" on="0"/>
        <pt x="622" y="159" on="0"/>
        <pt x="520" y="57" on="0"/>
        <pt x="376" y="0" on="0"/>
        <pt x="286" y="0" on="1"/>
        <pt x="78" y="0" on="1"/>
        <pt x="114" y="311" on="1"/>
        <pt x="25" y="311" on="1"/>
        <pt x="32" y="370" on="1"/>
      </contour>
      <contour>
        <pt x="199" y="370" on="1"/>
        <pt x="349" y="370" on="1"/>
        <pt x="342" y="311" on="1"/>
        <pt x="192" y="311" on="1"/>
        <pt x="164" y="66" on="1"/>
        <pt x="274" y="66" on="1"/>
        <pt x="355" y="66" on="0"/>
        <pt x="477" y="113" on="0"/>
        <pt x="558" y="197" on="0"/>
        <pt x="598" y="314" on="0"/>
        <pt x="598" y="385" on="1"/>
        <pt x="598" y="443" on="0"/>
        <pt x="568" y="524" on="0"/>
        <pt x="506" y="574" on="0"/>
        <pt x="412" y="597" on="0"/>
        <pt x="349" y="597" on="1"/>
        <pt x="226" y="597" on="1"/>
      </contour>
    </TTGlyph>
    <TTGlyph name="Delta" xMin="16" yMin="0" xMax="578" yMax="663">
      <contour>
        <pt x="569" y="98" on="1"/>
        <pt x="574" y="82" on="0"/>
        <pt x="578" y="61" on="0"/>
        <pt x="578" y="50" on="1"/>
        <pt x="578" y="46" on="0"/>
        <pt x="578" y="41" on="0"/>
        <pt x="577" y="35" on="1"/>
        <pt x="573" y="0" on="1"/>
        <pt x="16" y="0" on="1"/>
        <pt x="19" y="24" on="1"/>
        <pt x="21" y="38" on="0"/>
        <pt x="24" y="56" on="0"/>
        <pt x="30" y="73" on="0"/>
        <pt x="41" y="94" on="0"/>
        <pt x="50" y="112" on="1"/>
        <pt x="330" y="663" on="1"/>
        <pt x="392" y="663" on="1"/>
        <pt x="400" y="663" on="0"/>
        <pt x="405" y="658" on="0"/>
        <pt x="407" y="652" on="1"/>
      </contour>
      <contour>
        <pt x="508" y="64" on="1"/>
        <pt x="504" y="75" on="0"/>
        <pt x="493" y="106" on="0"/>
        <pt x="482" y="141" on="0"/>
        <pt x="470" y="176" on="0"/>
        <pt x="466" y="191" on="1"/>
        <pt x="405" y="402" on="1"/>
        <pt x="390" y="453" on="0"/>
        <pt x="366" y="545" on="0"/>
        <pt x="359" y="579" on="1"/>
        <pt x="351" y="561" on="0"/>
        <pt x="329" y="515" on="0"/>
        <pt x="306" y="466" on="0"/>
        <pt x="281" y="416" on="0"/>
        <pt x="270" y="394" on="1"/>
        <pt x="171" y="198" on="1"/>
        <pt x="148" y="151" on="0"/>
        <pt x="114" y="88" on="0"/>
        <pt x="99" y="65" on="1"/>
        <pt x="123" y="67" on="0"/>
        <pt x="190" y="67" on="0"/>
        <pt x="225" y="67" on="1"/>
        <pt x="397" y="67" on="1"/>
        <pt x="467" y="67" on="0"/>
      </contour>
    </TTGlyph>
    <TTGlyph name="E" xMin="51" yMin="0" xMax="536" yMax="663">
      <contour>
        <pt x="536" y="663" on="1"/>
        <pt x="528" y="598" on="1"/>
        <pt x="199" y="598" on="1"/>
        <pt x="173" y="377" on="1"/>
        <pt x="474" y="377" on="1"/>
        <pt x="466" y="313" on="1"/>
        <pt x="166" y="313" on="1"/>
        <pt x="137" y="65" on="1"/>
        <pt x="477" y="65" on="1"/>
        <pt x="469" y="0" on="1"/>
        <pt x="51" y="0" on="1"/>
        <pt x="129" y="663" on="1"/>
      </contour>
    </TTGlyph>
    <TTGlyph name="Eacute" xMin="51" yMin="0" xMax="536" yMax="904">
      <component glyphName="E" x="0" y="0" flags="0x204"/>
      <component glyphName="acute.cap" x="108" y="0" flags="0x4"/>
    </TTGlyph>
    <TTGlyph name="Ebreve" xMin="51" yMin="0" xMax="536" yMax="866">
      <component glyphName="E" x="0" y="0" flags="0x204"/>
      <component glyphName="breve.cap" x="97" y="0" flags="0x4"/>
    </TTGlyph>
    <TTGlyph name="Ecaron" xMin="51" yMin="0" xMax="536" yMax="892">
      <component glyphName="E" x="0" y="0" flags="0x204"/>
      <component glyphName="caron.cap" x="88" y="0" flags="0x4"/>
    </TTGlyph>
    <TTGlyph name="Ecircumflex" xMin="51" yMin="0" xMax="536" yMax="882">
      <component glyphName="E" x="0" y="0" flags="0x204"/>
      <component glyphName="circumflex.cap" x="94" y="0" flags="0x4"/>
    </TTGlyph>
    <TTGlyph name="Edieresis" xMin="51" yMin="0" xMax="536" yMax="840">
      <component glyphName="E" x="0" y="0" flags="0x204"/>
      <component glyphName="dieresis.cap" x="89" y="0" flags="0x4"/>
    </TTGlyph>
    <TTGlyph name="Edotaccent" xMin="51" yMin="0" xMax="536" yMax="829">
      <component glyphName="E" x="0" y="0" flags="0x204"/>
      <component glyphName="dotaccent.cap" x="92" y="0" flags="0x4"/>
    </TTGlyph>
    <TTGlyph name="Egrave" xMin="51" yMin="0" xMax="536" yMax="902">
      <component glyphName="E" x="0" y="0" flags="0x204"/>
      <component glyphName="grave.cap" x="102" y="0" flags="0x4"/>
    </TTGlyph>
    <TTGlyph name="Emacron" xMin="51" yMin="0" xMax="536" yMax="816">
      <component glyphName="E" x="0" y="0" flags="0x204"/>
      <component glyphName="macron.cap" x="84" y="0" flags="0x4"/>
    </TTGlyph>
    <TTGlyph name="Eng" xMin="51" yMin="-212" xMax="673" yMax="663">
      <contour>
        <pt x="397" y="-145" on="1"/>
        <pt x="448" y="-145" on="0"/>
        <pt x="510" y="-90" on="0"/>
        <pt x="517" y="-26" on="1"/>
        <pt x="522" y="24" on="1"/>
        <pt x="271" y="405" on="1"/>
        <pt x="248" y="440" on="0"/>
        <pt x="206" y="506" on="0"/>
        <pt x="189" y="534" on="1"/>
        <pt x="126" y="0" on="1"/>
        <pt x="51" y="0" on="1"/>
        <pt x="129" y="663" on="1"/>
        <pt x="172" y="663" on="1"/>
        <pt x="180" y="663" on="0"/>
        <pt x="187" y="660" on="0"/>
        <pt x="192" y="653" on="1"/>
        <pt x="454" y="257" on="1"/>
        <pt x="501" y="186" on="0"/>
        <pt x="534" y="130" on="1"/>
        <pt x="598" y="663" on="1"/>
        <pt x="673" y="663" on="1"/>
        <pt x="594" y="-10" on="1"/>
        <pt x="589" y="-56" on="0"/>
        <pt x="564" y="-130" on="0"/>
        <pt x="520" y="-183" on="0"/>
        <pt x="455" y="-212" on="0"/>
        <pt x="409" y="-212" on="1"/>
        <pt x="397" y="-212" on="0"/>
        <pt x="368" y="-208" on="0"/>
        <pt x="338" y="-201" on="0"/>
        <pt x="311" y="-192" on="0"/>
        <pt x="301" y="-187" on="1"/>
        <pt x="315" y="-139" on="1"/>
        <pt x="331" y="-141" on="0"/>
        <pt x="380" y="-145" on="0"/>
      </contour>
    </TTGlyph>
    <TTGlyph name="Eogonek" xMin="51" yMin="-197" xMax="536" yMax="663">
      <contour>
        <pt x="376" y="-24" on="1"/>
        <pt x="354" y="-44" on="0"/>
        <pt x="329" y="-86" on="0"/>
        <pt x="329" y="-104" on="1"/>
        <pt x="329" y="-141" on="0"/>
        <pt x="378" y="-141" on="1"/>
        <pt x="390" y="-141" on="0"/>
        <pt x="427" y="-136" on="0"/>
        <pt x="440" y="-133" on="1"/>
        <pt x="447" y="-172" on="1"/>
        <pt x="430" y="-183" on="0"/>
        <pt x="382" y="-197" on="0"/>
        <pt x="359" y="-197" on="1"/>
        <pt x="315" y="-197" on="0"/>
        <pt x="263" y="-148" on="0"/>
        <pt x="263" y="-114" on="1"/>
        <pt x="263" y="-95" on="0"/>
        <pt x="278" y="-60" on="0"/>
        <pt x="301" y="-31" on="0"/>
        <pt x="328" y="-8" on="0"/>
        <pt x="340" y="0" on="1"/>
        <pt x="51" y="0" on="1"/>
        <pt x="129" y="663" on="1"/>
        <pt x="536" y="663" on="1"/>
        <pt x="528" y="598" on="1"/>
        <pt x="199" y="598" on="1"/>
        <pt x="174" y="377" on="1"/>
        <pt x="474" y="377" on="1"/>
        <pt x="466" y="313" on="1"/>
        <pt x="165" y="313" on="1"/>
        <pt x="137" y="65" on="1"/>
        <pt x="477" y="65" on="1"/>
        <pt x="469" y="0" on="1"/>
        <pt x="439" y="0" on="1"/>
        <pt x="425" y="0" on="0"/>
        <pt x="393" y="-9" on="0"/>
      </contour>
    </TTGlyph>
    <TTGlyph name="Eth" xMin="25" yMin="0" xMax="676" yMax="663">
      <contour>
        <pt x="121" y="370" on="1"/>
        <pt x="156" y="663" on="1"/>
        <pt x="360" y="663" on="1"/>
        <pt x="516" y="663" on="0"/>
        <pt x="676" y="522" on="0"/>
        <pt x="676" y="388" on="1"/>
        <pt x="676" y="302" on="0"/>
        <pt x="622" y="159" on="0"/>
        <pt x="520" y="57" on="0"/>
        <pt x="376" y="0" on="0"/>
        <pt x="286" y="0" on="1"/>
        <pt x="78" y="0" on="1"/>
        <pt x="114" y="311" on="1"/>
        <pt x="25" y="311" on="1"/>
        <pt x="32" y="370" on="1"/>
      </contour>
      <contour>
        <pt x="199" y="370" on="1"/>
        <pt x="349" y="370" on="1"/>
        <pt x="342" y="311" on="1"/>
        <pt x="192" y="311" on="1"/>
        <pt x="164" y="66" on="1"/>
        <pt x="274" y="66" on="1"/>
        <pt x="355" y="66" on="0"/>
        <pt x="477" y="113" on="0"/>
        <pt x="558" y="197" on="0"/>
        <pt x="598" y="314" on="0"/>
        <pt x="598" y="385" on="1"/>
        <pt x="598" y="443" on="0"/>
        <pt x="568" y="524" on="0"/>
        <pt x="506" y="574" on="0"/>
        <pt x="412" y="597" on="0"/>
        <pt x="349" y="597" on="1"/>
        <pt x="226" y="597" on="1"/>
      </contour>
    </TTGlyph>
    <TTGlyph name="Euro" xMin="44" yMin="-10" xMax="594" yMax="673">
      <contour>
        <pt x="553" y="68" on="1"/>
        <pt x="508" y="32" on="0"/>
        <pt x="395" y="-10" on="0"/>
        <pt x="341" y="-10" on="1"/>
        <pt x="291" y="-10" on="0"/>
        <pt x="211" y="26" on="0"/>
        <pt x="154" y="92" on="0"/>
        <pt x="122" y="184" on="0"/>
        <pt x="120" y="240" on="1"/>
        <pt x="44" y="240" on="1"/>
        <pt x="49" y="282" on="1"/>
        <pt x="121" y="290" on="1"/>
        <pt x="122" y="309" on="0"/>
        <pt x="125" y="340" on="0"/>
        <pt x="128" y="360" on="1"/>
        <pt x="58" y="360" on="1"/>
        <pt x="63" y="401" on="1"/>
        <pt x="137" y="410" on="1"/>
        <pt x="150" y="460" on="0"/>
        <pt x="198" y="555" on="0"/>
        <pt x="267" y="628" on="0"/>
        <pt x="356" y="673" on="0"/>
        <pt x="409" y="673" on="1"/>
        <pt x="442" y="673" on="0"/>
        <pt x="499" y="652" on="0"/>
        <pt x="547" y="615" on="0"/>
        <pt x="583" y="566" on="0"/>
        <pt x="594" y="538" on="1"/>
        <pt x="550" y="510" on="1"/>
        <pt x="503" y="555" on="1"/>
        <pt x="474" y="582" on="0"/>
        <pt x="431" y="607" on="0"/>
        <pt x="402" y="607" on="1"/>
        <pt x="366" y="607" on="0"/>
        <pt x="305" y="574" on="0"/>
        <pt x="256" y="519" on="0"/>
        <pt x="222" y="449" on="0"/>
        <pt x="213" y="412" on="1"/>
        <pt x="418" y="412" on="1"/>
        <pt x="412" y="360" on="1"/>
        <pt x="204" y="360" on="1"/>
        <pt x="202" y="349" on="0"/>
        <pt x="197" y="307" on="0"/>
        <pt x="197" y="293" on="1"/>
        <pt x="404" y="293" on="1"/>
        <pt x="398" y="240" on="1"/>
        <pt x="196" y="240" on="1"/>
        <pt x="199" y="155" on="0"/>
        <pt x="279" y="56" on="0"/>
        <pt x="354" y="56" on="1"/>
        <pt x="403" y="56" on="0"/>
        <pt x="478" y="85" on="1"/>
        <pt x="531" y="106" on="1"/>
      </contour>
    </TTGlyph>
    <TTGlyph name="Euro.lprop" xMin="39" yMin="-10" xMax="589" yMax="673">
      <component glyphName="Euro" x="-5" y="0" flags="0x4"/>
    </TTGlyph>
    <TTGlyph name="Euro.oprop" xMin="35" yMin="-8" xMax="530" yMax="496">
      <component glyphName="Euro.otab" x="-13" y="0" flags="0x4"/>
    </TTGlyph>
    <TTGlyph name="Euro.otab" xMin="48" yMin="-8" xMax="543" yMax="496">
      <contour>
        <pt x="528" y="70" on="1"/>
        <pt x="487" y="38" on="0"/>
        <pt x="375" y="-8" on="0"/>
        <pt x="320" y="-8" on="1"/>
        <pt x="277" y="-8" on="0"/>
        <pt x="207" y="20" on="0"/>
        <pt x="155" y="69" on="0"/>
        <pt x="123" y="137" on="0"/>
        <pt x="118" y="177" on="1"/>
        <pt x="48" y="177" on="1"/>
        <pt x="52" y="210" on="1"/>
        <pt x="116" y="220" on="1"/>
        <pt x="116" y="239" on="0"/>
        <pt x="119" y="260" on="1"/>
        <pt x="58" y="260" on="1"/>
        <pt x="62" y="292" on="1"/>
        <pt x="128" y="302" on="1"/>
        <pt x="140" y="343" on="0"/>
        <pt x="183" y="414" on="0"/>
        <pt x="243" y="466" on="0"/>
        <pt x="318" y="496" on="0"/>
        <pt x="361" y="496" on="1"/>
        <pt x="395" y="496" on="0"/>
        <pt x="454" y="474" on="0"/>
        <pt x="502" y="436" on="0"/>
        <pt x="535" y="385" on="0"/>
        <pt x="543" y="357" on="1"/>
        <pt x="491" y="331" on="1"/>
        <pt x="464" y="361" on="1"/>
        <pt x="434" y="395" on="0"/>
        <pt x="386" y="429" on="0"/>
        <pt x="353" y="429" on="1"/>
        <pt x="302" y="429" on="0"/>
        <pt x="224" y="362" on="0"/>
        <pt x="206" y="306" on="1"/>
        <pt x="387" y="306" on="1"/>
        <pt x="381" y="260" on="1"/>
        <pt x="195" y="260" on="1"/>
        <pt x="192" y="242" on="0"/>
        <pt x="192" y="223" on="1"/>
        <pt x="377" y="223" on="1"/>
        <pt x="371" y="177" on="1"/>
        <pt x="194" y="177" on="1"/>
        <pt x="202" y="123" on="0"/>
        <pt x="271" y="59" on="0"/>
        <pt x="331" y="59" on="1"/>
        <pt x="357" y="59" on="0"/>
        <pt x="415" y="74" on="0"/>
        <pt x="447" y="86" on="1"/>
        <pt x="507" y="109" on="1"/>
      </contour>
    </TTGlyph>
    <TTGlyph name="F" xMin="51" yMin="0" xMax="532" yMax="663">
      <contour>
        <pt x="532" y="663" on="1"/>
        <pt x="524" y="598" on="1"/>
        <pt x="199" y="598" on="1"/>
        <pt x="173" y="377" on="1"/>
        <pt x="467" y="377" on="1"/>
        <pt x="459" y="313" on="1"/>
        <pt x="166" y="313" on="1"/>
        <pt x="129" y="0" on="1"/>
        <pt x="51" y="0" on="1"/>
        <pt x="129" y="663" on="1"/>
      </contour>
    </TTGlyph>
    <TTGlyph name="G" xMin="55" yMin="-10" xMax="649" yMax="673">
      <contour>
        <pt x="441" y="269" on="1"/>
        <pt x="449" y="329" on="1"/>
        <pt x="633" y="329" on="1"/>
        <pt x="644" y="329" on="0"/>
        <pt x="649" y="322" on="0"/>
        <pt x="648" y="313" on="1"/>
        <pt x="611" y="0" on="1"/>
        <pt x="563" y="0" on="1"/>
        <pt x="550" y="56" on="1"/>
        <pt x="503" y="34" on="1"/>
        <pt x="460" y="14" on="0"/>
        <pt x="370" y="-10" on="0"/>
        <pt x="325" y="-10" on="1"/>
        <pt x="266" y="-10" on="0"/>
        <pt x="167" y="35" on="0"/>
        <pt x="95" y="115" on="0"/>
        <pt x="55" y="225" on="0"/>
        <pt x="55" y="290" on="1"/>
        <pt x="55" y="372" on="0"/>
        <pt x="109" y="512" on="0"/>
        <pt x="203" y="615" on="0"/>
        <pt x="327" y="673" on="0"/>
        <pt x="398" y="673" on="1"/>
        <pt x="486" y="673" on="0"/>
        <pt x="615" y="578" on="0"/>
        <pt x="648" y="498" on="1"/>
        <pt x="595" y="468" on="1"/>
        <pt x="543" y="526" on="1"/>
        <pt x="508" y="566" on="0"/>
        <pt x="438" y="601" on="0"/>
        <pt x="390" y="601" on="1"/>
        <pt x="334" y="601" on="0"/>
        <pt x="241" y="554" on="0"/>
        <pt x="173" y="472" on="0"/>
        <pt x="135" y="359" on="0"/>
        <pt x="135" y="293" on="1"/>
        <pt x="135" y="241" on="0"/>
        <pt x="163" y="157" on="0"/>
        <pt x="216" y="97" on="0"/>
        <pt x="293" y="64" on="0"/>
        <pt x="342" y="64" on="1"/>
        <pt x="379" y="64" on="0"/>
        <pt x="472" y="85" on="0"/>
        <pt x="512" y="102" on="1"/>
        <pt x="525" y="108" on="0"/>
        <pt x="540" y="116" on="0"/>
        <pt x="549" y="123" on="0"/>
        <pt x="552" y="131" on="0"/>
        <pt x="553" y="136" on="1"/>
        <pt x="569" y="269" on="1"/>
      </contour>
    </TTGlyph>
    <TTGlyph name="Gbreve" xMin="55" yMin="-10" xMax="649" yMax="866">
      <component glyphName="G" x="0" y="0" flags="0x204"/>
      <component glyphName="breve.cap" x="171" y="0" flags="0x4"/>
    </TTGlyph>
    <TTGlyph name="Gcircumflex" xMin="55" yMin="-10" xMax="649" yMax="882">
      <component glyphName="G" x="0" y="0" flags="0x204"/>
      <component glyphName="circumflex.cap" x="157" y="0" flags="0x4"/>
    </TTGlyph>
    <TTGlyph name="Gcommaaccent" xMin="55" yMin="-263" xMax="649" yMax="673">
      <component glyphName="G" x="0" y="0" flags="0x204"/>
      <component glyphName="commaaccent" x="162" y="0" flags="0x4"/>
    </TTGlyph>
    <TTGlyph name="Gdotaccent" xMin="55" yMin="-10" xMax="649" yMax="829">
      <component glyphName="G" x="0" y="0" flags="0x204"/>
      <component glyphName="dotaccent.cap" x="152" y="0" flags="0x4"/>
    </TTGlyph>
    <TTGlyph name="H" xMin="51" yMin="0" xMax="651" yMax="663">
      <contour>
        <pt x="532" y="313" on="1"/>
        <pt x="166" y="313" on="1"/>
        <pt x="129" y="0" on="1"/>
        <pt x="51" y="0" on="1"/>
        <pt x="129" y="663" on="1"/>
        <pt x="207" y="663" on="1"/>
        <pt x="174" y="379" on="1"/>
        <pt x="540" y="379" on="1"/>
        <pt x="573" y="663" on="1"/>
        <pt x="651" y="663" on="1"/>
        <pt x="573" y="0" on="1"/>
        <pt x="495" y="0" on="1"/>
      </contour>
    </TTGlyph>
    <TTGlyph name="Hbar" xMin="38" yMin="0" xMax="713" yMax="663">
      <contour>
        <pt x="532" y="313" on="1"/>
        <pt x="166" y="313" on="1"/>
        <pt x="129" y="0" on="1"/>
        <pt x="51" y="0" on="1"/>
        <pt x="110" y="505" on="1"/>
        <pt x="38" y="505" on="1"/>
        <pt x="45" y="562" on="1"/>
        <pt x="117" y="562" on="1"/>
        <pt x="129" y="663" on="1"/>
        <pt x="207" y="663" on="1"/>
        <pt x="195" y="562" on="1"/>
        <pt x="561" y="562" on="1"/>
        <pt x="573" y="663" on="1"/>
        <pt x="651" y="663" on="1"/>
        <pt x="639" y="562" on="1"/>
        <pt x="713" y="562" on="1"/>
        <pt x="706" y="505" on="1"/>
        <pt x="632" y="505" on="1"/>
        <pt x="573" y="0" on="1"/>
        <pt x="495" y="0" on="1"/>
      </contour>
      <contour>
        <pt x="540" y="379" on="1"/>
        <pt x="554" y="505" on="1"/>
        <pt x="188" y="505" on="1"/>
        <pt x="174" y="379" on="1"/>
      </contour>
    </TTGlyph>
    <TTGlyph name="Hcircumflex" xMin="51" yMin="0" xMax="651" yMax="882">
      <component glyphName="H" x="0" y="0" flags="0x204"/>
      <component glyphName="circumflex.cap" x="148" y="0" flags="0x4"/>
    </TTGlyph>
    <TTGlyph name="I" xMin="53" yMin="0" xMax="209" yMax="663">
      <contour>
        <pt x="131" y="0" on="1"/>
        <pt x="53" y="0" on="1"/>
        <pt x="131" y="663" on="1"/>
        <pt x="209" y="663" on="1"/>
      </contour>
    </TTGlyph>
    <TTGlyph name="IJ" xMin="53" yMin="-10" xMax="678" yMax="663">
      <component glyphName="I" x="0" y="0" flags="0x4"/>
      <component glyphName="J" x="234" y="0" flags="0x4"/>
    </TTGlyph>
    <TTGlyph name="Iacute" xMin="53" yMin="0" xMax="316" yMax="904">
      <component glyphName="I" x="0" y="0" flags="0x204"/>
      <component glyphName="acute.cap" x="-61" y="0" flags="0x4"/>
    </TTGlyph>
    <TTGlyph name="Ibreve" xMin="45" yMin="0" xMax="337" yMax="866">
      <component glyphName="I" x="0" y="0" flags="0x204"/>
      <component glyphName="breve.cap" x="-66" y="0" flags="0x4"/>
    </TTGlyph>
    <TTGlyph name="Icircumflex" xMin="19" yMin="0" xMax="328" yMax="882">
      <component glyphName="I" x="0" y="0" flags="0x204"/>
      <component glyphName="circumflex.cap" x="-76" y="0" flags="0x4"/>
    </TTGlyph>
    <TTGlyph name="Idieresis" xMin="50" yMin="0" xMax="319" yMax="840">
      <component glyphName="I" x="0" y="0" flags="0x204"/>
      <component glyphName="dieresis.cap" x="-67" y="0" flags="0x4"/>
    </TTGlyph>
    <TTGlyph name="Idotaccent" xMin="53" yMin="0" xMax="232" yMax="829">
      <component glyphName="I" x="0" y="0" flags="0x204"/>
      <component glyphName="dotaccent.cap" x="-77" y="0" flags="0x4"/>
    </TTGlyph>
    <TTGlyph name="Igrave" xMin="53" yMin="0" xMax="285" yMax="902">
      <component glyphName="I" x="0" y="0" flags="0x204"/>
      <component glyphName="grave.cap" x="-62" y="0" flags="0x4"/>
    </TTGlyph>
    <TTGlyph name="Imacron" xMin="37" yMin="0" xMax="327" yMax="816">
      <component glyphName="I" x="0" y="0" flags="0x204"/>
      <component glyphName="macron.cap" x="-71" y="0" flags="0x4"/>
    </TTGlyph>
    <TTGlyph name="Iogonek" xMin="-28" yMin="-197" xMax="209" yMax="663">
      <contour>
        <pt x="131" y="0" on="1"/>
        <pt x="128" y="-1" on="0"/>
        <pt x="102" y="-8" on="0"/>
        <pt x="85" y="-23" on="1"/>
        <pt x="63" y="-43" on="0"/>
        <pt x="38" y="-86" on="0"/>
        <pt x="38" y="-104" on="1"/>
        <pt x="38" y="-141" on="0"/>
        <pt x="87" y="-141" on="1"/>
        <pt x="99" y="-141" on="0"/>
        <pt x="136" y="-136" on="0"/>
        <pt x="149" y="-133" on="1"/>
        <pt x="156" y="-172" on="1"/>
        <pt x="139" y="-183" on="0"/>
        <pt x="91" y="-197" on="0"/>
        <pt x="68" y="-197" on="1"/>
        <pt x="24" y="-197" on="0"/>
        <pt x="-28" y="-148" on="0"/>
        <pt x="-28" y="-114" on="1"/>
        <pt x="-28" y="-95" on="0"/>
        <pt x="-11" y="-59" on="0"/>
        <pt x="13" y="-29" on="0"/>
        <pt x="41" y="-6" on="0"/>
        <pt x="53" y="2" on="1"/>
        <pt x="131" y="663" on="1"/>
        <pt x="209" y="663" on="1"/>
      </contour>
    </TTGlyph>
    <TTGlyph name="Itilde" xMin="19" yMin="0" xMax="344" yMax="846">
      <component glyphName="I" x="0" y="0" flags="0x204"/>
      <component glyphName="tilde.cap" x="-74" y="0" flags="0x4"/>
    </TTGlyph>
    <TTGlyph name="J" xMin="-2" yMin="-10" xMax="444" yMax="663">
      <contour>
        <pt x="16" y="81" on="1"/>
        <pt x="59" y="72" on="1"/>
        <pt x="89" y="66" on="0"/>
        <pt x="153" y="58" on="0"/>
        <pt x="179" y="58" on="1"/>
        <pt x="240" y="58" on="0"/>
        <pt x="271" y="89" on="1"/>
        <pt x="288" y="106" on="0"/>
        <pt x="307" y="165" on="0"/>
        <pt x="312" y="203" on="1"/>
        <pt x="366" y="663" on="1"/>
        <pt x="444" y="663" on="1"/>
        <pt x="389" y="195" on="1"/>
        <pt x="383" y="144" on="0"/>
        <pt x="355" y="70" on="0"/>
        <pt x="329" y="44" on="1"/>
        <pt x="303" y="18" on="0"/>
        <pt x="230" y="-10" on="0"/>
        <pt x="182" y="-10" on="1"/>
        <pt x="140" y="-10" on="0"/>
        <pt x="43" y="14" on="0"/>
        <pt x="-2" y="36" on="1"/>
      </contour>
    </TTGlyph>
    <TTGlyph name="Jcircumflex" xMin="-2" yMin="-10" xMax="563" yMax="882">
      <component glyphName="J" x="0" y="0" flags="0x204"/>
      <component glyphName="circumflex.cap" x="159" y="0" flags="0x4"/>
    </TTGlyph>
    <TTGlyph name="K" xMin="51" yMin="0" xMax="620" yMax="667">
      <contour>
        <pt x="348" y="391" on="1"/>
        <pt x="571" y="0" on="1"/>
        <pt x="500" y="0" on="1"/>
        <pt x="491" y="0" on="0"/>
        <pt x="483" y="4" on="0"/>
        <pt x="479" y="10" on="1"/>
        <pt x="291" y="345" on="1"/>
        <pt x="277" y="333" on="0"/>
        <pt x="241" y="307" on="0"/>
        <pt x="205" y="281" on="0"/>
        <pt x="171" y="258" on="0"/>
        <pt x="159" y="251" on="1"/>
        <pt x="129" y="0" on="1"/>
        <pt x="51" y="0" on="1"/>
        <pt x="129" y="663" on="1"/>
        <pt x="207" y="663" on="1"/>
        <pt x="167" y="327" on="1"/>
        <pt x="577" y="667" on="1"/>
        <pt x="620" y="619" on="1"/>
      </contour>
    </TTGlyph>
    <TTGlyph name="Kcommaaccent" xMin="51" yMin="-263" xMax="620" yMax="667">
      <component glyphName="K" x="0" y="0" flags="0x204"/>
      <component glyphName="commaaccent" x="115" y="0" flags="0x4"/>
    </TTGlyph>
    <TTGlyph name="L" xMin="51" yMin="0" xMax="459" yMax="663">
      <contour>
        <pt x="129" y="663" on="1"/>
        <pt x="207" y="663" on="1"/>
        <pt x="136" y="65" on="1"/>
        <pt x="459" y="65" on="1"/>
        <pt x="451" y="0" on="1"/>
        <pt x="51" y="0" on="1"/>
      </contour>
    </TTGlyph>
    <TTGlyph name="Lacute" xMin="51" yMin="0" xMax="459" yMax="904">
      <component glyphName="L" x="0" y="0" flags="0x204"/>
      <component glyphName="acute.cap" x="-24" y="0" flags="0x4"/>
    </TTGlyph>
    <TTGlyph name="Lcaron" xMin="51" yMin="0" xMax="459" yMax="663">
      <component glyphName="L" x="0" y="0" flags="0x204"/>
      <component glyphName="commaaccent" x="211" y="721" flags="0x4"/>
    </TTGlyph>
    <TTGlyph name="Lcommaaccent" xMin="51" yMin="-263" xMax="459" yMax="663">
      <component glyphName="L" x="0" y="0" flags="0x204"/>
      <component glyphName="commaaccent" x="87" y="0" flags="0x4"/>
    </TTGlyph>
    <TTGlyph name="Ldot" xMin="51" yMin="0" xMax="459" yMax="663">
      <component glyphName="L" x="0" y="0" flags="0x204"/>
      <component glyphName="dotaccent" x="155" y="-259" flags="0x4"/>
    </TTGlyph>
    <TTGlyph name="Lslash" xMin="13" yMin="0" xMax="506" yMax="663">
      <contour>
        <pt x="13" y="267" on="1"/>
        <pt x="138" y="347" on="1"/>
        <pt x="176" y="663" on="1"/>
        <pt x="254" y="663" on="1"/>
        <pt x="223" y="395" on="1"/>
        <pt x="395" y="503" on="1"/>
        <pt x="428" y="450" on="1"/>
        <pt x="213" y="316" on="1"/>
        <pt x="184" y="65" on="1"/>
        <pt x="506" y="65" on="1"/>
        <pt x="498" y="0" on="1"/>
        <pt x="98" y="0" on="1"/>
        <pt x="129" y="267" on="1"/>
        <pt x="47" y="214" on="1"/>
      </contour>
    </TTGlyph>
    <TTGlyph name="M" xMin="51" yMin="0" xMax="779" yMax="663">
      <contour>
        <pt x="688" y="539" on="1"/>
        <pt x="673" y="519" on="0"/>
        <pt x="633" y="469" on="0"/>
        <pt x="616" y="449" on="1"/>
        <pt x="433" y="234" on="1"/>
        <pt x="391" y="234" on="1"/>
        <pt x="381" y="234" on="0"/>
        <pt x="374" y="238" on="0"/>
        <pt x="369" y="245" on="1"/>
        <pt x="245" y="444" on="1"/>
        <pt x="230" y="468" on="0"/>
        <pt x="199" y="522" on="0"/>
        <pt x="190" y="539" on="1"/>
        <pt x="126" y="0" on="1"/>
        <pt x="51" y="0" on="1"/>
        <pt x="129" y="663" on="1"/>
        <pt x="185" y="663" on="1"/>
        <pt x="193" y="663" on="0"/>
        <pt x="199" y="660" on="0"/>
        <pt x="204" y="652" on="1"/>
        <pt x="411" y="308" on="1"/>
        <pt x="412" y="308" on="1"/>
        <pt x="699" y="652" on="1"/>
        <pt x="705" y="659" on="0"/>
        <pt x="713" y="663" on="0"/>
        <pt x="723" y="663" on="1"/>
        <pt x="779" y="663" on="1"/>
        <pt x="701" y="0" on="1"/>
        <pt x="625" y="0" on="1"/>
      </contour>
    </TTGlyph>
    <TTGlyph name="N" xMin="51" yMin="0" xMax="673" yMax="663">
      <contour>
        <pt x="598" y="663" on="1"/>
        <pt x="673" y="663" on="1"/>
        <pt x="595" y="0" on="1"/>
        <pt x="552" y="0" on="1"/>
        <pt x="544" y="0" on="0"/>
        <pt x="537" y="3" on="0"/>
        <pt x="532" y="10" on="1"/>
        <pt x="271" y="405" on="1"/>
        <pt x="248" y="440" on="0"/>
        <pt x="206" y="506" on="0"/>
        <pt x="189" y="534" on="1"/>
        <pt x="126" y="0" on="1"/>
        <pt x="51" y="0" on="1"/>
        <pt x="129" y="663" on="1"/>
        <pt x="172" y="663" on="1"/>
        <pt x="180" y="663" on="0"/>
        <pt x="187" y="660" on="0"/>
        <pt x="192" y="653" on="1"/>
        <pt x="454" y="257" on="1"/>
        <pt x="501" y="186" on="0"/>
        <pt x="534" y="130" on="1"/>
      </contour>
    </TTGlyph>
    <TTGlyph name="Nacute" xMin="51" yMin="0" xMax="673" yMax="904">
      <component glyphName="N" x="0" y="0" flags="0x204"/>
      <component glyphName="acute.cap" x="186" y="0" flags="0x4"/>
    </TTGlyph>
    <TTGlyph name="Ncaron" xMin="51" yMin="0" xMax="673" yMax="892">
      <component glyphName="N" x="0" y="0" flags="0x204"/>
      <component glyphName="caron.cap" x="150" y="0" flags="0x4"/>
    </TTGlyph>
    <TTGlyph name="Ncommaaccent" xMin="51" yMin="-263" xMax="673" yMax="663">
      <component glyphName="N" x="0" y="0" flags="0x204"/>
      <component glyphName="commaaccent" x="142" y="0" flags="0x4"/>
    </TTGlyph>
    <TTGlyph name="Ntilde" xMin="51" yMin="0" xMax="673" yMax="846">
      <component glyphName="N" x="0" y="0" flags="0x204"/>
      <component glyphName="tilde.cap" x="164" y="0" flags="0x4"/>
    </TTGlyph>
    <TTGlyph name="O" xMin="56" yMin="-10" xMax="682" yMax="673">
      <contour>
        <pt x="349" y="65" on="1"/>
        <pt x="404" y="65" on="0"/>
        <pt x="497" y="111" on="0"/>
        <pt x="565" y="191" on="0"/>
        <pt x="603" y="299" on="0"/>
        <pt x="603" y="362" on="1"/>
        <pt x="603" y="410" on="0"/>
        <pt x="575" y="496" on="0"/>
        <pt x="521" y="561" on="0"/>
        <pt x="441" y="598" on="0"/>
        <pt x="389" y="598" on="1"/>
        <pt x="334" y="598" on="0"/>
        <pt x="241" y="552" on="0"/>
        <pt x="173" y="472" on="0"/>
        <pt x="135" y="364" on="0"/>
        <pt x="135" y="301" on="1"/>
        <pt x="135" y="253" on="0"/>
        <pt x="163" y="167" on="0"/>
        <pt x="217" y="102" on="0"/>
        <pt x="297" y="65" on="0"/>
      </contour>
      <contour>
        <pt x="344" y="-10" on="1"/>
        <pt x="280" y="-10" on="0"/>
        <pt x="174" y="38" on="0"/>
        <pt x="98" y="120" on="0"/>
        <pt x="56" y="232" on="0"/>
        <pt x="56" y="295" on="1"/>
        <pt x="56" y="372" on="0"/>
        <pt x="109" y="509" on="0"/>
        <pt x="201" y="613" on="0"/>
        <pt x="324" y="673" on="0"/>
        <pt x="394" y="673" on="1"/>
        <pt x="458" y="673" on="0"/>
        <pt x="564" y="625" on="0"/>
        <pt x="640" y="543" on="0"/>
        <pt x="682" y="431" on="0"/>
        <pt x="682" y="368" on="1"/>
        <pt x="682" y="291" on="0"/>
        <pt x="629" y="154" on="0"/>
        <pt x="537" y="50" on="0"/>
        <pt x="414" y="-10" on="0"/>
      </contour>
    </TTGlyph>
    <TTGlyph name="OE" xMin="56" yMin="-10" xMax="1045" yMax="673">
      <contour>
        <pt x="343" y="-10" on="1"/>
        <pt x="279" y="-10" on="0"/>
        <pt x="174" y="38" on="0"/>
        <pt x="98" y="120" on="0"/>
        <pt x="56" y="232" on="0"/>
        <pt x="56" y="295" on="1"/>
        <pt x="56" y="372" on="0"/>
        <pt x="109" y="509" on="0"/>
        <pt x="200" y="613" on="0"/>
        <pt x="323" y="673" on="0"/>
        <pt x="394" y="673" on="1"/>
        <pt x="472" y="673" on="0"/>
        <pt x="590" y="596" on="0"/>
        <pt x="623" y="536" on="1"/>
        <pt x="638" y="663" on="1"/>
        <pt x="1045" y="663" on="1"/>
        <pt x="1037" y="598" on="1"/>
        <pt x="708" y="598" on="1"/>
        <pt x="683" y="377" on="1"/>
        <pt x="983" y="377" on="1"/>
        <pt x="975" y="313" on="1"/>
        <pt x="674" y="313" on="1"/>
        <pt x="646" y="65" on="1"/>
        <pt x="986" y="65" on="1"/>
        <pt x="978" y="0" on="1"/>
        <pt x="560" y="0" on="1"/>
        <pt x="572" y="102" on="1"/>
        <pt x="531" y="51" on="0"/>
        <pt x="412" y="-10" on="0"/>
      </contour>
      <contour>
        <pt x="389" y="598" on="1"/>
        <pt x="334" y="598" on="0"/>
        <pt x="241" y="552" on="0"/>
        <pt x="173" y="472" on="0"/>
        <pt x="135" y="363" on="0"/>
        <pt x="135" y="301" on="1"/>
        <pt x="135" y="253" on="0"/>
        <pt x="163" y="167" on="0"/>
        <pt x="217" y="102" on="0"/>
        <pt x="297" y="65" on="0"/>
        <pt x="349" y="65" on="1"/>
        <pt x="404" y="65" on="0"/>
        <pt x="496" y="111" on="0"/>
        <pt x="562" y="191" on="0"/>
        <pt x="599" y="300" on="0"/>
        <pt x="599" y="362" on="1"/>
        <pt x="599" y="410" on="0"/>
        <pt x="572" y="496" on="0"/>
        <pt x="520" y="561" on="0"/>
        <pt x="441" y="598" on="0"/>
      </contour>
    </TTGlyph>
    <TTGlyph name="Oacute" xMin="56" yMin="-10" xMax="682" yMax="904">
      <component glyphName="O" x="0" y="0" flags="0x204"/>
      <component glyphName="acute.cap" x="165" y="0" flags="0x4"/>
    </TTGlyph>
    <TTGlyph name="Obreve" xMin="56" yMin="-10" xMax="682" yMax="866">
      <component glyphName="O" x="0" y="0" flags="0x204"/>
      <component glyphName="breve.cap" x="165" y="0" flags="0x4"/>
    </TTGlyph>
    <TTGlyph name="Ocircumflex" xMin="56" yMin="-10" xMax="682" yMax="882">
      <component glyphName="O" x="0" y="0" flags="0x204"/>
      <component glyphName="circumflex.cap" x="159" y="0" flags="0x4"/>
    </TTGlyph>
    <TTGlyph name="Odieresis" xMin="56" yMin="-10" xMax="682" yMax="840">
      <component glyphName="O" x="0" y="0" flags="0x204"/>
      <component glyphName="dieresis.cap" x="160" y="0" flags="0x4"/>
    </TTGlyph>
    <TTGlyph name="Ograve" xMin="56" yMin="-10" xMax="682" yMax="902">
      <component glyphName="O" x="0" y="0" flags="0x204"/>
      <component glyphName="grave.cap" x="181" y="0" flags="0x4"/>
    </TTGlyph>
    <TTGlyph name="Ohungarumlaut" xMin="56" yMin="-10" xMax="682" yMax="929">
      <component glyphName="O" x="0" y="0" flags="0x204"/>
      <component glyphName="hungarumlaut.cap" x="160" y="0" flags="0x4"/>
    </TTGlyph>
    <TTGlyph name="Omacron" xMin="56" yMin="-10" xMax="682" yMax="816">
      <component glyphName="O" x="0" y="0" flags="0x204"/>
      <component glyphName="macron.cap" x="158" y="0" flags="0x4"/>
    </TTGlyph>
    <TTGlyph name="Omega" xMin="57" yMin="0" xMax="660" yMax="673">
      <contour>
        <pt x="376" y="35" on="1"/>
        <pt x="378" y="46" on="0"/>
        <pt x="382" y="58" on="0"/>
        <pt x="392" y="70" on="1"/>
        <pt x="460" y="154" on="1"/>
        <pt x="485" y="185" on="0"/>
        <pt x="529" y="245" on="0"/>
        <pt x="561" y="306" on="0"/>
        <pt x="579" y="369" on="0"/>
        <pt x="579" y="405" on="1"/>
        <pt x="579" y="449" on="0"/>
        <pt x="549" y="521" on="0"/>
        <pt x="497" y="571" on="0"/>
        <pt x="424" y="598" on="0"/>
        <pt x="381" y="598" on="1"/>
        <pt x="333" y="598" on="0"/>
        <pt x="250" y="566" on="0"/>
        <pt x="189" y="505" on="0"/>
        <pt x="154" y="418" on="0"/>
        <pt x="154" y="363" on="1"/>
        <pt x="154" y="303" on="0"/>
        <pt x="192" y="203" on="0"/>
        <pt x="225" y="147" on="1"/>
        <pt x="270" y="69" on="1"/>
        <pt x="276" y="58" on="0"/>
        <pt x="280" y="47" on="0"/>
        <pt x="278" y="35" on="1"/>
        <pt x="273" y="0" on="1"/>
        <pt x="57" y="0" on="1"/>
        <pt x="65" y="64" on="1"/>
        <pt x="204" y="64" on="1"/>
        <pt x="174" y="108" on="1"/>
        <pt x="130" y="173" on="0"/>
        <pt x="74" y="298" on="0"/>
        <pt x="74" y="370" on="1"/>
        <pt x="74" y="430" on="0"/>
        <pt x="118" y="540" on="0"/>
        <pt x="199" y="624" on="0"/>
        <pt x="314" y="673" on="0"/>
        <pt x="384" y="673" on="1"/>
        <pt x="444" y="673" on="0"/>
        <pt x="545" y="633" on="0"/>
        <pt x="618" y="563" on="0"/>
        <pt x="660" y="468" on="0"/>
        <pt x="660" y="412" on="1"/>
        <pt x="660" y="333" on="0"/>
        <pt x="572" y="183" on="0"/>
        <pt x="500" y="108" on="1"/>
        <pt x="458" y="64" on="1"/>
        <pt x="594" y="64" on="1"/>
        <pt x="586" y="0" on="1"/>
        <pt x="371" y="0" on="1"/>
      </contour>
    </TTGlyph>
    <TTGlyph name="Oslash" xMin="42" yMin="-47" xMax="696" yMax="709">
      <contour>
        <pt x="125" y="92" on="1"/>
        <pt x="92" y="133" on="0"/>
        <pt x="56" y="236" on="0"/>
        <pt x="56" y="295" on="1"/>
        <pt x="56" y="372" on="0"/>
        <pt x="109" y="509" on="0"/>
        <pt x="201" y="613" on="0"/>
        <pt x="324" y="673" on="0"/>
        <pt x="394" y="673" on="1"/>
        <pt x="445" y="673" on="0"/>
        <pt x="533" y="643" on="0"/>
        <pt x="568" y="615" on="1"/>
        <pt x="647" y="709" on="1"/>
        <pt x="696" y="668" on="1"/>
        <pt x="613" y="570" on="1"/>
        <pt x="646" y="529" on="0"/>
        <pt x="682" y="427" on="0"/>
        <pt x="682" y="368" on="1"/>
        <pt x="682" y="291" on="0"/>
        <pt x="629" y="154" on="0"/>
        <pt x="537" y="50" on="0"/>
        <pt x="414" y="-10" on="0"/>
        <pt x="344" y="-10" on="1"/>
        <pt x="293" y="-10" on="0"/>
        <pt x="205" y="20" on="0"/>
        <pt x="170" y="47" on="1"/>
        <pt x="91" y="-47" on="1"/>
        <pt x="42" y="-6" on="1"/>
      </contour>
      <contour>
        <pt x="135" y="301" on="1"/>
        <pt x="135" y="259" on="0"/>
        <pt x="156" y="183" on="0"/>
        <pt x="176" y="153" on="1"/>
        <pt x="518" y="557" on="1"/>
        <pt x="493" y="577" on="0"/>
        <pt x="428" y="598" on="0"/>
        <pt x="389" y="598" on="1"/>
        <pt x="334" y="598" on="0"/>
        <pt x="241" y="552" on="0"/>
        <pt x="173" y="472" on="0"/>
        <pt x="135" y="364" on="0"/>
      </contour>
      <contour>
        <pt x="349" y="65" on="1"/>
        <pt x="404" y="65" on="0"/>
        <pt x="497" y="111" on="0"/>
        <pt x="565" y="191" on="0"/>
        <pt x="603" y="299" on="0"/>
        <pt x="603" y="362" on="1"/>
        <pt x="603" y="404" on="0"/>
        <pt x="582" y="479" on="0"/>
        <pt x="562" y="509" on="1"/>
        <pt x="220" y="105" on="1"/>
        <pt x="245" y="86" on="0"/>
        <pt x="310" y="65" on="0"/>
      </contour>
    </TTGlyph>
    <TTGlyph name="Oslashacute" xMin="42" yMin="-47" xMax="696" yMax="904">
      <component glyphName="Oslash" x="0" y="0" flags="0x204"/>
      <component glyphName="acute.cap" x="165" y="0" flags="0x4"/>
    </TTGlyph>
    <TTGlyph name="Otilde" xMin="56" yMin="-10" xMax="682" yMax="846">
      <component glyphName="O" x="0" y="0" flags="0x204"/>
      <component glyphName="tilde.cap" x="159" y="0" flags="0x4"/>
    </TTGlyph>
    <TTGlyph name="P" xMin="51" yMin="0" xMax="572" yMax="663">
      <contour>
        <pt x="129" y="0" on="1"/>
        <pt x="51" y="0" on="1"/>
        <pt x="129" y="663" on="1"/>
        <pt x="351" y="663" on="1"/>
        <pt x="471" y="663" on="0"/>
        <pt x="525" y="609" on="1"/>
        <pt x="572" y="564" on="0"/>
        <pt x="572" y="482" on="1"/>
        <pt x="572" y="430" on="0"/>
        <pt x="531" y="322" on="0"/>
        <pt x="489" y="280" on="1"/>
        <pt x="462" y="254" on="0"/>
        <pt x="400" y="234" on="0"/>
        <pt x="347" y="234" on="1"/>
        <pt x="156" y="234" on="1"/>
      </contour>
      <contour>
        <pt x="164" y="298" on="1"/>
        <pt x="369" y="298" on="1"/>
        <pt x="387" y="298" on="0"/>
        <pt x="412" y="303" on="0"/>
        <pt x="431" y="313" on="0"/>
        <pt x="446" y="329" on="0"/>
        <pt x="454" y="340" on="1"/>
        <pt x="473" y="368" on="0"/>
        <pt x="494" y="441" on="0"/>
        <pt x="494" y="479" on="1"/>
        <pt x="494" y="534" on="0"/>
        <pt x="467" y="563" on="1"/>
        <pt x="449" y="583" on="0"/>
        <pt x="394" y="598" on="0"/>
        <pt x="352" y="598" on="1"/>
        <pt x="199" y="598" on="1"/>
      </contour>
    </TTGlyph>
    <TTGlyph name="Q" xMin="56" yMin="-173" xMax="682" yMax="673">
      <contour>
        <pt x="344" y="-10" on="1"/>
        <pt x="280" y="-10" on="0"/>
        <pt x="174" y="38" on="0"/>
        <pt x="98" y="120" on="0"/>
        <pt x="56" y="232" on="0"/>
        <pt x="56" y="295" on="1"/>
        <pt x="56" y="372" on="0"/>
        <pt x="109" y="509" on="0"/>
        <pt x="200" y="613" on="0"/>
        <pt x="323" y="673" on="0"/>
        <pt x="394" y="673" on="1"/>
        <pt x="458" y="673" on="0"/>
        <pt x="564" y="625" on="0"/>
        <pt x="640" y="542" on="0"/>
        <pt x="682" y="431" on="0"/>
        <pt x="682" y="367" on="1"/>
        <pt x="682" y="314" on="0"/>
        <pt x="656" y="215" on="0"/>
        <pt x="609" y="129" on="0"/>
        <pt x="543" y="59" on="0"/>
        <pt x="503" y="35" on="1"/>
        <pt x="617" y="-135" on="1"/>
        <pt x="547" y="-173" on="1"/>
        <pt x="439" y="6" on="1"/>
        <pt x="418" y="-2" on="0"/>
        <pt x="368" y="-10" on="0"/>
      </contour>
      <contour>
        <pt x="349" y="65" on="1"/>
        <pt x="404" y="65" on="0"/>
        <pt x="497" y="111" on="0"/>
        <pt x="565" y="191" on="0"/>
        <pt x="603" y="299" on="0"/>
        <pt x="603" y="362" on="1"/>
        <pt x="603" y="410" on="0"/>
        <pt x="575" y="496" on="0"/>
        <pt x="521" y="561" on="0"/>
        <pt x="441" y="598" on="0"/>
        <pt x="389" y="598" on="1"/>
        <pt x="334" y="598" on="0"/>
        <pt x="241" y="552" on="0"/>
        <pt x="173" y="472" on="0"/>
        <pt x="135" y="364" on="0"/>
        <pt x="135" y="301" on="1"/>
        <pt x="135" y="253" on="0"/>
        <pt x="163" y="167" on="0"/>
        <pt x="217" y="102" on="0"/>
        <pt x="297" y="65" on="0"/>
      </contour>
    </TTGlyph>
    <TTGlyph name="R" xMin="51" yMin="0" xMax="573" yMax="663">
      <contour>
        <pt x="483" y="0" on="1"/>
        <pt x="470" y="0" on="0"/>
        <pt x="466" y="10" on="1"/>
        <pt x="368" y="238" on="1"/>
        <pt x="365" y="246" on="0"/>
        <pt x="359" y="249" on="0"/>
        <pt x="348" y="249" on="1"/>
        <pt x="159" y="249" on="1"/>
        <pt x="129" y="0" on="1"/>
        <pt x="51" y="0" on="1"/>
        <pt x="129" y="663" on="1"/>
        <pt x="358" y="663" on="1"/>
        <pt x="473" y="663" on="0"/>
        <pt x="527" y="610" on="1"/>
        <pt x="573" y="566" on="0"/>
        <pt x="573" y="485" on="1"/>
        <pt x="573" y="419" on="0"/>
        <pt x="505" y="297" on="0"/>
        <pt x="439" y="260" on="1"/>
        <pt x="555" y="0" on="1"/>
      </contour>
      <contour>
        <pt x="372" y="313" on="1"/>
        <pt x="388" y="313" on="0"/>
        <pt x="410" y="316" on="0"/>
        <pt x="428" y="325" on="0"/>
        <pt x="445" y="341" on="0"/>
        <pt x="454" y="354" on="1"/>
        <pt x="473" y="380" on="0"/>
        <pt x="495" y="450" on="0"/>
        <pt x="495" y="485" on="1"/>
        <pt x="495" y="540" on="0"/>
        <pt x="470" y="566" on="1"/>
        <pt x="453" y="583" on="0"/>
        <pt x="399" y="598" on="0"/>
        <pt x="355" y="598" on="1"/>
        <pt x="199" y="598" on="1"/>
        <pt x="166" y="313" on="1"/>
      </contour>
    </TTGlyph>
    <TTGlyph name="Racute" xMin="51" yMin="0" xMax="573" yMax="904">
      <component glyphName="R" x="0" y="0" flags="0x204"/>
      <component glyphName="acute.cap" x="134" y="0" flags="0x4"/>
    </TTGlyph>
    <TTGlyph name="Rcaron" xMin="51" yMin="0" xMax="573" yMax="892">
      <component glyphName="R" x="0" y="0" flags="0x204"/>
      <component glyphName="caron.cap" x="102" y="0" flags="0x4"/>
    </TTGlyph>
    <TTGlyph name="Rcommaaccent" xMin="51" yMin="-263" xMax="573" yMax="663">
      <component glyphName="R" x="0" y="0" flags="0x204"/>
      <component glyphName="commaaccent" x="122" y="0" flags="0x4"/>
    </TTGlyph>
    <TTGlyph name="S" xMin="22" yMin="-10" xMax="501" yMax="673">
      <contour>
        <pt x="433" y="599" on="1"/>
        <pt x="407" y="601" on="0"/>
        <pt x="340" y="605" on="0"/>
        <pt x="314" y="605" on="1"/>
        <pt x="281" y="605" on="0"/>
        <pt x="224" y="596" on="0"/>
        <pt x="183" y="575" on="0"/>
        <pt x="160" y="540" on="0"/>
        <pt x="160" y="514" on="1"/>
        <pt x="160" y="497" on="0"/>
        <pt x="173" y="469" on="0"/>
        <pt x="201" y="444" on="0"/>
        <pt x="245" y="420" on="0"/>
        <pt x="277" y="405" on="1"/>
        <pt x="325" y="383" on="1"/>
        <pt x="367" y="364" on="0"/>
        <pt x="428" y="325" on="0"/>
        <pt x="468" y="282" on="0"/>
        <pt x="487" y="231" on="0"/>
        <pt x="487" y="199" on="1"/>
        <pt x="487" y="152" on="0"/>
        <pt x="454" y="75" on="0"/>
        <pt x="393" y="20" on="0"/>
        <pt x="304" y="-10" on="0"/>
        <pt x="249" y="-10" on="1"/>
        <pt x="223" y="-10" on="0"/>
        <pt x="163" y="-1" on="0"/>
        <pt x="103" y="14" on="0"/>
        <pt x="46" y="35" on="0"/>
        <pt x="22" y="47" on="1"/>
        <pt x="43" y="93" on="1"/>
        <pt x="98" y="81" on="1"/>
        <pt x="143" y="71" on="0"/>
        <pt x="219" y="59" on="0"/>
        <pt x="254" y="59" on="1"/>
        <pt x="325" y="59" on="0"/>
        <pt x="412" y="129" on="0"/>
        <pt x="412" y="194" on="1"/>
        <pt x="412" y="216" on="0"/>
        <pt x="400" y="249" on="0"/>
        <pt x="371" y="278" on="0"/>
        <pt x="325" y="305" on="0"/>
        <pt x="292" y="320" on="1"/>
        <pt x="242" y="343" on="1"/>
        <pt x="206" y="360" on="0"/>
        <pt x="148" y="394" on="0"/>
        <pt x="107" y="435" on="0"/>
        <pt x="86" y="483" on="0"/>
        <pt x="86" y="513" on="1"/>
        <pt x="86" y="549" on="0"/>
        <pt x="117" y="608" on="0"/>
        <pt x="175" y="650" on="0"/>
        <pt x="260" y="673" on="0"/>
        <pt x="313" y="673" on="1"/>
        <pt x="361" y="673" on="0"/>
        <pt x="463" y="655" on="0"/>
        <pt x="501" y="641" on="1"/>
        <pt x="490" y="594" on="1"/>
      </contour>
    </TTGlyph>
    <TTGlyph name="Sacute" xMin="22" yMin="-10" xMax="501" yMax="904">
      <component glyphName="S" x="0" y="0" flags="0x204"/>
      <component glyphName="acute.cap" x="89" y="0" flags="0x4"/>
    </TTGlyph>
    <TTGlyph name="Scaron" xMin="22" yMin="-10" xMax="501" yMax="892">
      <component glyphName="S" x="0" y="0" flags="0x204"/>
      <component glyphName="caron.cap" x="67" y="0" flags="0x4"/>
    </TTGlyph>
    <TTGlyph name="Scedilla" xMin="22" yMin="-222" xMax="501" yMax="673">
      <contour>
        <pt x="433" y="599" on="1"/>
        <pt x="407" y="601" on="0"/>
        <pt x="340" y="605" on="0"/>
        <pt x="314" y="605" on="1"/>
        <pt x="281" y="605" on="0"/>
        <pt x="224" y="596" on="0"/>
        <pt x="183" y="575" on="0"/>
        <pt x="160" y="540" on="0"/>
        <pt x="160" y="514" on="1"/>
        <pt x="160" y="497" on="0"/>
        <pt x="173" y="469" on="0"/>
        <pt x="201" y="444" on="0"/>
        <pt x="245" y="420" on="0"/>
        <pt x="277" y="405" on="1"/>
        <pt x="325" y="383" on="1"/>
        <pt x="367" y="364" on="0"/>
        <pt x="428" y="325" on="0"/>
        <pt x="468" y="282" on="0"/>
        <pt x="487" y="231" on="0"/>
        <pt x="487" y="199" on="1"/>
        <pt x="487" y="105" on="0"/>
        <pt x="366" y="-7" on="0"/>
        <pt x="258" y="-10" on="1"/>
        <pt x="254" y="-17" on="0"/>
        <pt x="249" y="-31" on="0"/>
        <pt x="249" y="-36" on="1"/>
        <pt x="249" y="-46" on="0"/>
        <pt x="279" y="-58" on="0"/>
        <pt x="316" y="-75" on="0"/>
        <pt x="346" y="-101" on="0"/>
        <pt x="346" y="-125" on="1"/>
        <pt x="346" y="-150" on="0"/>
        <pt x="315" y="-185" on="0"/>
        <pt x="265" y="-209" on="0"/>
        <pt x="203" y="-221" on="0"/>
        <pt x="172" y="-222" on="1"/>
        <pt x="166" y="-180" on="1"/>
        <pt x="231" y="-166" on="1"/>
        <pt x="257" y="-161" on="0"/>
        <pt x="278" y="-148" on="0"/>
        <pt x="278" y="-136" on="1"/>
        <pt x="278" y="-125" on="0"/>
        <pt x="249" y="-111" on="0"/>
        <pt x="213" y="-97" on="0"/>
        <pt x="184" y="-78" on="0"/>
        <pt x="184" y="-62" on="1"/>
        <pt x="184" y="-49" on="0"/>
        <pt x="199" y="-22" on="0"/>
        <pt x="211" y="-8" on="1"/>
        <pt x="163" y="-3" on="0"/>
        <pt x="61" y="26" on="0"/>
        <pt x="22" y="47" on="1"/>
        <pt x="43" y="93" on="1"/>
        <pt x="98" y="81" on="1"/>
        <pt x="143" y="71" on="0"/>
        <pt x="219" y="59" on="0"/>
        <pt x="254" y="59" on="1"/>
        <pt x="325" y="59" on="0"/>
        <pt x="412" y="129" on="0"/>
        <pt x="412" y="194" on="1"/>
        <pt x="412" y="216" on="0"/>
        <pt x="400" y="249" on="0"/>
        <pt x="371" y="278" on="0"/>
        <pt x="325" y="305" on="0"/>
        <pt x="292" y="320" on="1"/>
        <pt x="242" y="343" on="1"/>
        <pt x="206" y="360" on="0"/>
        <pt x="148" y="394" on="0"/>
        <pt x="107" y="435" on="0"/>
        <pt x="86" y="483" on="0"/>
        <pt x="86" y="513" on="1"/>
        <pt x="86" y="549" on="0"/>
        <pt x="117" y="608" on="0"/>
        <pt x="175" y="650" on="0"/>
        <pt x="260" y="673" on="0"/>
        <pt x="313" y="673" on="1"/>
        <pt x="361" y="673" on="0"/>
        <pt x="463" y="655" on="0"/>
        <pt x="501" y="641" on="1"/>
        <pt x="490" y="594" on="1"/>
      </contour>
    </TTGlyph>
    <TTGlyph name="Scircumflex" xMin="22" yMin="-10" xMax="501" yMax="882">
      <component glyphName="S" x="0" y="0" flags="0x204"/>
      <component glyphName="circumflex.cap" x="78" y="0" flags="0x4"/>
    </TTGlyph>
    <TTGlyph name="Scommaaccent" xMin="22" yMin="-263" xMax="501" yMax="673">
      <component glyphName="S" x="0" y="0" flags="0x204"/>
      <component glyphName="commaaccent" x="85" y="0" flags="0x4"/>
    </TTGlyph>
    <TTGlyph name="T" xMin="69" yMin="0" xMax="587" yMax="663">
      <contour>
        <pt x="285" y="598" on="1"/>
        <pt x="69" y="598" on="1"/>
        <pt x="77" y="663" on="1"/>
        <pt x="587" y="663" on="1"/>
        <pt x="579" y="598" on="1"/>
        <pt x="363" y="598" on="1"/>
        <pt x="293" y="0" on="1"/>
        <pt x="215" y="0" on="1"/>
      </contour>
    </TTGlyph>
    <TTGlyph name="Tbar" xMin="69" yMin="0" xMax="587" yMax="663">
      <contour>
        <pt x="250" y="305" on="1"/>
        <pt x="111" y="305" on="1"/>
        <pt x="118" y="363" on="1"/>
        <pt x="257" y="363" on="1"/>
        <pt x="285" y="598" on="1"/>
        <pt x="69" y="598" on="1"/>
        <pt x="77" y="663" on="1"/>
        <pt x="587" y="663" on="1"/>
        <pt x="579" y="598" on="1"/>
        <pt x="363" y="598" on="1"/>
        <pt x="335" y="363" on="1"/>
        <pt x="476" y="363" on="1"/>
        <pt x="469" y="305" on="1"/>
        <pt x="328" y="305" on="1"/>
        <pt x="293" y="0" on="1"/>
        <pt x="215" y="0" on="1"/>
      </contour>
    </TTGlyph>
    <TTGlyph name="Tcaron" xMin="69" yMin="0" xMax="587" yMax="892">
      <component glyphName="T" x="0" y="0" flags="0x204"/>
      <component glyphName="caron.cap" x="76" y="0" flags="0x4"/>
    </TTGlyph>
    <TTGlyph name="Tcommaaccent" xMin="69" yMin="-263" xMax="587" yMax="663">
      <component glyphName="T" x="0" y="0" flags="0x204"/>
      <component glyphName="commaaccent" x="80" y="0" flags="0x4"/>
    </TTGlyph>
    <TTGlyph name="Thorn" xMin="51" yMin="0" xMax="558" yMax="663">
      <contour>
        <pt x="129" y="0" on="1"/>
        <pt x="51" y="0" on="1"/>
        <pt x="129" y="663" on="1"/>
        <pt x="207" y="663" on="1"/>
        <pt x="194" y="551" on="1"/>
        <pt x="336" y="551" on="1"/>
        <pt x="457" y="551" on="0"/>
        <pt x="511" y="497" on="1"/>
        <pt x="558" y="452" on="0"/>
        <pt x="558" y="370" on="1"/>
        <pt x="558" y="318" on="0"/>
        <pt x="516" y="209" on="0"/>
        <pt x="474" y="167" on="1"/>
        <pt x="447" y="141" on="0"/>
        <pt x="385" y="121" on="0"/>
        <pt x="332" y="121" on="1"/>
        <pt x="143" y="121" on="1"/>
      </contour>
      <contour>
        <pt x="151" y="187" on="1"/>
        <pt x="355" y="187" on="1"/>
        <pt x="373" y="187" on="0"/>
        <pt x="398" y="192" on="0"/>
        <pt x="417" y="202" on="0"/>
        <pt x="432" y="218" on="0"/>
        <pt x="440" y="229" on="1"/>
        <pt x="459" y="257" on="0"/>
        <pt x="480" y="329" on="0"/>
        <pt x="480" y="367" on="1"/>
        <pt x="480" y="421" on="0"/>
        <pt x="453" y="450" on="1"/>
        <pt x="435" y="470" on="0"/>
        <pt x="380" y="485" on="0"/>
        <pt x="338" y="485" on="1"/>
        <pt x="186" y="485" on="1"/>
      </contour>
    </TTGlyph>
    <TTGlyph name="U" xMin="74" yMin="-10" xMax="643" yMax="663">
      <contour>
        <pt x="596" y="273" on="1"/>
        <pt x="579" y="138" on="0"/>
        <pt x="439" y="-10" on="0"/>
        <pt x="312" y="-10" on="1"/>
        <pt x="254" y="-10" on="0"/>
        <pt x="165" y="24" on="0"/>
        <pt x="105" y="85" on="0"/>
        <pt x="74" y="167" on="0"/>
        <pt x="74" y="215" on="1"/>
        <pt x="74" y="232" on="0"/>
        <pt x="77" y="281" on="0"/>
        <pt x="81" y="313" on="1"/>
        <pt x="123" y="663" on="1"/>
        <pt x="201" y="663" on="1"/>
        <pt x="159" y="310" on="1"/>
        <pt x="155" y="278" on="0"/>
        <pt x="152" y="236" on="0"/>
        <pt x="152" y="219" on="1"/>
        <pt x="152" y="145" on="0"/>
        <pt x="238" y="64" on="0"/>
        <pt x="317" y="64" on="1"/>
        <pt x="368" y="64" on="0"/>
        <pt x="440" y="95" on="0"/>
        <pt x="489" y="152" on="0"/>
        <pt x="517" y="234" on="0"/>
        <pt x="523" y="285" on="1"/>
        <pt x="568" y="663" on="1"/>
        <pt x="643" y="663" on="1"/>
      </contour>
    </TTGlyph>
    <TTGlyph name="Uacute" xMin="74" yMin="-10" xMax="643" yMax="904">
      <component glyphName="U" x="0" y="0" flags="0x204"/>
      <component glyphName="acute.cap" x="173" y="0" flags="0x4"/>
    </TTGlyph>
    <TTGlyph name="Ubreve" xMin="74" yMin="-10" xMax="643" yMax="866">
      <component glyphName="U" x="0" y="0" flags="0x204"/>
      <component glyphName="breve.cap" x="151" y="0" flags="0x4"/>
    </TTGlyph>
    <TTGlyph name="Ucircumflex" xMin="74" yMin="-10" xMax="643" yMax="882">
      <component glyphName="U" x="0" y="0" flags="0x204"/>
      <component glyphName="circumflex.cap" x="143" y="0" flags="0x4"/>
    </TTGlyph>
    <TTGlyph name="Udieresis" xMin="74" yMin="-10" xMax="643" yMax="840">
      <component glyphName="U" x="0" y="0" flags="0x204"/>
      <component glyphName="dieresis.cap" x="145" y="0" flags="0x4"/>
    </TTGlyph>
    <TTGlyph name="Ugrave" xMin="74" yMin="-10" xMax="643" yMax="902">
      <component glyphName="U" x="0" y="0" flags="0x204"/>
      <component glyphName="grave.cap" x="141" y="0" flags="0x4"/>
    </TTGlyph>
    <TTGlyph name="Uhungarumlaut" xMin="74" yMin="-10" xMax="643" yMax="929">
      <component glyphName="U" x="0" y="0" flags="0x204"/>
      <component glyphName="hungarumlaut.cap" x="160" y="0" flags="0x4"/>
    </TTGlyph>
    <TTGlyph name="Umacron" xMin="74" yMin="-10" xMax="643" yMax="816">
      <component glyphName="U" x="0" y="0" flags="0x204"/>
      <component glyphName="macron.cap" x="142" y="0" flags="0x4"/>
    </TTGlyph>
    <TTGlyph name="Uogonek" xMin="74" yMin="-197" xMax="643" yMax="663">
      <contour>
        <pt x="596" y="273" on="1"/>
        <pt x="589" y="216" on="0"/>
        <pt x="561" y="133" on="0"/>
        <pt x="521" y="72" on="0"/>
        <pt x="467" y="30" on="0"/>
        <pt x="435" y="14" on="1"/>
        <pt x="370" y="-18" on="0"/>
        <pt x="304" y="-67" on="0"/>
        <pt x="304" y="-104" on="1"/>
        <pt x="304" y="-141" on="0"/>
        <pt x="353" y="-141" on="1"/>
        <pt x="365" y="-141" on="0"/>
        <pt x="402" y="-136" on="0"/>
        <pt x="415" y="-133" on="1"/>
        <pt x="422" y="-172" on="1"/>
        <pt x="405" y="-183" on="0"/>
        <pt x="357" y="-197" on="0"/>
        <pt x="334" y="-197" on="1"/>
        <pt x="290" y="-197" on="0"/>
        <pt x="238" y="-148" on="0"/>
        <pt x="238" y="-114" on="1"/>
        <pt x="238" y="-84" on="0"/>
        <pt x="278" y="-29" on="0"/>
        <pt x="308" y="-10" on="1"/>
        <pt x="251" y="-9" on="0"/>
        <pt x="163" y="26" on="0"/>
        <pt x="104" y="86" on="0"/>
        <pt x="74" y="168" on="0"/>
        <pt x="74" y="215" on="1"/>
        <pt x="74" y="232" on="0"/>
        <pt x="77" y="281" on="0"/>
        <pt x="81" y="313" on="1"/>
        <pt x="123" y="663" on="1"/>
        <pt x="201" y="663" on="1"/>
        <pt x="159" y="310" on="1"/>
        <pt x="155" y="278" on="0"/>
        <pt x="152" y="236" on="0"/>
        <pt x="152" y="219" on="1"/>
        <pt x="152" y="145" on="0"/>
        <pt x="238" y="64" on="0"/>
        <pt x="317" y="64" on="1"/>
        <pt x="368" y="64" on="0"/>
        <pt x="440" y="95" on="0"/>
        <pt x="489" y="152" on="0"/>
        <pt x="517" y="234" on="0"/>
        <pt x="523" y="285" on="1"/>
        <pt x="568" y="663" on="1"/>
        <pt x="643" y="663" on="1"/>
      </contour>
    </TTGlyph>
    <TTGlyph name="Uring" xMin="74" yMin="-10" xMax="643" yMax="936">
      <component glyphName="U" x="0" y="0" flags="0x204"/>
      <component glyphName="ring.cap" x="144" y="-3" flags="0x4"/>
    </TTGlyph>
    <TTGlyph name="Utilde" xMin="74" yMin="-10" xMax="643" yMax="846">
      <component glyphName="U" x="0" y="0" flags="0x204"/>
      <component glyphName="tilde.cap" x="147" y="0" flags="0x4"/>
    </TTGlyph>
    <TTGlyph name="V" xMin="66" yMin="0" xMax="652" yMax="663">
      <contour>
        <pt x="134" y="663" on="1"/>
        <pt x="145" y="663" on="0"/>
        <pt x="148" y="652" on="1"/>
        <pt x="246" y="274" on="1"/>
        <pt x="262" y="213" on="0"/>
        <pt x="286" y="117" on="0"/>
        <pt x="294" y="79" on="1"/>
        <pt x="295" y="79" on="1"/>
        <pt x="307" y="108" on="0"/>
        <pt x="351" y="204" on="0"/>
        <pt x="382" y="269" on="1"/>
        <pt x="565" y="651" on="1"/>
        <pt x="570" y="663" on="0"/>
        <pt x="583" y="663" on="1"/>
        <pt x="652" y="663" on="1"/>
        <pt x="328" y="0" on="1"/>
        <pt x="256" y="0" on="1"/>
        <pt x="243" y="0" on="0"/>
        <pt x="241" y="10" on="1"/>
        <pt x="66" y="663" on="1"/>
      </contour>
    </TTGlyph>
    <TTGlyph name="W" xMin="77" yMin="0" xMax="980" yMax="663">
      <contour>
        <pt x="546" y="663" on="1"/>
        <pt x="554" y="663" on="0"/>
        <pt x="558" y="660" on="0"/>
        <pt x="560" y="652" on="1"/>
        <pt x="629" y="281" on="1"/>
        <pt x="633" y="257" on="0"/>
        <pt x="643" y="203" on="0"/>
        <pt x="652" y="150" on="0"/>
        <pt x="661" y="101" on="0"/>
        <pt x="664" y="82" on="1"/>
        <pt x="680" y="124" on="0"/>
        <pt x="727" y="239" on="0"/>
        <pt x="754" y="305" on="1"/>
        <pt x="897" y="653" on="1"/>
        <pt x="900" y="660" on="0"/>
        <pt x="906" y="663" on="0"/>
        <pt x="913" y="663" on="1"/>
        <pt x="980" y="663" on="1"/>
        <pt x="701" y="0" on="1"/>
        <pt x="618" y="0" on="1"/>
        <pt x="610" y="0" on="0"/>
        <pt x="606" y="4" on="0"/>
        <pt x="604" y="10" on="1"/>
        <pt x="549" y="304" on="1"/>
        <pt x="543" y="339" on="0"/>
        <pt x="530" y="411" on="0"/>
        <pt x="520" y="477" on="0"/>
        <pt x="511" y="535" on="0"/>
        <pt x="509" y="555" on="1"/>
        <pt x="503" y="535" on="0"/>
        <pt x="483" y="479" on="0"/>
        <pt x="459" y="415" on="0"/>
        <pt x="433" y="347" on="0"/>
        <pt x="421" y="316" on="1"/>
        <pt x="297" y="0" on="1"/>
        <pt x="217" y="0" on="1"/>
        <pt x="205" y="0" on="0"/>
        <pt x="203" y="10" on="1"/>
        <pt x="77" y="663" on="1"/>
        <pt x="143" y="663" on="1"/>
        <pt x="155" y="663" on="0"/>
        <pt x="156" y="653" on="1"/>
        <pt x="225" y="281" on="1"/>
        <pt x="236" y="226" on="0"/>
        <pt x="254" y="119" on="0"/>
        <pt x="259" y="86" on="1"/>
        <pt x="263" y="101" on="0"/>
        <pt x="280" y="148" on="0"/>
        <pt x="300" y="202" on="0"/>
        <pt x="322" y="259" on="0"/>
        <pt x="332" y="283" on="1"/>
        <pt x="482" y="663" on="1"/>
      </contour>
    </TTGlyph>
    <TTGlyph name="Wacute" xMin="77" yMin="0" xMax="980" yMax="904">
      <component glyphName="W" x="0" y="0" flags="0x204"/>
      <component glyphName="acute.cap" x="285" y="0" flags="0x4"/>
    </TTGlyph>
    <TTGlyph name="Wcircumflex" xMin="77" yMin="0" xMax="980" yMax="882">
      <component glyphName="W" x="0" y="0" flags="0x204"/>
      <component glyphName="circumflex.cap" x="282" y="0" flags="0x4"/>
    </TTGlyph>
    <TTGlyph name="Wdieresis" xMin="77" yMin="0" xMax="980" yMax="840">
      <component glyphName="W" x="0" y="0" flags="0x204"/>
      <component glyphName="dieresis.cap" x="282" y="0" flags="0x4"/>
    </TTGlyph>
    <TTGlyph name="Wgrave" xMin="77" yMin="0" xMax="980" yMax="902">
      <component glyphName="W" x="0" y="0" flags="0x204"/>
      <component glyphName="grave.cap" x="288" y="0" flags="0x4"/>
    </TTGlyph>
    <TTGlyph name="X" xMin="-10" yMin="0" xMax="606" yMax="663">
      <contour>
        <pt x="-10" y="0" on="1"/>
        <pt x="267" y="350" on="1"/>
        <pt x="76" y="663" on="1"/>
        <pt x="148" y="663" on="1"/>
        <pt x="156" y="663" on="0"/>
        <pt x="162" y="659" on="0"/>
        <pt x="166" y="653" on="1"/>
        <pt x="318" y="403" on="1"/>
        <pt x="514" y="654" on="1"/>
        <pt x="519" y="659" on="0"/>
        <pt x="526" y="663" on="0"/>
        <pt x="534" y="663" on="1"/>
        <pt x="606" y="663" on="1"/>
        <pt x="355" y="345" on="1"/>
        <pt x="570" y="0" on="1"/>
        <pt x="500" y="0" on="1"/>
        <pt x="486" y="0" on="0"/>
        <pt x="480" y="9" on="1"/>
        <pt x="305" y="293" on="1"/>
        <pt x="83" y="9" on="1"/>
        <pt x="79" y="4" on="0"/>
        <pt x="71" y="0" on="0"/>
        <pt x="63" y="0" on="1"/>
      </contour>
    </TTGlyph>
    <TTGlyph name="Y" xMin="60" yMin="0" xMax="632" yMax="663">
      <contour>
        <pt x="632" y="663" on="1"/>
        <pt x="335" y="222" on="1"/>
        <pt x="309" y="0" on="1"/>
        <pt x="231" y="0" on="1"/>
        <pt x="257" y="221" on="1"/>
        <pt x="60" y="663" on="1"/>
        <pt x="131" y="663" on="1"/>
        <pt x="139" y="663" on="0"/>
        <pt x="144" y="660" on="0"/>
        <pt x="147" y="653" on="1"/>
        <pt x="225" y="473" on="1"/>
        <pt x="236" y="447" on="0"/>
        <pt x="259" y="392" on="0"/>
        <pt x="280" y="341" on="0"/>
        <pt x="297" y="298" on="0"/>
        <pt x="302" y="283" on="1"/>
        <pt x="303" y="283" on="1"/>
        <pt x="312" y="300" on="0"/>
        <pt x="340" y="345" on="0"/>
        <pt x="372" y="396" on="0"/>
        <pt x="407" y="449" on="0"/>
        <pt x="424" y="474" on="1"/>
        <pt x="544" y="653" on="1"/>
        <pt x="549" y="659" on="0"/>
        <pt x="556" y="663" on="0"/>
        <pt x="564" y="663" on="1"/>
      </contour>
    </TTGlyph>
    <TTGlyph name="Yacute" xMin="60" yMin="0" xMax="632" yMax="904">
      <component glyphName="Y" x="0" y="0" flags="0x204"/>
      <component glyphName="acute.cap" x="126" y="0" flags="0x4"/>
    </TTGlyph>
    <TTGlyph name="Ycircumflex" xMin="60" yMin="0" xMax="632" yMax="882">
      <component glyphName="Y" x="0" y="0" flags="0x204"/>
      <component glyphName="circumflex.cap" x="104" y="0" flags="0x4"/>
    </TTGlyph>
    <TTGlyph name="Ydieresis" xMin="60" yMin="0" xMax="632" yMax="840">
      <component glyphName="Y" x="0" y="0" flags="0x204"/>
      <component glyphName="dieresis.cap" x="107" y="0" flags="0x4"/>
    </TTGlyph>
    <TTGlyph name="Ygrave" xMin="60" yMin="0" xMax="632" yMax="902">
      <component glyphName="Y" x="0" y="0" flags="0x204"/>
      <component glyphName="grave.cap" x="65" y="0" flags="0x4"/>
    </TTGlyph>
    <TTGlyph name="Z" xMin="16" yMin="0" xMax="545" yMax="663">
      <contour>
        <pt x="242" y="225" on="1"/>
        <pt x="207" y="180" on="0"/>
        <pt x="140" y="95" on="0"/>
        <pt x="114" y="65" on="1"/>
        <pt x="483" y="65" on="1"/>
        <pt x="475" y="0" on="1"/>
        <pt x="16" y="0" on="1"/>
        <pt x="21" y="39" on="1"/>
        <pt x="23" y="49" on="0"/>
        <pt x="27" y="58" on="0"/>
        <pt x="32" y="65" on="1"/>
        <pt x="319" y="438" on="1"/>
        <pt x="354" y="484" on="0"/>
        <pt x="420" y="567" on="0"/>
        <pt x="446" y="598" on="1"/>
        <pt x="79" y="598" on="1"/>
        <pt x="87" y="663" on="1"/>
        <pt x="545" y="663" on="1"/>
        <pt x="540" y="624" on="1"/>
        <pt x="538" y="614" on="0"/>
        <pt x="534" y="605" on="0"/>
        <pt x="529" y="598" on="1"/>
      </contour>
    </TTGlyph>
    <TTGlyph name="Zacute" xMin="16" yMin="0" xMax="545" yMax="904">
      <component glyphName="Z" x="0" y="0" flags="0x204"/>
      <component glyphName="acute.cap" x="85" y="0" flags="0x4"/>
    </TTGlyph>
    <TTGlyph name="Zcaron" xMin="16" yMin="0" xMax="545" yMax="892">
      <component glyphName="Z" x="0" y="0" flags="0x204"/>
      <component glyphName="caron.cap" x="63" y="0" flags="0x4"/>
    </TTGlyph>
    <TTGlyph name="Zdotaccent" xMin="16" yMin="0" xMax="545" yMax="829">
      <component glyphName="Z" x="0" y="0" flags="0x204"/>
      <component glyphName="dotaccent.cap" x="71" y="0" flags="0x4"/>
    </TTGlyph>
    <TTGlyph name="a" xMin="34" yMin="-8" xMax="505" yMax="496">
      <contour>
        <pt x="505" y="48" on="1"/>
        <pt x="501" y="14" on="1"/>
        <pt x="486" y="7" on="0"/>
        <pt x="446" y="-2" on="0"/>
        <pt x="429" y="-2" on="1"/>
        <pt x="404" y="-2" on="0"/>
        <pt x="367" y="25" on="0"/>
        <pt x="362" y="48" on="1"/>
        <pt x="341" y="35" on="1"/>
        <pt x="308" y="15" on="0"/>
        <pt x="243" y="-8" on="0"/>
        <pt x="211" y="-8" on="1"/>
        <pt x="172" y="-8" on="0"/>
        <pt x="106" y="25" on="0"/>
        <pt x="60" y="82" on="0"/>
        <pt x="34" y="160" on="0"/>
        <pt x="34" y="206" on="1"/>
        <pt x="34" y="268" on="0"/>
        <pt x="74" y="374" on="0"/>
        <pt x="141" y="452" on="0"/>
        <pt x="228" y="496" on="0"/>
        <pt x="274" y="496" on="1"/>
        <pt x="306" y="496" on="0"/>
        <pt x="359" y="475" on="0"/>
        <pt x="388" y="456" on="1"/>
        <pt x="413" y="440" on="1"/>
        <pt x="433" y="488" on="1"/>
        <pt x="484" y="483" on="1"/>
        <pt x="435" y="64" on="1"/>
      </contour>
      <contour>
        <pt x="350" y="98" on="1"/>
        <pt x="358" y="103" on="0"/>
        <pt x="364" y="113" on="0"/>
        <pt x="365" y="121" on="1"/>
        <pt x="396" y="373" on="1"/>
        <pt x="397" y="381" on="0"/>
        <pt x="393" y="389" on="0"/>
        <pt x="385" y="394" on="1"/>
        <pt x="332" y="427" on="0"/>
        <pt x="276" y="427" on="1"/>
        <pt x="240" y="427" on="0"/>
        <pt x="180" y="396" on="0"/>
        <pt x="135" y="339" on="0"/>
        <pt x="110" y="258" on="0"/>
        <pt x="110" y="207" on="1"/>
        <pt x="110" y="140" on="0"/>
        <pt x="165" y="59" on="0"/>
        <pt x="225" y="59" on="1"/>
        <pt x="256" y="59" on="0"/>
        <pt x="325" y="82" on="0"/>
      </contour>
    </TTGlyph>
    <TTGlyph name="aacute" xMin="34" yMin="-8" xMax="505" yMax="719">
      <component glyphName="a" x="0" y="0" flags="0x204"/>
      <component glyphName="acute" x="85" y="0" flags="0x4"/>
    </TTGlyph>
    <TTGlyph name="abreve" xMin="34" yMin="-8" xMax="505" yMax="693">
      <component glyphName="a" x="0" y="0" flags="0x204"/>
      <component glyphName="breve" x="70" y="0" flags="0x4"/>
    </TTGlyph>
    <TTGlyph name="acaron" xMin="34" yMin="-8" xMax="505" yMax="712">
      <component glyphName="a" x="0" y="0" flags="0x204"/>
      <component glyphName="caron" x="63" y="0" flags="0x4"/>
    </TTGlyph>
    <TTGlyph name="acircumflex" xMin="34" yMin="-8" xMax="505" yMax="709">
      <component glyphName="a" x="0" y="0" flags="0x204"/>
      <component glyphName="circumflex" x="66" y="0" flags="0x4"/>
    </TTGlyph>
    <TTGlyph name="acute" xMin="109" yMin="538" xMax="351" yMax="719">
      <contour>
        <pt x="130" y="538" on="1"/>
        <pt x="109" y="573" on="1"/>
        <pt x="305" y="712" on="1"/>
        <pt x="315" y="719" on="0"/>
        <pt x="320" y="710" on="1"/>
        <pt x="351" y="656" on="1"/>
      </contour>
    </TTGlyph>
    <TTGlyph name="acute.cap" xMin="135" yMin="723" xMax="377" yMax="904">
      <contour>
        <pt x="156" y="723" on="1"/>
        <pt x="135" y="758" on="1"/>
        <pt x="331" y="897" on="1"/>
        <pt x="341" y="904" on="0"/>
        <pt x="346" y="895" on="1"/>
        <pt x="377" y="841" on="1"/>
      </contour>
    </TTGlyph>
    <TTGlyph name="adieresis" xMin="34" yMin="-8" xMax="505" yMax="660">
      <component glyphName="a" x="0" y="0" flags="0x204"/>
      <component glyphName="dieresis" x="65" y="0" flags="0x4"/>
    </TTGlyph>
    <TTGlyph name="ae" xMin="31" yMin="-8" xMax="809" yMax="496">
      <contour>
        <pt x="614" y="496" on="1"/>
        <pt x="658" y="496" on="0"/>
        <pt x="730" y="463" on="0"/>
        <pt x="781" y="407" on="0"/>
        <pt x="809" y="330" on="0"/>
        <pt x="809" y="287" on="1"/>
        <pt x="809" y="251" on="0"/>
        <pt x="792" y="226" on="0"/>
        <pt x="775" y="226" on="1"/>
        <pt x="441" y="226" on="1"/>
        <pt x="441" y="189" on="0"/>
        <pt x="458" y="128" on="0"/>
        <pt x="493" y="84" on="0"/>
        <pt x="548" y="59" on="0"/>
        <pt x="587" y="59" on="1"/>
        <pt x="610" y="59" on="0"/>
        <pt x="664" y="70" on="0"/>
        <pt x="700" y="82" on="1"/>
        <pt x="763" y="103" on="1"/>
        <pt x="783" y="63" on="1"/>
        <pt x="763" y="48" on="0"/>
        <pt x="713" y="23" on="0"/>
        <pt x="659" y="3" on="0"/>
        <pt x="603" y="-8" on="0"/>
        <pt x="578" y="-8" on="1"/>
        <pt x="522" y="-8" on="0"/>
        <pt x="437" y="34" on="0"/>
        <pt x="408" y="71" on="1"/>
        <pt x="378" y="53" on="0"/>
        <pt x="327" y="24" on="0"/>
        <pt x="279" y="3" on="0"/>
        <pt x="230" y="-8" on="0"/>
        <pt x="201" y="-8" on="1"/>
        <pt x="165" y="-8" on="0"/>
        <pt x="103" y="13" on="0"/>
        <pt x="57" y="52" on="0"/>
        <pt x="31" y="108" on="0"/>
        <pt x="31" y="143" on="1"/>
        <pt x="31" y="218" on="0"/>
        <pt x="139" y="285" on="0"/>
        <pt x="233" y="285" on="1"/>
        <pt x="256" y="285" on="0"/>
        <pt x="335" y="281" on="0"/>
        <pt x="370" y="277" on="1"/>
        <pt x="374" y="297" on="0"/>
        <pt x="380" y="329" on="0"/>
        <pt x="380" y="340" on="1"/>
        <pt x="380" y="388" on="0"/>
        <pt x="323" y="427" on="0"/>
        <pt x="277" y="427" on="1"/>
        <pt x="244" y="427" on="0"/>
        <pt x="189" y="416" on="0"/>
        <pt x="162" y="408" on="1"/>
        <pt x="108" y="392" on="1"/>
        <pt x="91" y="434" on="1"/>
        <pt x="145" y="465" on="0"/>
        <pt x="239" y="496" on="0"/>
        <pt x="286" y="496" on="1"/>
        <pt x="336" y="496" on="0"/>
        <pt x="421" y="453" on="0"/>
        <pt x="435" y="410" on="1"/>
        <pt x="465" y="445" on="0"/>
        <pt x="557" y="496" on="0"/>
      </contour>
      <contour>
        <pt x="383" y="114" on="1"/>
        <pt x="373" y="137" on="0"/>
        <pt x="365" y="194" on="0"/>
        <pt x="365" y="226" on="1"/>
        <pt x="226" y="226" on="1"/>
        <pt x="202" y="226" on="0"/>
        <pt x="158" y="221" on="0"/>
        <pt x="124" y="205" on="0"/>
        <pt x="104" y="173" on="0"/>
        <pt x="104" y="146" on="1"/>
        <pt x="104" y="104" on="0"/>
        <pt x="162" y="58" on="0"/>
        <pt x="211" y="58" on="1"/>
        <pt x="228" y="58" on="0"/>
        <pt x="273" y="67" on="0"/>
        <pt x="321" y="82" on="0"/>
        <pt x="366" y="102" on="0"/>
      </contour>
      <contour>
        <pt x="737" y="284" on="1"/>
        <pt x="737" y="350" on="0"/>
        <pt x="671" y="428" on="0"/>
        <pt x="609" y="428" on="1"/>
        <pt x="545" y="428" on="0"/>
        <pt x="462" y="348" on="0"/>
        <pt x="449" y="284" on="1"/>
      </contour>
    </TTGlyph>
    <TTGlyph name="aeacute" xMin="31" yMin="-8" xMax="809" yMax="719">
      <component glyphName="ae" x="0" y="0" flags="0x204"/>
      <component glyphName="acute" x="282" y="0" flags="0x4"/>
    </TTGlyph>
    <TTGlyph name="agrave" xMin="34" yMin="-8" xMax="505" yMax="717">
      <component glyphName="a" x="0" y="0" flags="0x204"/>
      <component glyphName="grave" x="69" y="0" flags="0x4"/>
    </TTGlyph>
    <TTGlyph name="amacron" xMin="34" yMin="-8" xMax="505" yMax="642">
      <component glyphName="a" x="0" y="0" flags="0x204"/>
      <component glyphName="macron" x="70" y="0" flags="0x4"/>
    </TTGlyph>
    <TTGlyph name="ampersand" xMin="35" yMin="-10" xMax="669" yMax="673">
      <contour>
        <pt x="510" y="533" on="1"/>
        <pt x="510" y="500" on="0"/>
        <pt x="487" y="445" on="0"/>
        <pt x="446" y="396" on="0"/>
        <pt x="389" y="348" on="0"/>
        <pt x="354" y="322" on="1"/>
        <pt x="479" y="168" on="1"/>
        <pt x="502" y="197" on="0"/>
        <pt x="551" y="271" on="0"/>
        <pt x="574" y="313" on="1"/>
        <pt x="622" y="400" on="1"/>
        <pt x="669" y="382" on="1"/>
        <pt x="642" y="317" on="0"/>
        <pt x="565" y="176" on="0"/>
        <pt x="519" y="119" on="1"/>
        <pt x="568" y="61" on="1"/>
        <pt x="655" y="49" on="1"/>
        <pt x="652" y="15" on="1"/>
        <pt x="635" y="7" on="0"/>
        <pt x="594" y="-3" on="0"/>
        <pt x="578" y="-3" on="1"/>
        <pt x="551" y="-3" on="0"/>
        <pt x="516" y="17" on="0"/>
        <pt x="495" y="42" on="1"/>
        <pt x="470" y="71" on="1"/>
        <pt x="428" y="33" on="0"/>
        <pt x="321" y="-10" on="0"/>
        <pt x="266" y="-10" on="1"/>
        <pt x="218" y="-10" on="0"/>
        <pt x="134" y="20" on="0"/>
        <pt x="71" y="74" on="0"/>
        <pt x="35" y="148" on="0"/>
        <pt x="35" y="191" on="1"/>
        <pt x="35" y="228" on="0"/>
        <pt x="62" y="289" on="0"/>
        <pt x="107" y="341" on="0"/>
        <pt x="168" y="385" on="0"/>
        <pt x="203" y="403" on="1"/>
        <pt x="189" y="425" on="0"/>
        <pt x="170" y="475" on="0"/>
        <pt x="170" y="501" on="1"/>
        <pt x="170" y="538" on="0"/>
        <pt x="199" y="601" on="0"/>
        <pt x="250" y="647" on="0"/>
        <pt x="316" y="673" on="0"/>
        <pt x="354" y="673" on="1"/>
        <pt x="386" y="673" on="0"/>
        <pt x="443" y="652" on="0"/>
        <pt x="485" y="615" on="0"/>
        <pt x="510" y="564" on="0"/>
      </contour>
      <contour>
        <pt x="230" y="364" on="1"/>
        <pt x="218" y="355" on="1"/>
        <pt x="167" y="317" on="0"/>
        <pt x="110" y="248" on="0"/>
        <pt x="110" y="197" on="1"/>
        <pt x="110" y="169" on="0"/>
        <pt x="132" y="119" on="0"/>
        <pt x="174" y="81" on="0"/>
        <pt x="235" y="58" on="0"/>
        <pt x="273" y="58" on="1"/>
        <pt x="316" y="58" on="0"/>
        <pt x="397" y="90" on="0"/>
        <pt x="430" y="119" on="1"/>
      </contour>
      <contour>
        <pt x="238" y="509" on="1"/>
        <pt x="238" y="480" on="0"/>
        <pt x="266" y="427" on="0"/>
        <pt x="295" y="392" on="1"/>
        <pt x="323" y="356" on="1"/>
        <pt x="374" y="407" on="1"/>
        <pt x="394" y="427" on="0"/>
        <pt x="422" y="459" on="0"/>
        <pt x="439" y="487" on="0"/>
        <pt x="447" y="513" on="0"/>
        <pt x="447" y="528" on="1"/>
        <pt x="447" y="565" on="0"/>
        <pt x="393" y="611" on="0"/>
        <pt x="351" y="611" on="1"/>
        <pt x="303" y="611" on="0"/>
        <pt x="238" y="555" on="0"/>
      </contour>
    </TTGlyph>
    <TTGlyph name="aogonek" xMin="34" yMin="-197" xMax="505" yMax="496">
      <contour>
        <pt x="505" y="48" on="1"/>
        <pt x="501" y="14" on="1"/>
        <pt x="474" y="4" on="0"/>
        <pt x="424" y="-21" on="0"/>
        <pt x="386" y="-50" on="0"/>
        <pt x="363" y="-85" on="0"/>
        <pt x="363" y="-104" on="1"/>
        <pt x="363" y="-141" on="0"/>
        <pt x="412" y="-141" on="1"/>
        <pt x="424" y="-141" on="0"/>
        <pt x="461" y="-136" on="0"/>
        <pt x="474" y="-133" on="1"/>
        <pt x="481" y="-172" on="1"/>
        <pt x="464" y="-183" on="0"/>
        <pt x="416" y="-197" on="0"/>
        <pt x="393" y="-197" on="1"/>
        <pt x="349" y="-197" on="0"/>
        <pt x="297" y="-148" on="0"/>
        <pt x="297" y="-114" on="1"/>
        <pt x="297" y="-77" on="0"/>
        <pt x="352" y="-15" on="0"/>
        <pt x="397" y="5" on="1"/>
        <pt x="382" y="13" on="0"/>
        <pt x="365" y="35" on="0"/>
        <pt x="362" y="48" on="1"/>
        <pt x="341" y="35" on="1"/>
        <pt x="308" y="15" on="0"/>
        <pt x="243" y="-8" on="0"/>
        <pt x="211" y="-8" on="1"/>
        <pt x="172" y="-8" on="0"/>
        <pt x="106" y="25" on="0"/>
        <pt x="60" y="82" on="0"/>
        <pt x="34" y="160" on="0"/>
        <pt x="34" y="206" on="1"/>
        <pt x="34" y="268" on="0"/>
        <pt x="74" y="374" on="0"/>
        <pt x="141" y="452" on="0"/>
        <pt x="228" y="496" on="0"/>
        <pt x="274" y="496" on="1"/>
        <pt x="306" y="496" on="0"/>
        <pt x="359" y="475" on="0"/>
        <pt x="388" y="456" on="1"/>
        <pt x="413" y="440" on="1"/>
        <pt x="433" y="488" on="1"/>
        <pt x="484" y="483" on="1"/>
        <pt x="435" y="64" on="1"/>
      </contour>
      <contour>
        <pt x="350" y="98" on="1"/>
        <pt x="358" y="103" on="0"/>
        <pt x="364" y="113" on="0"/>
        <pt x="365" y="121" on="1"/>
        <pt x="396" y="373" on="1"/>
        <pt x="397" y="381" on="0"/>
        <pt x="393" y="389" on="0"/>
        <pt x="385" y="394" on="1"/>
        <pt x="332" y="427" on="0"/>
        <pt x="276" y="427" on="1"/>
        <pt x="240" y="427" on="0"/>
        <pt x="180" y="396" on="0"/>
        <pt x="135" y="339" on="0"/>
        <pt x="110" y="258" on="0"/>
        <pt x="110" y="207" on="1"/>
        <pt x="110" y="140" on="0"/>
        <pt x="165" y="59" on="0"/>
        <pt x="225" y="59" on="1"/>
        <pt x="256" y="59" on="0"/>
        <pt x="325" y="82" on="0"/>
      </contour>
    </TTGlyph>
    <TTGlyph name="apple" xMin="78" yMin="0" xMax="466" yMax="650">
      <contour>
        <pt x="208" y="357" on="1"/>
        <pt x="208" y="370" on="0"/>
        <pt x="227" y="388" on="0"/>
        <pt x="239" y="388" on="1"/>
        <pt x="252" y="388" on="0"/>
        <pt x="269" y="370" on="0"/>
        <pt x="269" y="357" on="1"/>
        <pt x="269" y="344" on="0"/>
        <pt x="252" y="327" on="0"/>
        <pt x="239" y="327" on="1"/>
        <pt x="227" y="327" on="0"/>
        <pt x="208" y="344" on="0"/>
      </contour>
      <contour>
        <pt x="405" y="357" on="1"/>
        <pt x="405" y="370" on="0"/>
        <pt x="424" y="388" on="0"/>
        <pt x="436" y="388" on="1"/>
        <pt x="449" y="388" on="0"/>
        <pt x="466" y="370" on="0"/>
        <pt x="466" y="357" on="1"/>
        <pt x="466" y="344" on="0"/>
        <pt x="449" y="327" on="0"/>
        <pt x="436" y="327" on="1"/>
        <pt x="424" y="327" on="0"/>
        <pt x="405" y="344" on="0"/>
      </contour>
      <contour>
        <pt x="78" y="161" on="1"/>
        <pt x="78" y="174" on="0"/>
        <pt x="95" y="191" on="0"/>
        <pt x="108" y="191" on="1"/>
        <pt x="120" y="191" on="0"/>
        <pt x="139" y="174" on="0"/>
        <pt x="139" y="161" on="1"/>
        <pt x="139" y="148" on="0"/>
        <pt x="120" y="130" on="0"/>
        <pt x="108" y="130" on="1"/>
        <pt x="95" y="130" on="0"/>
        <pt x="78" y="148" on="0"/>
      </contour>
      <contour>
        <pt x="78" y="357" on="1"/>
        <pt x="78" y="370" on="0"/>
        <pt x="95" y="388" on="0"/>
        <pt x="108" y="388" on="1"/>
        <pt x="120" y="388" on="0"/>
        <pt x="139" y="370" on="0"/>
        <pt x="139" y="357" on="1"/>
        <pt x="139" y="344" on="0"/>
        <pt x="120" y="327" on="0"/>
        <pt x="108" y="327" on="1"/>
        <pt x="95" y="327" on="0"/>
        <pt x="78" y="344" on="0"/>
      </contour>
      <contour>
        <pt x="275" y="357" on="1"/>
        <pt x="275" y="370" on="0"/>
        <pt x="292" y="388" on="0"/>
        <pt x="305" y="388" on="1"/>
        <pt x="317" y="388" on="0"/>
        <pt x="336" y="370" on="0"/>
        <pt x="336" y="357" on="1"/>
        <pt x="336" y="344" on="0"/>
        <pt x="317" y="327" on="0"/>
        <pt x="305" y="327" on="1"/>
        <pt x="292" y="327" on="0"/>
        <pt x="275" y="344" on="0"/>
      </contour>
      <contour>
        <pt x="340" y="620" on="1"/>
        <pt x="340" y="632" on="0"/>
        <pt x="357" y="650" on="0"/>
        <pt x="371" y="650" on="1"/>
        <pt x="382" y="650" on="0"/>
        <pt x="401" y="632" on="0"/>
        <pt x="401" y="620" on="1"/>
        <pt x="401" y="606" on="0"/>
        <pt x="382" y="589" on="0"/>
        <pt x="371" y="589" on="1"/>
        <pt x="357" y="589" on="0"/>
        <pt x="340" y="606" on="0"/>
      </contour>
      <contour>
        <pt x="78" y="620" on="1"/>
        <pt x="78" y="632" on="0"/>
        <pt x="95" y="650" on="0"/>
        <pt x="108" y="650" on="1"/>
        <pt x="120" y="650" on="0"/>
        <pt x="139" y="632" on="0"/>
        <pt x="139" y="620" on="1"/>
        <pt x="139" y="606" on="0"/>
        <pt x="120" y="589" on="0"/>
        <pt x="108" y="589" on="1"/>
        <pt x="95" y="589" on="0"/>
        <pt x="78" y="606" on="0"/>
      </contour>
      <contour>
        <pt x="275" y="620" on="1"/>
        <pt x="275" y="632" on="0"/>
        <pt x="292" y="650" on="0"/>
        <pt x="305" y="650" on="1"/>
        <pt x="317" y="650" on="0"/>
        <pt x="336" y="632" on="0"/>
        <pt x="336" y="620" on="1"/>
        <pt x="336" y="606" on="0"/>
        <pt x="317" y="589" on="0"/>
        <pt x="305" y="589" on="1"/>
        <pt x="292" y="589" on="0"/>
        <pt x="275" y="606" on="0"/>
      </contour>
      <contour>
        <pt x="405" y="620" on="1"/>
        <pt x="405" y="632" on="0"/>
        <pt x="424" y="650" on="0"/>
        <pt x="436" y="650" on="1"/>
        <pt x="449" y="650" on="0"/>
        <pt x="466" y="632" on="0"/>
        <pt x="466" y="620" on="1"/>
        <pt x="466" y="606" on="0"/>
        <pt x="449" y="589" on="0"/>
        <pt x="436" y="589" on="1"/>
        <pt x="424" y="589" on="0"/>
        <pt x="405" y="606" on="0"/>
      </contour>
      <contour>
        <pt x="208" y="620" on="1"/>
        <pt x="208" y="632" on="0"/>
        <pt x="227" y="650" on="0"/>
        <pt x="239" y="650" on="1"/>
        <pt x="252" y="650" on="0"/>
        <pt x="269" y="632" on="0"/>
        <pt x="269" y="620" on="1"/>
        <pt x="269" y="606" on="0"/>
        <pt x="252" y="589" on="0"/>
        <pt x="239" y="589" on="1"/>
        <pt x="227" y="589" on="0"/>
        <pt x="208" y="606" on="0"/>
      </contour>
      <contour>
        <pt x="340" y="357" on="1"/>
        <pt x="340" y="370" on="0"/>
        <pt x="357" y="388" on="0"/>
        <pt x="371" y="388" on="1"/>
        <pt x="382" y="388" on="0"/>
        <pt x="401" y="370" on="0"/>
        <pt x="401" y="357" on="1"/>
        <pt x="401" y="344" on="0"/>
        <pt x="382" y="327" on="0"/>
        <pt x="371" y="327" on="1"/>
        <pt x="357" y="327" on="0"/>
        <pt x="340" y="344" on="0"/>
      </contour>
      <contour>
        <pt x="208" y="30" on="1"/>
        <pt x="208" y="42" on="0"/>
        <pt x="227" y="61" on="0"/>
        <pt x="239" y="61" on="1"/>
        <pt x="252" y="61" on="0"/>
        <pt x="269" y="42" on="0"/>
        <pt x="269" y="30" on="1"/>
        <pt x="269" y="17" on="0"/>
        <pt x="252" y="0" on="0"/>
        <pt x="239" y="0" on="1"/>
        <pt x="227" y="0" on="0"/>
        <pt x="208" y="17" on="0"/>
      </contour>
      <contour>
        <pt x="78" y="30" on="1"/>
        <pt x="78" y="42" on="0"/>
        <pt x="95" y="61" on="0"/>
        <pt x="108" y="61" on="1"/>
        <pt x="120" y="61" on="0"/>
        <pt x="139" y="42" on="0"/>
        <pt x="139" y="30" on="1"/>
        <pt x="139" y="17" on="0"/>
        <pt x="120" y="0" on="0"/>
        <pt x="108" y="0" on="1"/>
        <pt x="95" y="0" on="0"/>
        <pt x="78" y="17" on="0"/>
      </contour>
      <contour>
        <pt x="208" y="95" on="1"/>
        <pt x="208" y="109" on="0"/>
        <pt x="227" y="125" on="0"/>
        <pt x="239" y="125" on="1"/>
        <pt x="252" y="125" on="0"/>
        <pt x="269" y="109" on="0"/>
        <pt x="269" y="95" on="1"/>
        <pt x="269" y="82" on="0"/>
        <pt x="252" y="65" on="0"/>
        <pt x="239" y="65" on="1"/>
        <pt x="227" y="65" on="0"/>
        <pt x="208" y="82" on="0"/>
      </contour>
      <contour>
        <pt x="78" y="95" on="1"/>
        <pt x="78" y="109" on="0"/>
        <pt x="95" y="125" on="0"/>
        <pt x="108" y="125" on="1"/>
        <pt x="120" y="125" on="0"/>
        <pt x="139" y="109" on="0"/>
        <pt x="139" y="95" on="1"/>
        <pt x="139" y="82" on="0"/>
        <pt x="120" y="65" on="0"/>
        <pt x="108" y="65" on="1"/>
        <pt x="95" y="65" on="0"/>
        <pt x="78" y="82" on="0"/>
      </contour>
      <contour>
        <pt x="144" y="620" on="1"/>
        <pt x="144" y="632" on="0"/>
        <pt x="162" y="650" on="0"/>
        <pt x="174" y="650" on="1"/>
        <pt x="187" y="650" on="0"/>
        <pt x="204" y="632" on="0"/>
        <pt x="204" y="620" on="1"/>
        <pt x="204" y="606" on="0"/>
        <pt x="187" y="589" on="0"/>
        <pt x="174" y="589" on="1"/>
        <pt x="162" y="589" on="0"/>
        <pt x="144" y="606" on="0"/>
      </contour>
      <contour>
        <pt x="78" y="489" on="1"/>
        <pt x="78" y="501" on="0"/>
        <pt x="95" y="518" on="0"/>
        <pt x="108" y="518" on="1"/>
        <pt x="120" y="518" on="0"/>
        <pt x="139" y="501" on="0"/>
        <pt x="139" y="489" on="1"/>
        <pt x="139" y="476" on="0"/>
        <pt x="120" y="458" on="0"/>
        <pt x="108" y="458" on="1"/>
        <pt x="95" y="458" on="0"/>
        <pt x="78" y="476" on="0"/>
      </contour>
      <contour>
        <pt x="275" y="489" on="1"/>
        <pt x="275" y="501" on="0"/>
        <pt x="292" y="518" on="0"/>
        <pt x="305" y="518" on="1"/>
        <pt x="317" y="518" on="0"/>
        <pt x="336" y="501" on="0"/>
        <pt x="336" y="489" on="1"/>
        <pt x="336" y="476" on="0"/>
        <pt x="317" y="458" on="0"/>
        <pt x="305" y="458" on="1"/>
        <pt x="292" y="458" on="0"/>
        <pt x="275" y="476" on="0"/>
      </contour>
      <contour>
        <pt x="208" y="489" on="1"/>
        <pt x="208" y="501" on="0"/>
        <pt x="227" y="518" on="0"/>
        <pt x="239" y="518" on="1"/>
        <pt x="252" y="518" on="0"/>
        <pt x="269" y="501" on="0"/>
        <pt x="269" y="489" on="1"/>
        <pt x="269" y="476" on="0"/>
        <pt x="252" y="458" on="0"/>
        <pt x="239" y="458" on="1"/>
        <pt x="227" y="458" on="0"/>
        <pt x="208" y="476" on="0"/>
      </contour>
      <contour>
        <pt x="405" y="489" on="1"/>
        <pt x="405" y="501" on="0"/>
        <pt x="424" y="518" on="0"/>
        <pt x="436" y="518" on="1"/>
        <pt x="449" y="518" on="0"/>
        <pt x="466" y="501" on="0"/>
        <pt x="466" y="489" on="1"/>
        <pt x="466" y="476" on="0"/>
        <pt x="449" y="458" on="0"/>
        <pt x="436" y="458" on="1"/>
        <pt x="424" y="458" on="0"/>
        <pt x="405" y="476" on="0"/>
      </contour>
      <contour>
        <pt x="340" y="489" on="1"/>
        <pt x="340" y="501" on="0"/>
        <pt x="357" y="518" on="0"/>
        <pt x="371" y="518" on="1"/>
        <pt x="382" y="518" on="0"/>
        <pt x="401" y="501" on="0"/>
        <pt x="401" y="489" on="1"/>
        <pt x="401" y="476" on="0"/>
        <pt x="382" y="458" on="0"/>
        <pt x="371" y="458" on="1"/>
        <pt x="357" y="458" on="0"/>
        <pt x="340" y="476" on="0"/>
      </contour>
      <contour>
        <pt x="144" y="30" on="1"/>
        <pt x="144" y="42" on="0"/>
        <pt x="162" y="61" on="0"/>
        <pt x="174" y="61" on="1"/>
        <pt x="187" y="61" on="0"/>
        <pt x="204" y="42" on="0"/>
        <pt x="204" y="30" on="1"/>
        <pt x="204" y="17" on="0"/>
        <pt x="187" y="0" on="0"/>
        <pt x="174" y="0" on="1"/>
        <pt x="162" y="0" on="0"/>
        <pt x="144" y="17" on="0"/>
      </contour>
      <contour>
        <pt x="78" y="292" on="1"/>
        <pt x="78" y="304" on="0"/>
        <pt x="95" y="322" on="0"/>
        <pt x="108" y="322" on="1"/>
        <pt x="120" y="322" on="0"/>
        <pt x="139" y="304" on="0"/>
        <pt x="139" y="292" on="1"/>
        <pt x="139" y="279" on="0"/>
        <pt x="120" y="262" on="0"/>
        <pt x="108" y="262" on="1"/>
        <pt x="95" y="262" on="0"/>
        <pt x="78" y="279" on="0"/>
      </contour>
      <contour>
        <pt x="78" y="554" on="1"/>
        <pt x="78" y="566" on="0"/>
        <pt x="95" y="584" on="0"/>
        <pt x="108" y="584" on="1"/>
        <pt x="120" y="584" on="0"/>
        <pt x="139" y="566" on="0"/>
        <pt x="139" y="554" on="1"/>
        <pt x="139" y="541" on="0"/>
        <pt x="120" y="524" on="0"/>
        <pt x="108" y="524" on="1"/>
        <pt x="95" y="524" on="0"/>
        <pt x="78" y="541" on="0"/>
      </contour>
      <contour>
        <pt x="405" y="292" on="1"/>
        <pt x="405" y="304" on="0"/>
        <pt x="424" y="322" on="0"/>
        <pt x="436" y="322" on="1"/>
        <pt x="449" y="322" on="0"/>
        <pt x="466" y="304" on="0"/>
        <pt x="466" y="292" on="1"/>
        <pt x="466" y="279" on="0"/>
        <pt x="449" y="262" on="0"/>
        <pt x="436" y="262" on="1"/>
        <pt x="424" y="262" on="0"/>
        <pt x="405" y="279" on="0"/>
      </contour>
      <contour>
        <pt x="78" y="423" on="1"/>
        <pt x="78" y="436" on="0"/>
        <pt x="95" y="453" on="0"/>
        <pt x="108" y="453" on="1"/>
        <pt x="120" y="453" on="0"/>
        <pt x="139" y="436" on="0"/>
        <pt x="139" y="423" on="1"/>
        <pt x="139" y="410" on="0"/>
        <pt x="120" y="394" on="0"/>
        <pt x="108" y="394" on="1"/>
        <pt x="95" y="394" on="0"/>
        <pt x="78" y="410" on="0"/>
      </contour>
      <contour>
        <pt x="208" y="423" on="1"/>
        <pt x="208" y="436" on="0"/>
        <pt x="227" y="453" on="0"/>
        <pt x="239" y="453" on="1"/>
        <pt x="252" y="453" on="0"/>
        <pt x="269" y="436" on="0"/>
        <pt x="269" y="423" on="1"/>
        <pt x="269" y="410" on="0"/>
        <pt x="252" y="394" on="0"/>
        <pt x="239" y="394" on="1"/>
        <pt x="227" y="394" on="0"/>
        <pt x="208" y="410" on="0"/>
      </contour>
      <contour>
        <pt x="208" y="227" on="1"/>
        <pt x="208" y="239" on="0"/>
        <pt x="227" y="256" on="0"/>
        <pt x="239" y="256" on="1"/>
        <pt x="252" y="256" on="0"/>
        <pt x="269" y="239" on="0"/>
        <pt x="269" y="227" on="1"/>
        <pt x="269" y="214" on="0"/>
        <pt x="252" y="197" on="0"/>
        <pt x="239" y="197" on="1"/>
        <pt x="227" y="197" on="0"/>
        <pt x="208" y="214" on="0"/>
      </contour>
      <contour>
        <pt x="405" y="227" on="1"/>
        <pt x="405" y="239" on="0"/>
        <pt x="424" y="256" on="0"/>
        <pt x="436" y="256" on="1"/>
        <pt x="449" y="256" on="0"/>
        <pt x="466" y="239" on="0"/>
        <pt x="466" y="227" on="1"/>
        <pt x="466" y="214" on="0"/>
        <pt x="449" y="197" on="0"/>
        <pt x="436" y="197" on="1"/>
        <pt x="424" y="197" on="0"/>
        <pt x="405" y="214" on="0"/>
      </contour>
      <contour>
        <pt x="78" y="227" on="1"/>
        <pt x="78" y="239" on="0"/>
        <pt x="95" y="256" on="0"/>
        <pt x="108" y="256" on="1"/>
        <pt x="120" y="256" on="0"/>
        <pt x="139" y="239" on="0"/>
        <pt x="139" y="227" on="1"/>
        <pt x="139" y="214" on="0"/>
        <pt x="120" y="197" on="0"/>
        <pt x="108" y="197" on="1"/>
        <pt x="95" y="197" on="0"/>
        <pt x="78" y="214" on="0"/>
      </contour>
      <contour>
        <pt x="275" y="227" on="1"/>
        <pt x="275" y="239" on="0"/>
        <pt x="292" y="256" on="0"/>
        <pt x="305" y="256" on="1"/>
        <pt x="317" y="256" on="0"/>
        <pt x="336" y="239" on="0"/>
        <pt x="336" y="227" on="1"/>
        <pt x="336" y="214" on="0"/>
        <pt x="317" y="197" on="0"/>
        <pt x="305" y="197" on="1"/>
        <pt x="292" y="197" on="0"/>
        <pt x="275" y="214" on="0"/>
      </contour>
      <contour>
        <pt x="340" y="227" on="1"/>
        <pt x="340" y="239" on="0"/>
        <pt x="357" y="256" on="0"/>
        <pt x="371" y="256" on="1"/>
        <pt x="382" y="256" on="0"/>
        <pt x="401" y="239" on="0"/>
        <pt x="401" y="227" on="1"/>
        <pt x="401" y="214" on="0"/>
        <pt x="382" y="197" on="0"/>
        <pt x="371" y="197" on="1"/>
        <pt x="357" y="197" on="0"/>
        <pt x="340" y="214" on="0"/>
      </contour>
    </TTGlyph>
    <TTGlyph name="approxequal" xMin="49" yMin="99" xMax="461" yMax="392">
      <contour>
        <pt x="336" y="281" on="1"/>
        <pt x="315" y="281" on="0"/>
        <pt x="276" y="295" on="0"/>
        <pt x="240" y="312" on="0"/>
        <pt x="206" y="326" on="0"/>
        <pt x="188" y="326" on="1"/>
        <pt x="162" y="326" on="0"/>
        <pt x="128" y="301" on="0"/>
        <pt x="110" y="277" on="1"/>
        <pt x="70" y="292" on="1"/>
        <pt x="90" y="336" on="0"/>
        <pt x="157" y="388" on="0"/>
        <pt x="195" y="388" on="1"/>
        <pt x="216" y="388" on="0"/>
        <pt x="254" y="374" on="0"/>
        <pt x="290" y="357" on="0"/>
        <pt x="324" y="343" on="0"/>
        <pt x="342" y="343" on="1"/>
        <pt x="366" y="343" on="0"/>
        <pt x="402" y="367" on="0"/>
        <pt x="421" y="392" on="1"/>
        <pt x="461" y="376" on="1"/>
        <pt x="441" y="332" on="0"/>
        <pt x="374" y="281" on="0"/>
      </contour>
      <contour>
        <pt x="315" y="103" on="1"/>
        <pt x="294" y="103" on="0"/>
        <pt x="255" y="117" on="0"/>
        <pt x="219" y="134" on="0"/>
        <pt x="185" y="148" on="0"/>
        <pt x="167" y="148" on="1"/>
        <pt x="141" y="148" on="0"/>
        <pt x="107" y="123" on="0"/>
        <pt x="89" y="99" on="1"/>
        <pt x="49" y="114" on="1"/>
        <pt x="69" y="158" on="0"/>
        <pt x="136" y="210" on="0"/>
        <pt x="174" y="210" on="1"/>
        <pt x="195" y="210" on="0"/>
        <pt x="233" y="196" on="0"/>
        <pt x="269" y="179" on="0"/>
        <pt x="303" y="165" on="0"/>
        <pt x="321" y="165" on="1"/>
        <pt x="345" y="165" on="0"/>
        <pt x="381" y="189" on="0"/>
        <pt x="400" y="214" on="1"/>
        <pt x="440" y="198" on="1"/>
        <pt x="420" y="154" on="0"/>
        <pt x="353" y="103" on="0"/>
      </contour>
    </TTGlyph>
    <TTGlyph name="aring" xMin="34" yMin="-8" xMax="505" yMax="759">
      <component glyphName="a" x="0" y="0" flags="0x204"/>
      <component glyphName="ring" x="73" y="0" flags="0x4"/>
    </TTGlyph>
    <TTGlyph name="aringacute" xMin="34" yMin="-8" xMax="505" yMax="934">
      <component glyphName="a" x="0" y="0" flags="0x204"/>
      <component glyphName="ring" x="72" y="-13" flags="0x4"/>
      <component glyphName="acute" x="111" y="215" flags="0x4"/>
    </TTGlyph>
    <TTGlyph name="arrowdown" xMin="168" yMin="-78" xMax="608" yMax="565">
      <contour>
        <pt x="358" y="-71" on="1"/>
        <pt x="168" y="119" on="1"/>
        <pt x="202" y="153" on="1"/>
        <pt x="354" y="14" on="1"/>
        <pt x="354" y="565" on="1"/>
        <pt x="419" y="565" on="1"/>
        <pt x="419" y="13" on="1"/>
        <pt x="574" y="153" on="1"/>
        <pt x="608" y="120" on="1"/>
        <pt x="411" y="-78" on="1"/>
        <pt x="376" y="-78" on="1"/>
        <pt x="369" y="-78" on="0"/>
        <pt x="363" y="-76" on="0"/>
      </contour>
    </TTGlyph>
    <TTGlyph name="arrowdown.cap" xMin="168" yMin="8" xMax="608" yMax="651">
      <contour>
        <pt x="358" y="15" on="1"/>
        <pt x="168" y="205" on="1"/>
        <pt x="202" y="239" on="1"/>
        <pt x="354" y="100" on="1"/>
        <pt x="354" y="651" on="1"/>
        <pt x="419" y="651" on="1"/>
        <pt x="419" y="99" on="1"/>
        <pt x="574" y="239" on="1"/>
        <pt x="608" y="206" on="1"/>
        <pt x="411" y="8" on="1"/>
        <pt x="376" y="8" on="1"/>
        <pt x="369" y="8" on="0"/>
        <pt x="363" y="10" on="0"/>
      </contour>
    </TTGlyph>
    <TTGlyph name="arrowleft" xMin="66" yMin="24" xMax="709" yMax="464">
      <contour>
        <pt x="263" y="464" on="1"/>
        <pt x="297" y="430" on="1"/>
        <pt x="157" y="276" on="1"/>
        <pt x="709" y="276" on="1"/>
        <pt x="709" y="215" on="1"/>
        <pt x="156" y="215" on="1"/>
        <pt x="297" y="58" on="1"/>
        <pt x="263" y="24" on="1"/>
        <pt x="66" y="220" on="1"/>
        <pt x="66" y="256" on="1"/>
        <pt x="66" y="263" on="0"/>
        <pt x="67" y="269" on="0"/>
        <pt x="72" y="274" on="1"/>
      </contour>
    </TTGlyph>
    <TTGlyph name="arrowleft.cap" xMin="66" yMin="110" xMax="709" yMax="550">
      <contour>
        <pt x="263" y="550" on="1"/>
        <pt x="297" y="516" on="1"/>
        <pt x="157" y="362" on="1"/>
        <pt x="709" y="362" on="1"/>
        <pt x="709" y="301" on="1"/>
        <pt x="156" y="301" on="1"/>
        <pt x="297" y="144" on="1"/>
        <pt x="263" y="110" on="1"/>
        <pt x="66" y="306" on="1"/>
        <pt x="66" y="342" on="1"/>
        <pt x="66" y="349" on="0"/>
        <pt x="67" y="355" on="0"/>
        <pt x="72" y="360" on="1"/>
      </contour>
    </TTGlyph>
    <TTGlyph name="arrowright" xMin="66" yMin="27" xMax="709" yMax="467">
      <contour>
        <pt x="512" y="27" on="1"/>
        <pt x="478" y="61" on="1"/>
        <pt x="618" y="215" on="1"/>
        <pt x="66" y="215" on="1"/>
        <pt x="66" y="276" on="1"/>
        <pt x="619" y="276" on="1"/>
        <pt x="478" y="433" on="1"/>
        <pt x="512" y="467" on="1"/>
        <pt x="709" y="271" on="1"/>
        <pt x="709" y="235" on="1"/>
        <pt x="709" y="228" on="0"/>
        <pt x="708" y="222" on="0"/>
        <pt x="703" y="217" on="1"/>
      </contour>
    </TTGlyph>
    <TTGlyph name="arrowright.cap" xMin="66" yMin="113" xMax="709" yMax="553">
      <contour>
        <pt x="512" y="113" on="1"/>
        <pt x="478" y="147" on="1"/>
        <pt x="618" y="301" on="1"/>
        <pt x="66" y="301" on="1"/>
        <pt x="66" y="362" on="1"/>
        <pt x="619" y="362" on="1"/>
        <pt x="478" y="519" on="1"/>
        <pt x="512" y="553" on="1"/>
        <pt x="709" y="357" on="1"/>
        <pt x="709" y="321" on="1"/>
        <pt x="709" y="314" on="0"/>
        <pt x="708" y="308" on="0"/>
        <pt x="703" y="303" on="1"/>
      </contour>
    </TTGlyph>
    <TTGlyph name="arrowup" xMin="168" yMin="-78" xMax="608" yMax="565">
      <contour>
        <pt x="418" y="559" on="1"/>
        <pt x="608" y="368" on="1"/>
        <pt x="574" y="335" on="1"/>
        <pt x="422" y="474" on="1"/>
        <pt x="422" y="-78" on="1"/>
        <pt x="356" y="-78" on="1"/>
        <pt x="356" y="475" on="1"/>
        <pt x="202" y="335" on="1"/>
        <pt x="168" y="368" on="1"/>
        <pt x="365" y="565" on="1"/>
        <pt x="400" y="565" on="1"/>
        <pt x="407" y="565" on="0"/>
        <pt x="413" y="564" on="0"/>
      </contour>
    </TTGlyph>
    <TTGlyph name="arrowup.cap" xMin="168" yMin="8" xMax="608" yMax="651">
      <contour>
        <pt x="418" y="645" on="1"/>
        <pt x="608" y="454" on="1"/>
        <pt x="574" y="421" on="1"/>
        <pt x="422" y="560" on="1"/>
        <pt x="422" y="8" on="1"/>
        <pt x="356" y="8" on="1"/>
        <pt x="356" y="561" on="1"/>
        <pt x="202" y="421" on="1"/>
        <pt x="168" y="454" on="1"/>
        <pt x="365" y="651" on="1"/>
        <pt x="400" y="651" on="1"/>
        <pt x="407" y="651" on="0"/>
        <pt x="413" y="650" on="0"/>
      </contour>
    </TTGlyph>
    <TTGlyph name="asciicircum" xMin="95" yMin="421" xMax="463" yMax="673">
      <contour>
        <pt x="463" y="454" on="1"/>
        <pt x="407" y="421" on="1"/>
        <pt x="296" y="605" on="1"/>
        <pt x="140" y="421" on="1"/>
        <pt x="95" y="458" on="1"/>
        <pt x="274" y="673" on="1"/>
        <pt x="332" y="673" on="1"/>
      </contour>
    </TTGlyph>
    <TTGlyph name="asciitilde" xMin="82" yMin="293" xMax="473" yMax="408">
      <contour>
        <pt x="348" y="297" on="1"/>
        <pt x="327" y="297" on="0"/>
        <pt x="288" y="311" on="0"/>
        <pt x="252" y="328" on="0"/>
        <pt x="218" y="342" on="0"/>
        <pt x="200" y="342" on="1"/>
        <pt x="174" y="342" on="0"/>
        <pt x="140" y="317" on="0"/>
        <pt x="122" y="293" on="1"/>
        <pt x="82" y="308" on="1"/>
        <pt x="102" y="352" on="0"/>
        <pt x="169" y="404" on="0"/>
        <pt x="207" y="404" on="1"/>
        <pt x="228" y="404" on="0"/>
        <pt x="266" y="390" on="0"/>
        <pt x="302" y="373" on="0"/>
        <pt x="336" y="359" on="0"/>
        <pt x="354" y="359" on="1"/>
        <pt x="378" y="359" on="0"/>
        <pt x="414" y="383" on="0"/>
        <pt x="433" y="408" on="1"/>
        <pt x="473" y="392" on="1"/>
        <pt x="453" y="348" on="0"/>
        <pt x="386" y="297" on="0"/>
      </contour>
    </TTGlyph>
    <TTGlyph name="asterisk" xMin="69" yMin="317" xMax="402" yMax="663">
      <contour>
        <pt x="307" y="325" on="1"/>
        <pt x="294" y="317" on="0"/>
        <pt x="288" y="330" on="1"/>
        <pt x="229" y="450" on="1"/>
        <pt x="133" y="318" on="1"/>
        <pt x="91" y="348" on="1"/>
        <pt x="84" y="353" on="0"/>
        <pt x="85" y="362" on="0"/>
        <pt x="92" y="369" on="1"/>
        <pt x="198" y="475" on="1"/>
        <pt x="69" y="516" on="1"/>
        <pt x="93" y="565" on="1"/>
        <pt x="97" y="573" on="0"/>
        <pt x="104" y="576" on="0"/>
        <pt x="114" y="571" on="1"/>
        <pt x="216" y="511" on="1"/>
        <pt x="220" y="663" on="1"/>
        <pt x="276" y="663" on="1"/>
        <pt x="289" y="663" on="0"/>
        <pt x="286" y="649" on="1"/>
        <pt x="256" y="511" on="1"/>
        <pt x="387" y="575" on="1"/>
        <pt x="400" y="528" on="1"/>
        <pt x="402" y="519" on="0"/>
        <pt x="397" y="512" on="0"/>
        <pt x="388" y="509" on="1"/>
        <pt x="267" y="475" on="1"/>
        <pt x="356" y="355" on="1"/>
      </contour>
    </TTGlyph>
    <TTGlyph name="at" xMin="33" yMin="-99" xMax="701" yMax="583">
      <contour>
        <pt x="516" y="402" on="1"/>
        <pt x="490" y="194" on="1"/>
        <pt x="488" y="180" on="0"/>
        <pt x="487" y="167" on="0"/>
        <pt x="487" y="162" on="1"/>
        <pt x="487" y="148" on="0"/>
        <pt x="507" y="129" on="0"/>
        <pt x="528" y="129" on="1"/>
        <pt x="554" y="129" on="0"/>
        <pt x="595" y="157" on="0"/>
        <pt x="624" y="205" on="0"/>
        <pt x="639" y="269" on="0"/>
        <pt x="639" y="305" on="1"/>
        <pt x="639" y="357" on="0"/>
        <pt x="602" y="437" on="0"/>
        <pt x="538" y="493" on="0"/>
        <pt x="452" y="522" on="0"/>
        <pt x="402" y="522" on="1"/>
        <pt x="336" y="522" on="0"/>
        <pt x="226" y="473" on="0"/>
        <pt x="147" y="388" on="0"/>
        <pt x="103" y="273" on="0"/>
        <pt x="103" y="206" on="1"/>
        <pt x="103" y="149" on="0"/>
        <pt x="139" y="58" on="0"/>
        <pt x="205" y="-5" on="0"/>
        <pt x="299" y="-38" on="0"/>
        <pt x="356" y="-38" on="1"/>
        <pt x="410" y="-38" on="0"/>
        <pt x="531" y="2" on="0"/>
        <pt x="609" y="34" on="1"/>
        <pt x="628" y="2" on="1"/>
        <pt x="601" y="-19" on="0"/>
        <pt x="534" y="-55" on="0"/>
        <pt x="459" y="-83" on="0"/>
        <pt x="378" y="-99" on="0"/>
        <pt x="338" y="-99" on="1"/>
        <pt x="273" y="-99" on="0"/>
        <pt x="161" y="-54" on="0"/>
        <pt x="79" y="27" on="0"/>
        <pt x="33" y="138" on="0"/>
        <pt x="33" y="203" on="1"/>
        <pt x="33" y="275" on="0"/>
        <pt x="87" y="412" on="0"/>
        <pt x="185" y="519" on="0"/>
        <pt x="323" y="583" on="0"/>
        <pt x="407" y="583" on="1"/>
        <pt x="470" y="583" on="0"/>
        <pt x="577" y="541" on="0"/>
        <pt x="656" y="467" on="0"/>
        <pt x="701" y="367" on="0"/>
        <pt x="701" y="309" on="1"/>
        <pt x="701" y="264" on="0"/>
        <pt x="675" y="180" on="0"/>
        <pt x="627" y="116" on="0"/>
        <pt x="561" y="77" on="0"/>
        <pt x="521" y="77" on="1"/>
        <pt x="492" y="77" on="0"/>
        <pt x="450" y="99" on="0"/>
        <pt x="439" y="116" on="1"/>
        <pt x="416" y="101" on="1"/>
        <pt x="394" y="88" on="0"/>
        <pt x="353" y="74" on="0"/>
        <pt x="334" y="74" on="1"/>
        <pt x="308" y="74" on="0"/>
        <pt x="265" y="96" on="0"/>
        <pt x="232" y="135" on="0"/>
        <pt x="214" y="188" on="0"/>
        <pt x="214" y="219" on="1"/>
        <pt x="214" y="261" on="0"/>
        <pt x="241" y="331" on="0"/>
        <pt x="285" y="382" on="0"/>
        <pt x="341" y="411" on="0"/>
        <pt x="371" y="411" on="1"/>
        <pt x="404" y="411" on="0"/>
        <pt x="445" y="382" on="1"/>
        <pt x="462" y="371" on="1"/>
        <pt x="477" y="406" on="1"/>
      </contour>
      <contour>
        <pt x="446" y="316" on="1"/>
        <pt x="447" y="323" on="0"/>
        <pt x="445" y="329" on="0"/>
        <pt x="440" y="333" on="1"/>
        <pt x="431" y="340" on="0"/>
        <pt x="394" y="353" on="0"/>
        <pt x="375" y="353" on="1"/>
        <pt x="354" y="353" on="0"/>
        <pt x="318" y="334" on="0"/>
        <pt x="291" y="299" on="0"/>
        <pt x="276" y="250" on="0"/>
        <pt x="276" y="220" on="1"/>
        <pt x="276" y="178" on="0"/>
        <pt x="314" y="133" on="0"/>
        <pt x="347" y="133" on="1"/>
        <pt x="361" y="133" on="0"/>
        <pt x="399" y="144" on="0"/>
        <pt x="420" y="156" on="1"/>
        <pt x="426" y="160" on="0"/>
        <pt x="428" y="165" on="0"/>
        <pt x="429" y="171" on="1"/>
      </contour>
    </TTGlyph>
    <TTGlyph name="at.cap" xMin="41" yMin="-10" xMax="709" yMax="672">
      <component glyphName="at" x="8" y="89" flags="0x204"/>
    </TTGlyph>
    <TTGlyph name="atilde" xMin="34" yMin="-8" xMax="505" yMax="673">
      <component glyphName="a" x="0" y="0" flags="0x204"/>
      <component glyphName="tilde" x="72" y="0" flags="0x4"/>
    </TTGlyph>
    <TTGlyph name="b" xMin="38" yMin="-8" xMax="497" yMax="709">
      <contour>
        <pt x="108" y="47" on="1"/>
        <pt x="89" y="0" on="1"/>
        <pt x="38" y="4" on="1"/>
        <pt x="121" y="709" on="1"/>
        <pt x="197" y="709" on="1"/>
        <pt x="165" y="438" on="1"/>
        <pt x="189" y="453" on="1"/>
        <pt x="258" y="496" on="0"/>
        <pt x="320" y="496" on="1"/>
        <pt x="360" y="496" on="0"/>
        <pt x="425" y="463" on="0"/>
        <pt x="471" y="406" on="0"/>
        <pt x="497" y="327" on="0"/>
        <pt x="497" y="281" on="1"/>
        <pt x="497" y="219" on="0"/>
        <pt x="460" y="114" on="0"/>
        <pt x="396" y="36" on="0"/>
        <pt x="311" y="-8" on="0"/>
        <pt x="262" y="-8" on="1"/>
        <pt x="230" y="-8" on="0"/>
        <pt x="170" y="12" on="0"/>
        <pt x="135" y="32" on="1"/>
      </contour>
      <contour>
        <pt x="256" y="60" on="1"/>
        <pt x="331" y="60" on="0"/>
        <pt x="421" y="177" on="0"/>
        <pt x="421" y="280" on="1"/>
        <pt x="421" y="350" on="0"/>
        <pt x="366" y="428" on="0"/>
        <pt x="303" y="428" on="1"/>
        <pt x="272" y="428" on="0"/>
        <pt x="197" y="403" on="0"/>
        <pt x="172" y="387" on="1"/>
        <pt x="164" y="382" on="0"/>
        <pt x="157" y="373" on="0"/>
        <pt x="156" y="364" on="1"/>
        <pt x="127" y="115" on="1"/>
        <pt x="126" y="107" on="0"/>
        <pt x="130" y="99" on="0"/>
        <pt x="138" y="94" on="1"/>
        <pt x="164" y="78" on="0"/>
        <pt x="227" y="60" on="0"/>
      </contour>
    </TTGlyph>
    <TTGlyph name="backslash" xMin="49" yMin="0" xMax="363" yMax="663">
      <contour>
        <pt x="292" y="0" on="1"/>
        <pt x="49" y="663" on="1"/>
        <pt x="120" y="663" on="1"/>
        <pt x="363" y="0" on="1"/>
      </contour>
    </TTGlyph>
    <TTGlyph name="bar" xMin="29" yMin="-229" xMax="208" yMax="709">
      <contour>
        <pt x="140" y="709" on="1"/>
        <pt x="208" y="709" on="1"/>
        <pt x="97" y="-229" on="1"/>
        <pt x="29" y="-229" on="1"/>
      </contour>
    </TTGlyph>
    <TTGlyph name="braceleft" xMin="47" yMin="-237" xMax="376" yMax="673">
      <contour>
        <pt x="53" y="242" on="1"/>
        <pt x="86" y="249" on="0"/>
        <pt x="131" y="269" on="0"/>
        <pt x="159" y="300" on="0"/>
        <pt x="171" y="345" on="0"/>
        <pt x="171" y="377" on="1"/>
        <pt x="171" y="392" on="0"/>
        <pt x="169" y="432" on="0"/>
        <pt x="166" y="475" on="0"/>
        <pt x="164" y="516" on="0"/>
        <pt x="164" y="533" on="1"/>
        <pt x="164" y="600" on="0"/>
        <pt x="230" y="673" on="0"/>
        <pt x="290" y="673" on="1"/>
        <pt x="311" y="673" on="0"/>
        <pt x="359" y="664" on="0"/>
        <pt x="376" y="659" on="1"/>
        <pt x="371" y="620" on="1"/>
        <pt x="291" y="610" on="1"/>
        <pt x="256" y="605" on="0"/>
        <pt x="234" y="575" on="0"/>
        <pt x="234" y="540" on="1"/>
        <pt x="234" y="525" on="0"/>
        <pt x="236" y="484" on="0"/>
        <pt x="238" y="440" on="0"/>
        <pt x="240" y="400" on="0"/>
        <pt x="240" y="385" on="1"/>
        <pt x="240" y="319" on="0"/>
        <pt x="187" y="240" on="0"/>
        <pt x="127" y="217" on="1"/>
        <pt x="168" y="201" on="0"/>
        <pt x="209" y="150" on="0"/>
        <pt x="209" y="107" on="1"/>
        <pt x="209" y="81" on="0"/>
        <pt x="192" y="13" on="0"/>
        <pt x="184" y="-14" on="1"/>
        <pt x="170" y="-64" on="1"/>
        <pt x="161" y="-96" on="0"/>
        <pt x="154" y="-128" on="0"/>
        <pt x="154" y="-138" on="1"/>
        <pt x="154" y="-153" on="0"/>
        <pt x="170" y="-172" on="0"/>
        <pt x="191" y="-174" on="1"/>
        <pt x="277" y="-184" on="1"/>
        <pt x="273" y="-223" on="1"/>
        <pt x="255" y="-228" on="0"/>
        <pt x="205" y="-237" on="0"/>
        <pt x="184" y="-237" on="1"/>
        <pt x="135" y="-237" on="0"/>
        <pt x="85" y="-183" on="0"/>
        <pt x="85" y="-144" on="1"/>
        <pt x="85" y="-128" on="0"/>
        <pt x="94" y="-84" on="0"/>
        <pt x="102" y="-53" on="1"/>
        <pt x="124" y="27" on="1"/>
        <pt x="131" y="51" on="0"/>
        <pt x="140" y="93" on="0"/>
        <pt x="140" y="111" on="1"/>
        <pt x="140" y="146" on="0"/>
        <pt x="97" y="183" on="0"/>
        <pt x="47" y="193" on="1"/>
      </contour>
    </TTGlyph>
    <TTGlyph name="braceleft.cap" xMin="70" yMin="-124" xMax="399" yMax="786">
      <component glyphName="braceleft" x="23" y="113" flags="0x4"/>
    </TTGlyph>
    <TTGlyph name="braceright" xMin="-53" yMin="-237" xMax="276" yMax="673">
      <contour>
        <pt x="270" y="194" on="1"/>
        <pt x="237" y="187" on="0"/>
        <pt x="192" y="167" on="0"/>
        <pt x="164" y="136" on="0"/>
        <pt x="152" y="91" on="0"/>
        <pt x="152" y="59" on="1"/>
        <pt x="152" y="44" on="0"/>
        <pt x="154" y="4" on="0"/>
        <pt x="157" y="-39" on="0"/>
        <pt x="159" y="-80" on="0"/>
        <pt x="159" y="-97" on="1"/>
        <pt x="159" y="-164" on="0"/>
        <pt x="93" y="-237" on="0"/>
        <pt x="33" y="-237" on="1"/>
        <pt x="12" y="-237" on="0"/>
        <pt x="-36" y="-228" on="0"/>
        <pt x="-53" y="-223" on="1"/>
        <pt x="-48" y="-184" on="1"/>
        <pt x="32" y="-174" on="1"/>
        <pt x="67" y="-169" on="0"/>
        <pt x="89" y="-139" on="0"/>
        <pt x="89" y="-104" on="1"/>
        <pt x="89" y="-89" on="0"/>
        <pt x="87" y="-48" on="0"/>
        <pt x="85" y="-4" on="0"/>
        <pt x="83" y="36" on="0"/>
        <pt x="83" y="51" on="1"/>
        <pt x="83" y="117" on="0"/>
        <pt x="136" y="196" on="0"/>
        <pt x="196" y="219" on="1"/>
        <pt x="155" y="235" on="0"/>
        <pt x="114" y="286" on="0"/>
        <pt x="114" y="329" on="1"/>
        <pt x="114" y="355" on="0"/>
        <pt x="131" y="423" on="0"/>
        <pt x="139" y="450" on="1"/>
        <pt x="153" y="500" on="1"/>
        <pt x="162" y="532" on="0"/>
        <pt x="169" y="564" on="0"/>
        <pt x="169" y="574" on="1"/>
        <pt x="169" y="589" on="0"/>
        <pt x="153" y="608" on="0"/>
        <pt x="132" y="610" on="1"/>
        <pt x="46" y="620" on="1"/>
        <pt x="50" y="659" on="1"/>
        <pt x="68" y="664" on="0"/>
        <pt x="118" y="673" on="0"/>
        <pt x="139" y="673" on="1"/>
        <pt x="188" y="673" on="0"/>
        <pt x="238" y="619" on="0"/>
        <pt x="238" y="580" on="1"/>
        <pt x="238" y="564" on="0"/>
        <pt x="229" y="520" on="0"/>
        <pt x="221" y="489" on="1"/>
        <pt x="199" y="409" on="1"/>
        <pt x="192" y="385" on="0"/>
        <pt x="183" y="343" on="0"/>
        <pt x="183" y="325" on="1"/>
        <pt x="183" y="290" on="0"/>
        <pt x="226" y="253" on="0"/>
        <pt x="276" y="243" on="1"/>
      </contour>
    </TTGlyph>
    <TTGlyph name="braceright.cap" xMin="-47" yMin="-124" xMax="282" yMax="786">
      <component glyphName="braceright" x="6" y="113" flags="0x4"/>
    </TTGlyph>
    <TTGlyph name="bracketleft" xMin="36" yMin="-229" xMax="347" yMax="663">
      <contour>
        <pt x="142" y="663" on="1"/>
        <pt x="347" y="663" on="1"/>
        <pt x="339" y="598" on="1"/>
        <pt x="208" y="598" on="1"/>
        <pt x="118" y="-164" on="1"/>
        <pt x="249" y="-164" on="1"/>
        <pt x="241" y="-229" on="1"/>
        <pt x="36" y="-229" on="1"/>
      </contour>
    </TTGlyph>
    <TTGlyph name="bracketleft.cap" xMin="47" yMin="-114" xMax="358" yMax="778">
      <component glyphName="bracketleft" x="11" y="115" flags="0x4"/>
    </TTGlyph>
    <TTGlyph name="bracketright" xMin="-57" yMin="-229" xMax="254" yMax="663">
      <contour>
        <pt x="148" y="-229" on="1"/>
        <pt x="-57" y="-229" on="1"/>
        <pt x="-49" y="-164" on="1"/>
        <pt x="82" y="-164" on="1"/>
        <pt x="172" y="598" on="1"/>
        <pt x="41" y="598" on="1"/>
        <pt x="49" y="663" on="1"/>
        <pt x="254" y="663" on="1"/>
      </contour>
    </TTGlyph>
    <TTGlyph name="bracketright.cap" xMin="-42" yMin="-114" xMax="269" yMax="778">
      <component glyphName="bracketright" x="15" y="115" flags="0x4"/>
    </TTGlyph>
    <TTGlyph name="breve" xMin="90" yMin="552" xMax="382" yMax="693">
      <contour>
        <pt x="222" y="552" on="1"/>
        <pt x="164" y="552" on="0"/>
        <pt x="93" y="623" on="0"/>
        <pt x="90" y="685" on="1"/>
        <pt x="135" y="693" on="1"/>
        <pt x="144" y="656" on="0"/>
        <pt x="191" y="615" on="0"/>
        <pt x="227" y="615" on="1"/>
        <pt x="264" y="615" on="0"/>
        <pt x="321" y="656" on="0"/>
        <pt x="338" y="693" on="1"/>
        <pt x="382" y="685" on="1"/>
        <pt x="363" y="622" on="0"/>
        <pt x="278" y="552" on="0"/>
      </contour>
    </TTGlyph>
    <TTGlyph name="breve.cap" xMin="111" yMin="725" xMax="403" yMax="866">
      <contour>
        <pt x="243" y="725" on="1"/>
        <pt x="185" y="725" on="0"/>
        <pt x="114" y="796" on="0"/>
        <pt x="111" y="858" on="1"/>
        <pt x="156" y="866" on="1"/>
        <pt x="165" y="829" on="0"/>
        <pt x="212" y="788" on="0"/>
        <pt x="248" y="788" on="1"/>
        <pt x="285" y="788" on="0"/>
        <pt x="342" y="829" on="0"/>
        <pt x="359" y="866" on="1"/>
        <pt x="403" y="858" on="1"/>
        <pt x="384" y="795" on="0"/>
        <pt x="299" y="725" on="0"/>
      </contour>
    </TTGlyph>
    <TTGlyph name="brokenbar" xMin="29" yMin="-229" xMax="208" yMax="709">
      <contour>
        <pt x="140" y="709" on="1"/>
        <pt x="208" y="709" on="1"/>
        <pt x="159" y="291" on="1"/>
        <pt x="90" y="291" on="1"/>
      </contour>
      <contour>
        <pt x="78" y="189" on="1"/>
        <pt x="146" y="189" on="1"/>
        <pt x="97" y="-229" on="1"/>
        <pt x="29" y="-229" on="1"/>
      </contour>
    </TTGlyph>
    <TTGlyph name="bullet" xMin="66" yMin="187" xMax="273" yMax="374">
      <contour>
        <pt x="251" y="187" on="1"/>
        <pt x="66" y="187" on="1"/>
        <pt x="88" y="374" on="1"/>
        <pt x="252" y="374" on="1"/>
        <pt x="265" y="374" on="0"/>
        <pt x="273" y="365" on="0"/>
        <pt x="271" y="354" on="1"/>
      </contour>
    </TTGlyph>
    <TTGlyph name="bullet.cap" xMin="75" yMin="237" xMax="282" yMax="424">
      <component glyphName="bullet" x="9" y="50" flags="0x204"/>
    </TTGlyph>
    <TTGlyph name="c" xMin="34" yMin="-8" xMax="461" yMax="496">
      <contour>
        <pt x="446" y="70" on="1"/>
        <pt x="405" y="37" on="0"/>
        <pt x="296" y="-8" on="0"/>
        <pt x="239" y="-8" on="1"/>
        <pt x="189" y="-8" on="0"/>
        <pt x="113" y="26" on="0"/>
        <pt x="61" y="86" on="0"/>
        <pt x="34" y="167" on="0"/>
        <pt x="34" y="213" on="1"/>
        <pt x="34" y="276" on="0"/>
        <pt x="81" y="390" on="0"/>
        <pt x="123" y="430" on="1"/>
        <pt x="155" y="460" on="0"/>
        <pt x="234" y="496" on="0"/>
        <pt x="284" y="496" on="1"/>
        <pt x="340" y="496" on="0"/>
        <pt x="437" y="426" on="0"/>
        <pt x="461" y="357" on="1"/>
        <pt x="410" y="332" on="1"/>
        <pt x="383" y="362" on="1"/>
        <pt x="352" y="396" on="0"/>
        <pt x="301" y="429" on="0"/>
        <pt x="269" y="429" on="1"/>
        <pt x="236" y="429" on="0"/>
        <pt x="178" y="397" on="0"/>
        <pt x="135" y="340" on="0"/>
        <pt x="110" y="262" on="0"/>
        <pt x="110" y="216" on="1"/>
        <pt x="110" y="141" on="0"/>
        <pt x="181" y="59" on="0"/>
        <pt x="250" y="59" on="1"/>
        <pt x="279" y="59" on="0"/>
        <pt x="337" y="73" on="0"/>
        <pt x="376" y="89" on="1"/>
        <pt x="423" y="108" on="1"/>
      </contour>
    </TTGlyph>
    <TTGlyph name="cacute" xMin="34" yMin="-8" xMax="461" yMax="719">
      <component glyphName="c" x="0" y="0" flags="0x204"/>
      <component glyphName="acute" x="75" y="0" flags="0x4"/>
    </TTGlyph>
    <TTGlyph name="caron" xMin="87" yMin="545" xMax="396" yMax="712">
      <contour>
        <pt x="87" y="683" on="1"/>
        <pt x="121" y="712" on="1"/>
        <pt x="231" y="610" on="1"/>
        <pt x="234" y="610" on="1"/>
        <pt x="369" y="712" on="1"/>
        <pt x="396" y="683" on="1"/>
        <pt x="260" y="555" on="1"/>
        <pt x="254" y="549" on="0"/>
        <pt x="244" y="545" on="0"/>
        <pt x="235" y="545" on="1"/>
        <pt x="216" y="545" on="1"/>
        <pt x="206" y="545" on="0"/>
        <pt x="199" y="547" on="0"/>
        <pt x="194" y="554" on="1"/>
      </contour>
    </TTGlyph>
    <TTGlyph name="caron.cap" xMin="120" yMin="725" xMax="429" yMax="892">
      <contour>
        <pt x="120" y="863" on="1"/>
        <pt x="154" y="892" on="1"/>
        <pt x="264" y="790" on="1"/>
        <pt x="267" y="790" on="1"/>
        <pt x="402" y="892" on="1"/>
        <pt x="429" y="863" on="1"/>
        <pt x="293" y="735" on="1"/>
        <pt x="287" y="729" on="0"/>
        <pt x="277" y="725" on="0"/>
        <pt x="268" y="725" on="1"/>
        <pt x="249" y="725" on="1"/>
        <pt x="239" y="725" on="0"/>
        <pt x="232" y="727" on="0"/>
        <pt x="227" y="734" on="1"/>
      </contour>
    </TTGlyph>
    <TTGlyph name="ccaron" xMin="34" yMin="-8" xMax="461" yMax="712">
      <component glyphName="c" x="0" y="0" flags="0x204"/>
      <component glyphName="caron" x="59" y="0" flags="0x4"/>
    </TTGlyph>
    <TTGlyph name="ccedilla" xMin="34" yMin="-222" xMax="461" yMax="496">
      <contour>
        <pt x="446" y="70" on="1"/>
        <pt x="407" y="38" on="0"/>
        <pt x="303" y="-6" on="0"/>
        <pt x="248" y="-8" on="1"/>
        <pt x="243" y="-16" on="0"/>
        <pt x="237" y="-30" on="0"/>
        <pt x="237" y="-36" on="1"/>
        <pt x="237" y="-46" on="0"/>
        <pt x="267" y="-58" on="0"/>
        <pt x="304" y="-75" on="0"/>
        <pt x="334" y="-101" on="0"/>
        <pt x="334" y="-125" on="1"/>
        <pt x="334" y="-150" on="0"/>
        <pt x="303" y="-185" on="0"/>
        <pt x="253" y="-209" on="0"/>
        <pt x="191" y="-221" on="0"/>
        <pt x="160" y="-222" on="1"/>
        <pt x="154" y="-180" on="1"/>
        <pt x="219" y="-166" on="1"/>
        <pt x="245" y="-161" on="0"/>
        <pt x="266" y="-148" on="0"/>
        <pt x="266" y="-136" on="1"/>
        <pt x="266" y="-125" on="0"/>
        <pt x="237" y="-111" on="0"/>
        <pt x="201" y="-97" on="0"/>
        <pt x="172" y="-78" on="0"/>
        <pt x="172" y="-62" on="1"/>
        <pt x="172" y="-48" on="0"/>
        <pt x="190" y="-19" on="0"/>
        <pt x="202" y="-5" on="1"/>
        <pt x="161" y="1" on="0"/>
        <pt x="99" y="39" on="0"/>
        <pt x="56" y="97" on="0"/>
        <pt x="34" y="171" on="0"/>
        <pt x="34" y="213" on="1"/>
        <pt x="34" y="276" on="0"/>
        <pt x="81" y="390" on="0"/>
        <pt x="123" y="430" on="1"/>
        <pt x="155" y="460" on="0"/>
        <pt x="234" y="496" on="0"/>
        <pt x="284" y="496" on="1"/>
        <pt x="340" y="496" on="0"/>
        <pt x="437" y="426" on="0"/>
        <pt x="461" y="357" on="1"/>
        <pt x="410" y="332" on="1"/>
        <pt x="383" y="362" on="1"/>
        <pt x="352" y="396" on="0"/>
        <pt x="301" y="429" on="0"/>
        <pt x="269" y="429" on="1"/>
        <pt x="236" y="429" on="0"/>
        <pt x="178" y="397" on="0"/>
        <pt x="135" y="340" on="0"/>
        <pt x="110" y="262" on="0"/>
        <pt x="110" y="216" on="1"/>
        <pt x="110" y="141" on="0"/>
        <pt x="181" y="59" on="0"/>
        <pt x="250" y="59" on="1"/>
        <pt x="279" y="59" on="0"/>
        <pt x="337" y="73" on="0"/>
        <pt x="376" y="89" on="1"/>
        <pt x="423" y="108" on="1"/>
      </contour>
    </TTGlyph>
    <TTGlyph name="ccircumflex" xMin="34" yMin="-8" xMax="461" yMax="709">
      <component glyphName="c" x="0" y="0" flags="0x204"/>
      <component glyphName="circumflex" x="63" y="0" flags="0x4"/>
    </TTGlyph>
    <TTGlyph name="cdotaccent" xMin="34" yMin="-8" xMax="461" yMax="656">
      <component glyphName="c" x="0" y="0" flags="0x204"/>
      <component glyphName="dotaccent" x="69" y="0" flags="0x4"/>
    </TTGlyph>
    <TTGlyph name="cedilla" xMin="91" yMin="-222" xMax="271" yMax="20">
      <contour>
        <pt x="199" y="12" on="1"/>
        <pt x="191" y="2" on="0"/>
        <pt x="174" y="-26" on="0"/>
        <pt x="174" y="-36" on="1"/>
        <pt x="174" y="-46" on="0"/>
        <pt x="204" y="-58" on="0"/>
        <pt x="241" y="-75" on="0"/>
        <pt x="271" y="-101" on="0"/>
        <pt x="271" y="-125" on="1"/>
        <pt x="271" y="-150" on="0"/>
        <pt x="240" y="-185" on="0"/>
        <pt x="190" y="-209" on="0"/>
        <pt x="128" y="-221" on="0"/>
        <pt x="97" y="-222" on="1"/>
        <pt x="91" y="-180" on="1"/>
        <pt x="156" y="-166" on="1"/>
        <pt x="182" y="-161" on="0"/>
        <pt x="203" y="-148" on="0"/>
        <pt x="203" y="-136" on="1"/>
        <pt x="203" y="-125" on="0"/>
        <pt x="174" y="-111" on="0"/>
        <pt x="138" y="-97" on="0"/>
        <pt x="109" y="-78" on="0"/>
        <pt x="109" y="-62" on="1"/>
        <pt x="109" y="-43" on="0"/>
        <pt x="145" y="3" on="0"/>
        <pt x="165" y="20" on="1"/>
      </contour>
    </TTGlyph>
    <TTGlyph name="cent" xMin="89" yMin="-110" xMax="518" yMax="594">
      <contour>
        <pt x="503" y="72" on="1"/>
        <pt x="465" y="40" on="0"/>
        <pt x="364" y="-3" on="0"/>
        <pt x="311" y="-7" on="1"/>
        <pt x="289" y="-110" on="1"/>
        <pt x="247" y="-110" on="1"/>
        <pt x="259" y="-5" on="1"/>
        <pt x="219" y="1" on="0"/>
        <pt x="156" y="40" on="0"/>
        <pt x="112" y="97" on="0"/>
        <pt x="89" y="171" on="0"/>
        <pt x="89" y="213" on="1"/>
        <pt x="89" y="266" on="0"/>
        <pt x="123" y="364" on="0"/>
        <pt x="184" y="442" on="0"/>
        <pt x="269" y="491" on="0"/>
        <pt x="320" y="495" on="1"/>
        <pt x="341" y="594" on="1"/>
        <pt x="383" y="594" on="1"/>
        <pt x="371" y="493" on="1"/>
        <pt x="425" y="482" on="0"/>
        <pt x="499" y="409" on="0"/>
        <pt x="518" y="357" on="1"/>
        <pt x="466" y="332" on="1"/>
        <pt x="430" y="372" on="1"/>
        <pt x="411" y="392" on="0"/>
        <pt x="380" y="418" on="0"/>
        <pt x="363" y="425" on="1"/>
        <pt x="320" y="59" on="1"/>
        <pt x="343" y="61" on="0"/>
        <pt x="394" y="77" on="0"/>
        <pt x="423" y="88" on="1"/>
        <pt x="482" y="111" on="1"/>
      </contour>
      <contour>
        <pt x="164" y="216" on="1"/>
        <pt x="164" y="159" on="0"/>
        <pt x="215" y="77" on="0"/>
        <pt x="269" y="63" on="1"/>
        <pt x="312" y="428" on="1"/>
        <pt x="281" y="424" on="0"/>
        <pt x="227" y="389" on="0"/>
        <pt x="187" y="333" on="0"/>
        <pt x="164" y="259" on="0"/>
      </contour>
    </TTGlyph>
    <TTGlyph name="cent.lprop" xMin="49" yMin="-110" xMax="478" yMax="594">
      <component glyphName="cent" x="-40" y="0" flags="0x4"/>
    </TTGlyph>
    <TTGlyph name="cent.oprop" xMin="49" yMin="-110" xMax="430" yMax="542">
      <component glyphName="cent.otab" x="-58" y="0" flags="0x4"/>
    </TTGlyph>
    <TTGlyph name="cent.otab" xMin="107" yMin="-110" xMax="488" yMax="542">
      <contour>
        <pt x="260" y="-6" on="1"/>
        <pt x="187" y="5" on="0"/>
        <pt x="107" y="112" on="0"/>
        <pt x="107" y="189" on="1"/>
        <pt x="107" y="236" on="0"/>
        <pt x="137" y="324" on="0"/>
        <pt x="192" y="393" on="0"/>
        <pt x="268" y="437" on="0"/>
        <pt x="314" y="440" on="1"/>
        <pt x="335" y="542" on="1"/>
        <pt x="371" y="542" on="1"/>
        <pt x="358" y="437" on="1"/>
        <pt x="407" y="428" on="0"/>
        <pt x="475" y="360" on="0"/>
        <pt x="488" y="316" on="1"/>
        <pt x="440" y="292" on="1"/>
        <pt x="416" y="319" on="1"/>
        <pt x="400" y="337" on="0"/>
        <pt x="367" y="366" on="0"/>
        <pt x="350" y="373" on="1"/>
        <pt x="313" y="56" on="1"/>
        <pt x="353" y="59" on="0"/>
        <pt x="402" y="79" on="1"/>
        <pt x="453" y="99" on="1"/>
        <pt x="476" y="61" on="1"/>
        <pt x="442" y="34" on="0"/>
        <pt x="351" y="-5" on="0"/>
        <pt x="305" y="-7" on="1"/>
        <pt x="283" y="-110" on="1"/>
        <pt x="247" y="-110" on="1"/>
      </contour>
      <contour>
        <pt x="177" y="193" on="1"/>
        <pt x="177" y="141" on="0"/>
        <pt x="222" y="70" on="0"/>
        <pt x="268" y="59" on="1"/>
        <pt x="306" y="376" on="1"/>
        <pt x="279" y="373" on="0"/>
        <pt x="231" y="343" on="0"/>
        <pt x="197" y="295" on="0"/>
        <pt x="177" y="231" on="0"/>
      </contour>
    </TTGlyph>
    <TTGlyph name="circumflex" xMin="74" yMin="542" xMax="383" yMax="709">
      <contour>
        <pt x="383" y="571" on="1"/>
        <pt x="349" y="542" on="1"/>
        <pt x="239" y="644" on="1"/>
        <pt x="236" y="644" on="1"/>
        <pt x="101" y="542" on="1"/>
        <pt x="74" y="571" on="1"/>
        <pt x="210" y="699" on="1"/>
        <pt x="216" y="705" on="0"/>
        <pt x="226" y="709" on="0"/>
        <pt x="235" y="709" on="1"/>
        <pt x="254" y="709" on="1"/>
        <pt x="264" y="709" on="0"/>
        <pt x="271" y="707" on="0"/>
        <pt x="276" y="700" on="1"/>
      </contour>
    </TTGlyph>
    <TTGlyph name="circumflex.cap" xMin="95" yMin="715" xMax="404" yMax="882">
      <contour>
        <pt x="404" y="744" on="1"/>
        <pt x="370" y="715" on="1"/>
        <pt x="260" y="817" on="1"/>
        <pt x="257" y="817" on="1"/>
        <pt x="122" y="715" on="1"/>
        <pt x="95" y="744" on="1"/>
        <pt x="231" y="872" on="1"/>
        <pt x="237" y="878" on="0"/>
        <pt x="247" y="882" on="0"/>
        <pt x="256" y="882" on="1"/>
        <pt x="275" y="882" on="1"/>
        <pt x="285" y="882" on="0"/>
        <pt x="292" y="880" on="0"/>
        <pt x="297" y="873" on="1"/>
      </contour>
    </TTGlyph>
    <TTGlyph name="colon" xMin="26" yMin="0" xMax="160" yMax="418">
      <contour>
        <pt x="36" y="91" on="1"/>
        <pt x="107" y="91" on="1"/>
        <pt x="117" y="91" on="0"/>
        <pt x="122" y="84" on="0"/>
        <pt x="121" y="76" on="1"/>
        <pt x="113" y="0" on="1"/>
        <pt x="26" y="0" on="1"/>
      </contour>
      <contour>
        <pt x="74" y="418" on="1"/>
        <pt x="145" y="418" on="1"/>
        <pt x="155" y="418" on="0"/>
        <pt x="160" y="411" on="0"/>
        <pt x="159" y="403" on="1"/>
        <pt x="151" y="327" on="1"/>
        <pt x="64" y="327" on="1"/>
      </contour>
    </TTGlyph>
    <TTGlyph name="comma" xMin="-22" yMin="-146" xMax="122" yMax="91">
      <contour>
        <pt x="107" y="91" on="1"/>
        <pt x="116" y="91" on="0"/>
        <pt x="122" y="85" on="0"/>
        <pt x="121" y="76" on="1"/>
        <pt x="115" y="21" on="1"/>
        <pt x="113" y="1" on="0"/>
        <pt x="103" y="-31" on="0"/>
        <pt x="78" y="-67" on="0"/>
        <pt x="35" y="-112" on="0"/>
        <pt x="1" y="-146" on="1"/>
        <pt x="-22" y="-127" on="1"/>
        <pt x="47" y="-16" on="1"/>
        <pt x="51" y="-11" on="0"/>
        <pt x="50" y="-6" on="0"/>
        <pt x="47" y="-3" on="1"/>
        <pt x="34" y="10" on="1"/>
        <pt x="29" y="15" on="0"/>
        <pt x="28" y="22" on="0"/>
        <pt x="29" y="32" on="1"/>
        <pt x="35" y="91" on="1"/>
      </contour>
    </TTGlyph>
    <TTGlyph name="commaaccent" xMin="79" yMin="-263" xMax="204" yMax="-58">
      <contour>
        <pt x="79" y="-255" on="1"/>
        <pt x="131" y="-58" on="1"/>
        <pt x="186" y="-58" on="1"/>
        <pt x="195" y="-58" on="0"/>
        <pt x="204" y="-65" on="0"/>
        <pt x="204" y="-76" on="1"/>
        <pt x="204" y="-91" on="0"/>
        <pt x="193" y="-125" on="0"/>
        <pt x="176" y="-154" on="1"/>
        <pt x="114" y="-263" on="1"/>
      </contour>
    </TTGlyph>
    <TTGlyph name="copyright" xMin="47" yMin="-10" xMax="703" yMax="673">
      <contour>
        <pt x="484" y="235" on="1"/>
        <pt x="457" y="214" on="0"/>
        <pt x="391" y="185" on="0"/>
        <pt x="358" y="185" on="1"/>
        <pt x="329" y="185" on="0"/>
        <pt x="283" y="206" on="0"/>
        <pt x="251" y="242" on="0"/>
        <pt x="234" y="291" on="0"/>
        <pt x="234" y="319" on="1"/>
        <pt x="234" y="350" on="0"/>
        <pt x="257" y="409" on="0"/>
        <pt x="297" y="455" on="0"/>
        <pt x="351" y="483" on="0"/>
        <pt x="383" y="483" on="1"/>
        <pt x="425" y="483" on="0"/>
        <pt x="485" y="434" on="0"/>
        <pt x="496" y="399" on="1"/>
        <pt x="464" y="379" on="1"/>
        <pt x="441" y="403" on="1"/>
        <pt x="426" y="419" on="0"/>
        <pt x="397" y="434" on="0"/>
        <pt x="379" y="434" on="1"/>
        <pt x="360" y="434" on="0"/>
        <pt x="327" y="417" on="0"/>
        <pt x="302" y="386" on="0"/>
        <pt x="288" y="345" on="0"/>
        <pt x="288" y="321" on="1"/>
        <pt x="288" y="283" on="0"/>
        <pt x="326" y="236" on="0"/>
        <pt x="364" y="236" on="1"/>
        <pt x="378" y="236" on="0"/>
        <pt x="409" y="243" on="0"/>
        <pt x="435" y="252" on="1"/>
        <pt x="468" y="264" on="1"/>
      </contour>
      <contour>
        <pt x="340" y="-10" on="1"/>
        <pt x="276" y="-10" on="0"/>
        <pt x="169" y="39" on="0"/>
        <pt x="91" y="123" on="0"/>
        <pt x="47" y="235" on="0"/>
        <pt x="47" y="297" on="1"/>
        <pt x="47" y="372" on="0"/>
        <pt x="104" y="508" on="0"/>
        <pt x="202" y="611" on="0"/>
        <pt x="334" y="673" on="0"/>
        <pt x="409" y="673" on="1"/>
        <pt x="473" y="673" on="0"/>
        <pt x="581" y="624" on="0"/>
        <pt x="659" y="540" on="0"/>
        <pt x="703" y="428" on="0"/>
        <pt x="703" y="365" on="1"/>
        <pt x="703" y="290" on="0"/>
        <pt x="646" y="155" on="0"/>
        <pt x="548" y="51" on="0"/>
        <pt x="416" y="-10" on="0"/>
      </contour>
      <contour>
        <pt x="404" y="612" on="1"/>
        <pt x="337" y="612" on="0"/>
        <pt x="229" y="561" on="0"/>
        <pt x="152" y="475" on="0"/>
        <pt x="110" y="362" on="0"/>
        <pt x="110" y="300" on="1"/>
        <pt x="110" y="246" on="0"/>
        <pt x="144" y="155" on="0"/>
        <pt x="205" y="88" on="0"/>
        <pt x="292" y="50" on="0"/>
        <pt x="345" y="50" on="1"/>
        <pt x="412" y="50" on="0"/>
        <pt x="521" y="101" on="0"/>
        <pt x="598" y="187" on="0"/>
        <pt x="640" y="300" on="0"/>
        <pt x="640" y="362" on="1"/>
        <pt x="640" y="416" on="0"/>
        <pt x="606" y="507" on="0"/>
        <pt x="544" y="574" on="0"/>
        <pt x="457" y="612" on="0"/>
      </contour>
    </TTGlyph>
    <TTGlyph name="currency" xMin="53" yMin="98" xMax="570" yMax="563">
      <contour>
        <pt x="290" y="125" on="1"/>
        <pt x="219" y="125" on="0"/>
        <pt x="175" y="169" on="1"/>
        <pt x="97" y="98" on="1"/>
        <pt x="53" y="146" on="1"/>
        <pt x="137" y="220" on="1"/>
        <pt x="120" y="259" on="0"/>
        <pt x="120" y="304" on="1"/>
        <pt x="120" y="384" on="0"/>
        <pt x="163" y="445" on="1"/>
        <pt x="97" y="516" on="1"/>
        <pt x="152" y="563" on="1"/>
        <pt x="211" y="496" on="1"/>
        <pt x="237" y="515" on="0"/>
        <pt x="298" y="537" on="0"/>
        <pt x="333" y="537" on="1"/>
        <pt x="368" y="537" on="0"/>
        <pt x="427" y="513" on="0"/>
        <pt x="449" y="493" on="1"/>
        <pt x="526" y="563" on="1"/>
        <pt x="570" y="516" on="1"/>
        <pt x="486" y="441" on="1"/>
        <pt x="504" y="403" on="0"/>
        <pt x="504" y="358" on="1"/>
        <pt x="504" y="319" on="0"/>
        <pt x="481" y="246" on="0"/>
        <pt x="461" y="216" on="1"/>
        <pt x="526" y="146" on="1"/>
        <pt x="471" y="98" on="1"/>
        <pt x="412" y="166" on="1"/>
        <pt x="387" y="147" on="0"/>
        <pt x="325" y="125" on="0"/>
      </contour>
      <contour>
        <pt x="327" y="473" on="1"/>
        <pt x="296" y="473" on="0"/>
        <pt x="245" y="447" on="0"/>
        <pt x="208" y="402" on="0"/>
        <pt x="187" y="343" on="0"/>
        <pt x="187" y="310" on="1"/>
        <pt x="187" y="256" on="0"/>
        <pt x="243" y="188" on="0"/>
        <pt x="296" y="188" on="1"/>
        <pt x="327" y="188" on="0"/>
        <pt x="378" y="215" on="0"/>
        <pt x="415" y="260" on="0"/>
        <pt x="436" y="319" on="0"/>
        <pt x="436" y="352" on="1"/>
        <pt x="436" y="406" on="0"/>
        <pt x="380" y="473" on="0"/>
      </contour>
    </TTGlyph>
    <TTGlyph name="d" xMin="34" yMin="-8" xMax="515" yMax="709">
      <contour>
        <pt x="275" y="496" on="1"/>
        <pt x="307" y="496" on="0"/>
        <pt x="362" y="475" on="0"/>
        <pt x="391" y="456" on="1"/>
        <pt x="407" y="445" on="1"/>
        <pt x="439" y="709" on="1"/>
        <pt x="515" y="709" on="1"/>
        <pt x="438" y="64" on="1"/>
        <pt x="508" y="48" on="1"/>
        <pt x="504" y="14" on="1"/>
        <pt x="489" y="7" on="0"/>
        <pt x="449" y="-2" on="0"/>
        <pt x="432" y="-2" on="1"/>
        <pt x="407" y="-2" on="0"/>
        <pt x="370" y="25" on="0"/>
        <pt x="365" y="48" on="1"/>
        <pt x="344" y="35" on="1"/>
        <pt x="311" y="15" on="0"/>
        <pt x="244" y="-8" on="0"/>
        <pt x="212" y="-8" on="1"/>
        <pt x="173" y="-8" on="0"/>
        <pt x="107" y="25" on="0"/>
        <pt x="60" y="82" on="0"/>
        <pt x="34" y="160" on="0"/>
        <pt x="34" y="206" on="1"/>
        <pt x="34" y="268" on="0"/>
        <pt x="75" y="374" on="0"/>
        <pt x="142" y="452" on="0"/>
        <pt x="229" y="496" on="0"/>
      </contour>
      <contour>
        <pt x="353" y="98" on="1"/>
        <pt x="361" y="103" on="0"/>
        <pt x="367" y="113" on="0"/>
        <pt x="368" y="121" on="1"/>
        <pt x="399" y="373" on="1"/>
        <pt x="400" y="381" on="0"/>
        <pt x="396" y="389" on="0"/>
        <pt x="388" y="394" on="1"/>
        <pt x="335" y="427" on="0"/>
        <pt x="277" y="427" on="1"/>
        <pt x="241" y="427" on="0"/>
        <pt x="180" y="396" on="0"/>
        <pt x="135" y="339" on="0"/>
        <pt x="110" y="258" on="0"/>
        <pt x="110" y="207" on="1"/>
        <pt x="110" y="140" on="0"/>
        <pt x="166" y="59" on="0"/>
        <pt x="226" y="59" on="1"/>
        <pt x="257" y="59" on="0"/>
        <pt x="328" y="82" on="0"/>
      </contour>
    </TTGlyph>
    <TTGlyph name="dagger" xMin="52" yMin="-229" xMax="505" yMax="663">
      <contour>
        <pt x="187" y="-229" on="1"/>
        <pt x="189" y="-160" on="0"/>
        <pt x="194" y="-38" on="0"/>
        <pt x="202" y="23" on="1"/>
        <pt x="220" y="178" on="1"/>
        <pt x="223" y="206" on="0"/>
        <pt x="229" y="244" on="0"/>
        <pt x="236" y="282" on="0"/>
        <pt x="245" y="325" on="0"/>
        <pt x="251" y="357" on="1"/>
        <pt x="203" y="352" on="0"/>
        <pt x="109" y="346" on="0"/>
        <pt x="67" y="346" on="1"/>
        <pt x="52" y="346" on="1"/>
        <pt x="59" y="411" on="1"/>
        <pt x="74" y="411" on="1"/>
        <pt x="95" y="411" on="0"/>
        <pt x="123" y="410" on="0"/>
        <pt x="158" y="408" on="0"/>
        <pt x="210" y="404" on="0"/>
        <pt x="256" y="400" on="1"/>
        <pt x="257" y="441" on="0"/>
        <pt x="259" y="515" on="0"/>
        <pt x="265" y="564" on="1"/>
        <pt x="277" y="663" on="1"/>
        <pt x="346" y="663" on="1"/>
        <pt x="335" y="569" on="1"/>
        <pt x="330" y="527" on="0"/>
        <pt x="316" y="444" on="0"/>
        <pt x="306" y="400" on="1"/>
        <pt x="338" y="402" on="0"/>
        <pt x="371" y="405" on="1"/>
        <pt x="399" y="407" on="0"/>
        <pt x="463" y="411" on="0"/>
        <pt x="489" y="411" on="1"/>
        <pt x="505" y="411" on="1"/>
        <pt x="497" y="346" on="1"/>
        <pt x="478" y="346" on="1"/>
        <pt x="461" y="346" on="0"/>
        <pt x="415" y="348" on="0"/>
        <pt x="365" y="351" on="0"/>
        <pt x="318" y="355" on="0"/>
        <pt x="300" y="357" on="1"/>
        <pt x="299" y="317" on="0"/>
        <pt x="294" y="224" on="0"/>
        <pt x="288" y="174" on="1"/>
        <pt x="270" y="18" on="1"/>
        <pt x="263" y="-40" on="0"/>
        <pt x="240" y="-162" on="0"/>
        <pt x="225" y="-229" on="1"/>
        <pt x="187" y="-229" on="1"/>
      </contour>
    </TTGlyph>
    <TTGlyph name="daggerdbl" xMin="12" yMin="-229" xMax="503" yMax="663">
      <contour>
        <pt x="293" y="263" on="1"/>
        <pt x="291" y="215" on="0"/>
        <pt x="275" y="121" on="0"/>
        <pt x="266" y="79" on="1"/>
        <pt x="307" y="83" on="0"/>
        <pt x="388" y="91" on="0"/>
        <pt x="424" y="91" on="1"/>
        <pt x="465" y="91" on="1"/>
        <pt x="457" y="25" on="1"/>
        <pt x="438" y="25" on="1"/>
        <pt x="421" y="25" on="0"/>
        <pt x="379" y="26" on="0"/>
        <pt x="332" y="29" on="0"/>
        <pt x="283" y="32" on="0"/>
        <pt x="261" y="35" on="1"/>
        <pt x="259" y="-21" on="0"/>
        <pt x="254" y="-116" on="0"/>
        <pt x="246" y="-176" on="1"/>
        <pt x="239" y="-229" on="1"/>
        <pt x="170" y="-229" on="1"/>
        <pt x="179" y="-161" on="1"/>
        <pt x="185" y="-112" on="0"/>
        <pt x="202" y="-14" on="0"/>
        <pt x="211" y="35" on="1"/>
        <pt x="163" y="30" on="0"/>
        <pt x="73" y="25" on="0"/>
        <pt x="31" y="25" on="1"/>
        <pt x="12" y="25" on="1"/>
        <pt x="20" y="91" on="1"/>
        <pt x="39" y="91" on="1"/>
        <pt x="58" y="91" on="0"/>
        <pt x="96" y="89" on="0"/>
        <pt x="138" y="86" on="0"/>
        <pt x="187" y="82" on="0"/>
        <pt x="216" y="79" on="1"/>
        <pt x="217" y="115" on="0"/>
        <pt x="222" y="182" on="0"/>
        <pt x="230" y="249" on="0"/>
        <pt x="241" y="317" on="0"/>
        <pt x="248" y="355" on="1"/>
        <pt x="200" y="350" on="0"/>
        <pt x="106" y="344" on="0"/>
        <pt x="64" y="344" on="1"/>
        <pt x="49" y="344" on="1"/>
        <pt x="57" y="411" on="1"/>
        <pt x="72" y="411" on="1"/>
        <pt x="93" y="411" on="0"/>
        <pt x="121" y="410" on="0"/>
        <pt x="156" y="408" on="0"/>
        <pt x="208" y="404" on="0"/>
        <pt x="254" y="400" on="1"/>
        <pt x="255" y="438" on="0"/>
        <pt x="258" y="520" on="0"/>
        <pt x="263" y="564" on="1"/>
        <pt x="275" y="663" on="1"/>
        <pt x="344" y="663" on="1"/>
        <pt x="333" y="569" on="1"/>
        <pt x="328" y="530" on="0"/>
        <pt x="314" y="444" on="0"/>
        <pt x="304" y="400" on="1"/>
        <pt x="336" y="402" on="0"/>
        <pt x="369" y="405" on="1"/>
        <pt x="397" y="407" on="0"/>
        <pt x="461" y="411" on="0"/>
        <pt x="487" y="411" on="1"/>
        <pt x="503" y="411" on="1"/>
        <pt x="495" y="344" on="1"/>
        <pt x="475" y="344" on="1"/>
        <pt x="458" y="344" on="0"/>
        <pt x="412" y="346" on="0"/>
        <pt x="362" y="349" on="0"/>
        <pt x="315" y="353" on="0"/>
        <pt x="297" y="355" on="1"/>
      </contour>
    </TTGlyph>
    <TTGlyph name="dcaron" xMin="34" yMin="-8" xMax="670" yMax="709">
      <component glyphName="d" x="0" y="0" flags="0x4"/>
      <component glyphName="commaaccent" x="466" y="767" flags="0x4"/>
    </TTGlyph>
    <TTGlyph name="dcroat" xMin="34" yMin="-8" xMax="580" yMax="709">
      <contour>
        <pt x="275" y="496" on="1"/>
        <pt x="307" y="496" on="0"/>
        <pt x="362" y="475" on="0"/>
        <pt x="391" y="456" on="1"/>
        <pt x="407" y="445" on="1"/>
        <pt x="423" y="577" on="1"/>
        <pt x="236" y="577" on="1"/>
        <pt x="243" y="630" on="1"/>
        <pt x="429" y="630" on="1"/>
        <pt x="439" y="709" on="1"/>
        <pt x="515" y="709" on="1"/>
        <pt x="505" y="628" on="1"/>
        <pt x="580" y="614" on="1"/>
        <pt x="576" y="577" on="1"/>
        <pt x="499" y="577" on="1"/>
        <pt x="438" y="64" on="1"/>
        <pt x="508" y="48" on="1"/>
        <pt x="504" y="14" on="1"/>
        <pt x="489" y="7" on="0"/>
        <pt x="449" y="-2" on="0"/>
        <pt x="432" y="-2" on="1"/>
        <pt x="407" y="-2" on="0"/>
        <pt x="370" y="25" on="0"/>
        <pt x="365" y="48" on="1"/>
        <pt x="344" y="35" on="1"/>
        <pt x="311" y="15" on="0"/>
        <pt x="244" y="-8" on="0"/>
        <pt x="212" y="-8" on="1"/>
        <pt x="173" y="-8" on="0"/>
        <pt x="107" y="25" on="0"/>
        <pt x="60" y="82" on="0"/>
        <pt x="34" y="160" on="0"/>
        <pt x="34" y="206" on="1"/>
        <pt x="34" y="268" on="0"/>
        <pt x="75" y="374" on="0"/>
        <pt x="142" y="452" on="0"/>
        <pt x="229" y="496" on="0"/>
      </contour>
      <contour>
        <pt x="353" y="98" on="1"/>
        <pt x="361" y="103" on="0"/>
        <pt x="367" y="113" on="0"/>
        <pt x="368" y="121" on="1"/>
        <pt x="399" y="373" on="1"/>
        <pt x="400" y="381" on="0"/>
        <pt x="396" y="389" on="0"/>
        <pt x="388" y="394" on="1"/>
        <pt x="335" y="427" on="0"/>
        <pt x="277" y="427" on="1"/>
        <pt x="241" y="427" on="0"/>
        <pt x="180" y="396" on="0"/>
        <pt x="135" y="339" on="0"/>
        <pt x="110" y="258" on="0"/>
        <pt x="110" y="207" on="1"/>
        <pt x="110" y="140" on="0"/>
        <pt x="166" y="59" on="0"/>
        <pt x="226" y="59" on="1"/>
        <pt x="257" y="59" on="0"/>
        <pt x="328" y="82" on="0"/>
      </contour>
    </TTGlyph>
    <TTGlyph name="degree" xMin="81" yMin="343" xMax="397" yMax="673">
      <contour>
        <pt x="333" y="518" on="1"/>
        <pt x="333" y="560" on="0"/>
        <pt x="287" y="612" on="0"/>
        <pt x="249" y="612" on="1"/>
        <pt x="223" y="612" on="0"/>
        <pt x="183" y="592" on="0"/>
        <pt x="157" y="559" on="0"/>
        <pt x="144" y="518" on="0"/>
        <pt x="144" y="498" on="1"/>
        <pt x="144" y="456" on="0"/>
        <pt x="191" y="404" on="0"/>
        <pt x="229" y="404" on="1"/>
        <pt x="255" y="404" on="0"/>
        <pt x="294" y="424" on="0"/>
        <pt x="320" y="457" on="0"/>
        <pt x="333" y="498" on="0"/>
      </contour>
      <contour>
        <pt x="81" y="497" on="1"/>
        <pt x="81" y="532" on="0"/>
        <pt x="107" y="596" on="0"/>
        <pt x="153" y="644" on="0"/>
        <pt x="214" y="673" on="0"/>
        <pt x="250" y="673" on="1"/>
        <pt x="281" y="673" on="0"/>
        <pt x="335" y="650" on="0"/>
        <pt x="375" y="610" on="0"/>
        <pt x="397" y="554" on="0"/>
        <pt x="397" y="520" on="1"/>
        <pt x="397" y="485" on="0"/>
        <pt x="371" y="421" on="0"/>
        <pt x="325" y="372" on="0"/>
        <pt x="263" y="343" on="0"/>
        <pt x="227" y="343" on="1"/>
        <pt x="196" y="343" on="0"/>
        <pt x="142" y="366" on="0"/>
        <pt x="103" y="407" on="0"/>
        <pt x="81" y="463" on="0"/>
      </contour>
    </TTGlyph>
    <TTGlyph name="dieresis" xMin="98" yMin="570" xMax="367" yMax="660">
      <contour>
        <pt x="109" y="660" on="1"/>
        <pt x="179" y="660" on="1"/>
        <pt x="187" y="660" on="0"/>
        <pt x="194" y="655" on="0"/>
        <pt x="194" y="647" on="1"/>
        <pt x="194" y="644" on="1"/>
        <pt x="194" y="642" on="0"/>
        <pt x="193" y="638" on="0"/>
        <pt x="193" y="635" on="1"/>
        <pt x="185" y="570" on="1"/>
        <pt x="98" y="570" on="1"/>
      </contour>
      <contour>
        <pt x="282" y="660" on="1"/>
        <pt x="352" y="660" on="1"/>
        <pt x="360" y="660" on="0"/>
        <pt x="367" y="655" on="0"/>
        <pt x="367" y="647" on="1"/>
        <pt x="367" y="644" on="1"/>
        <pt x="367" y="642" on="0"/>
        <pt x="366" y="638" on="0"/>
        <pt x="366" y="635" on="1"/>
        <pt x="358" y="570" on="1"/>
        <pt x="271" y="570" on="1"/>
      </contour>
    </TTGlyph>
    <TTGlyph name="dieresis.cap" xMin="117" yMin="750" xMax="386" yMax="840">
      <contour>
        <pt x="128" y="840" on="1"/>
        <pt x="198" y="840" on="1"/>
        <pt x="206" y="840" on="0"/>
        <pt x="213" y="835" on="0"/>
        <pt x="213" y="827" on="1"/>
        <pt x="213" y="824" on="1"/>
        <pt x="213" y="822" on="0"/>
        <pt x="212" y="818" on="0"/>
        <pt x="212" y="815" on="1"/>
        <pt x="204" y="750" on="1"/>
        <pt x="117" y="750" on="1"/>
      </contour>
      <contour>
        <pt x="301" y="840" on="1"/>
        <pt x="371" y="840" on="1"/>
        <pt x="379" y="840" on="0"/>
        <pt x="386" y="835" on="0"/>
        <pt x="386" y="827" on="1"/>
        <pt x="386" y="824" on="1"/>
        <pt x="386" y="822" on="0"/>
        <pt x="385" y="818" on="0"/>
        <pt x="385" y="815" on="1"/>
        <pt x="377" y="750" on="1"/>
        <pt x="290" y="750" on="1"/>
      </contour>
    </TTGlyph>
    <TTGlyph name="divide" xMin="72" yMin="45" xMax="438" yMax="446">
      <contour>
        <pt x="438" y="276" on="1"/>
        <pt x="431" y="215" on="1"/>
        <pt x="72" y="215" on="1"/>
        <pt x="79" y="276" on="1"/>
      </contour>
      <contour>
        <pt x="273" y="45" on="1"/>
        <pt x="189" y="45" on="1"/>
        <pt x="191" y="67" on="0"/>
        <pt x="196" y="110" on="0"/>
        <pt x="199" y="131" on="1"/>
        <pt x="267" y="131" on="1"/>
        <pt x="281" y="131" on="0"/>
        <pt x="281" y="122" on="1"/>
        <pt x="281" y="118" on="1"/>
      </contour>
      <contour>
        <pt x="310" y="360" on="1"/>
        <pt x="226" y="360" on="1"/>
        <pt x="237" y="446" on="1"/>
        <pt x="305" y="446" on="1"/>
        <pt x="319" y="446" on="0"/>
        <pt x="319" y="436" on="1"/>
        <pt x="319" y="432" on="1"/>
      </contour>
    </TTGlyph>
    <TTGlyph name="dollar" xMin="49" yMin="-110" xMax="528" yMax="772">
      <contour>
        <pt x="460" y="599" on="1"/>
        <pt x="442" y="601" on="0"/>
        <pt x="398" y="603" on="0"/>
        <pt x="377" y="604" on="1"/>
        <pt x="350" y="384" on="1"/>
        <pt x="352" y="383" on="1"/>
        <pt x="394" y="364" on="0"/>
        <pt x="455" y="325" on="0"/>
        <pt x="495" y="282" on="0"/>
        <pt x="514" y="231" on="0"/>
        <pt x="514" y="199" on="1"/>
        <pt x="514" y="110" on="0"/>
        <pt x="403" y="-2" on="0"/>
        <pt x="303" y="-9" on="1"/>
        <pt x="284" y="-110" on="1"/>
        <pt x="238" y="-110" on="1"/>
        <pt x="250" y="-9" on="1"/>
        <pt x="200" y="-5" on="0"/>
        <pt x="91" y="25" on="0"/>
        <pt x="49" y="47" on="1"/>
        <pt x="70" y="93" on="1"/>
        <pt x="125" y="81" on="1"/>
        <pt x="162" y="73" on="0"/>
        <pt x="227" y="61" on="0"/>
        <pt x="258" y="59" on="1"/>
        <pt x="290" y="333" on="1"/>
        <pt x="269" y="343" on="1"/>
        <pt x="233" y="360" on="0"/>
        <pt x="175" y="394" on="0"/>
        <pt x="134" y="435" on="0"/>
        <pt x="113" y="483" on="0"/>
        <pt x="113" y="513" on="1"/>
        <pt x="113" y="584" on="0"/>
        <pt x="228" y="671" on="0"/>
        <pt x="331" y="673" on="1"/>
        <pt x="351" y="772" on="1"/>
        <pt x="397" y="772" on="1"/>
        <pt x="385" y="671" on="1"/>
        <pt x="423" y="667" on="0"/>
        <pt x="499" y="652" on="0"/>
        <pt x="528" y="641" on="1"/>
        <pt x="517" y="594" on="1"/>
      </contour>
      <contour>
        <pt x="439" y="194" on="1"/>
        <pt x="439" y="214" on="0"/>
        <pt x="429" y="245" on="0"/>
        <pt x="405" y="272" on="0"/>
        <pt x="368" y="296" on="0"/>
        <pt x="341" y="309" on="1"/>
        <pt x="311" y="61" on="1"/>
        <pt x="369" y="68" on="0"/>
        <pt x="439" y="136" on="0"/>
      </contour>
      <contour>
        <pt x="187" y="514" on="1"/>
        <pt x="187" y="497" on="0"/>
        <pt x="199" y="470" on="0"/>
        <pt x="226" y="446" on="0"/>
        <pt x="269" y="421" on="0"/>
        <pt x="299" y="407" on="1"/>
        <pt x="323" y="605" on="1"/>
        <pt x="263" y="603" on="0"/>
        <pt x="187" y="562" on="0"/>
      </contour>
    </TTGlyph>
    <TTGlyph name="dollar.lprop" xMin="31" yMin="-110" xMax="510" yMax="772">
      <component glyphName="dollar" x="-18" y="0" flags="0x4"/>
    </TTGlyph>
    <TTGlyph name="dollar.oprop" xMin="44" yMin="-110" xMax="423" yMax="605">
      <component glyphName="dollar.otab" x="-54" y="0" flags="0x4"/>
    </TTGlyph>
    <TTGlyph name="dollar.otab" xMin="98" yMin="-110" xMax="477" yMax="605">
      <contour>
        <pt x="171" y="68" on="1"/>
        <pt x="224" y="56" on="0"/>
        <pt x="261" y="55" on="1"/>
        <pt x="282" y="233" on="1"/>
        <pt x="257" y="243" on="1"/>
        <pt x="205" y="263" on="0"/>
        <pt x="142" y="318" on="0"/>
        <pt x="142" y="365" on="1"/>
        <pt x="142" y="396" on="0"/>
        <pt x="170" y="445" on="0"/>
        <pt x="218" y="478" on="0"/>
        <pt x="280" y="495" on="0"/>
        <pt x="314" y="496" on="1"/>
        <pt x="334" y="605" on="1"/>
        <pt x="372" y="605" on="1"/>
        <pt x="359" y="494" on="1"/>
        <pt x="391" y="490" on="0"/>
        <pt x="452" y="476" on="0"/>
        <pt x="477" y="465" on="1"/>
        <pt x="463" y="420" on="1"/>
        <pt x="422" y="425" on="1"/>
        <pt x="351" y="432" on="1"/>
        <pt x="333" y="283" on="1"/>
        <pt x="349" y="277" on="1"/>
        <pt x="402" y="257" on="0"/>
        <pt x="466" y="196" on="0"/>
        <pt x="466" y="148" on="1"/>
        <pt x="466" y="113" on="0"/>
        <pt x="441" y="58" on="0"/>
        <pt x="396" y="19" on="0"/>
        <pt x="335" y="-4" on="0"/>
        <pt x="299" y="-7" on="1"/>
        <pt x="280" y="-110" on="1"/>
        <pt x="242" y="-110" on="1"/>
        <pt x="254" y="-7" on="1"/>
        <pt x="213" y="-4" on="0"/>
        <pt x="131" y="20" on="0"/>
        <pt x="98" y="37" on="1"/>
        <pt x="117" y="79" on="1"/>
      </contour>
      <contour>
        <pt x="397" y="139" on="1"/>
        <pt x="397" y="165" on="0"/>
        <pt x="364" y="199" on="0"/>
        <pt x="325" y="216" on="1"/>
        <pt x="306" y="57" on="1"/>
        <pt x="347" y="62" on="0"/>
        <pt x="397" y="104" on="0"/>
      </contour>
      <contour>
        <pt x="209" y="369" on="1"/>
        <pt x="209" y="346" on="0"/>
        <pt x="245" y="317" on="0"/>
        <pt x="290" y="299" on="1"/>
        <pt x="306" y="432" on="1"/>
        <pt x="265" y="430" on="0"/>
        <pt x="209" y="401" on="0"/>
      </contour>
    </TTGlyph>
    <TTGlyph name="dotaccent" xMin="174" yMin="562" xMax="275" yMax="656">
      <contour>
        <pt x="185" y="656" on="1"/>
        <pt x="259" y="656" on="1"/>
        <pt x="268" y="656" on="0"/>
        <pt x="275" y="651" on="0"/>
        <pt x="275" y="643" on="1"/>
        <pt x="275" y="640" on="1"/>
        <pt x="275" y="638" on="0"/>
        <pt x="274" y="633" on="0"/>
        <pt x="274" y="630" on="1"/>
        <pt x="266" y="562" on="1"/>
        <pt x="174" y="562" on="1"/>
      </contour>
    </TTGlyph>
    <TTGlyph name="dotaccent.cap" xMin="208" yMin="735" xMax="309" yMax="829">
      <contour>
        <pt x="219" y="829" on="1"/>
        <pt x="293" y="829" on="1"/>
        <pt x="302" y="829" on="0"/>
        <pt x="309" y="824" on="0"/>
        <pt x="309" y="816" on="1"/>
        <pt x="309" y="813" on="1"/>
        <pt x="309" y="811" on="0"/>
        <pt x="308" y="806" on="0"/>
        <pt x="308" y="803" on="1"/>
        <pt x="300" y="735" on="1"/>
        <pt x="208" y="735" on="1"/>
      </contour>
    </TTGlyph>
    <TTGlyph name="dotlessi" xMin="40" yMin="0" xMax="173" yMax="488">
      <contour>
        <pt x="97" y="488" on="1"/>
        <pt x="173" y="488" on="1"/>
        <pt x="116" y="0" on="1"/>
        <pt x="40" y="0" on="1"/>
      </contour>
    </TTGlyph>
    <TTGlyph name="e" xMin="34" yMin="-8" xMax="478" yMax="496">
      <contour>
        <pt x="478" y="285" on="1"/>
        <pt x="478" y="249" on="0"/>
        <pt x="461" y="226" on="0"/>
        <pt x="444" y="226" on="1"/>
        <pt x="110" y="226" on="1"/>
        <pt x="109" y="152" on="0"/>
        <pt x="179" y="59" on="0"/>
        <pt x="256" y="59" on="1"/>
        <pt x="279" y="59" on="0"/>
        <pt x="333" y="70" on="0"/>
        <pt x="369" y="82" on="1"/>
        <pt x="432" y="103" on="1"/>
        <pt x="452" y="63" on="1"/>
        <pt x="432" y="48" on="0"/>
        <pt x="382" y="23" on="0"/>
        <pt x="328" y="3" on="0"/>
        <pt x="272" y="-8" on="0"/>
        <pt x="247" y="-8" on="1"/>
        <pt x="200" y="-8" on="0"/>
        <pt x="122" y="25" on="0"/>
        <pt x="65" y="84" on="0"/>
        <pt x="34" y="167" on="0"/>
        <pt x="34" y="218" on="1"/>
        <pt x="34" y="276" on="0"/>
        <pt x="74" y="378" on="0"/>
        <pt x="142" y="453" on="0"/>
        <pt x="233" y="496" on="0"/>
        <pt x="283" y="496" on="1"/>
        <pt x="327" y="496" on="0"/>
        <pt x="399" y="463" on="0"/>
        <pt x="450" y="405" on="0"/>
        <pt x="478" y="328" on="0"/>
      </contour>
      <contour>
        <pt x="278" y="428" on="1"/>
        <pt x="214" y="428" on="0"/>
        <pt x="132" y="347" on="0"/>
        <pt x="118" y="284" on="1"/>
        <pt x="406" y="284" on="1"/>
        <pt x="406" y="350" on="0"/>
        <pt x="340" y="428" on="0"/>
      </contour>
    </TTGlyph>
    <TTGlyph name="eacute" xMin="34" yMin="-8" xMax="478" yMax="719">
      <component glyphName="e" x="0" y="0" flags="0x204"/>
      <component glyphName="acute" x="72" y="0" flags="0x4"/>
    </TTGlyph>
    <TTGlyph name="ebreve" xMin="34" yMin="-8" xMax="478" yMax="693">
      <component glyphName="e" x="0" y="0" flags="0x204"/>
      <component glyphName="breve" x="74" y="0" flags="0x4"/>
    </TTGlyph>
    <TTGlyph name="ecaron" xMin="34" yMin="-8" xMax="478" yMax="712">
      <component glyphName="e" x="0" y="0" flags="0x204"/>
      <component glyphName="caron" x="66" y="0" flags="0x4"/>
    </TTGlyph>
    <TTGlyph name="ecircumflex" xMin="34" yMin="-8" xMax="478" yMax="709">
      <component glyphName="e" x="0" y="0" flags="0x204"/>
      <component glyphName="circumflex" x="63" y="0" flags="0x4"/>
    </TTGlyph>
    <TTGlyph name="edieresis" xMin="34" yMin="-8" xMax="478" yMax="660">
      <component glyphName="e" x="0" y="0" flags="0x204"/>
      <component glyphName="dieresis" x="65" y="0" flags="0x4"/>
    </TTGlyph>
    <TTGlyph name="edotaccent" xMin="34" yMin="-8" xMax="478" yMax="656">
      <component glyphName="e" x="0" y="0" flags="0x204"/>
      <component glyphName="dotaccent" x="73" y="0" flags="0x4"/>
    </TTGlyph>
    <TTGlyph name="egrave" xMin="34" yMin="-8" xMax="478" yMax="717">
      <component glyphName="e" x="0" y="0" flags="0x204"/>
      <component glyphName="grave" x="68" y="0" flags="0x4"/>
    </TTGlyph>
    <TTGlyph name="eight" xMin="54" yMin="-10" xMax="543" yMax="673">
      <contour>
        <pt x="293" y="-10" on="1"/>
        <pt x="242" y="-10" on="0"/>
        <pt x="154" y="21" on="0"/>
        <pt x="90" y="75" on="0"/>
        <pt x="54" y="147" on="0"/>
        <pt x="54" y="188" on="1"/>
        <pt x="54" y="220" on="0"/>
        <pt x="77" y="276" on="0"/>
        <pt x="115" y="324" on="0"/>
        <pt x="165" y="362" on="0"/>
        <pt x="191" y="376" on="1"/>
        <pt x="165" y="397" on="0"/>
        <pt x="126" y="457" on="0"/>
        <pt x="126" y="495" on="1"/>
        <pt x="126" y="532" on="0"/>
        <pt x="159" y="597" on="0"/>
        <pt x="216" y="645" on="0"/>
        <pt x="295" y="673" on="0"/>
        <pt x="342" y="673" on="1"/>
        <pt x="385" y="673" on="0"/>
        <pt x="458" y="648" on="0"/>
        <pt x="512" y="603" on="0"/>
        <pt x="543" y="542" on="0"/>
        <pt x="543" y="506" on="1"/>
        <pt x="543" y="479" on="0"/>
        <pt x="525" y="430" on="0"/>
        <pt x="495" y="386" on="0"/>
        <pt x="455" y="349" on="0"/>
        <pt x="433" y="333" on="1"/>
        <pt x="482" y="306" on="0"/>
        <pt x="543" y="241" on="0"/>
        <pt x="543" y="193" on="1"/>
        <pt x="543" y="148" on="0"/>
        <pt x="502" y="74" on="0"/>
        <pt x="433" y="20" on="0"/>
        <pt x="343" y="-10" on="0"/>
      </contour>
      <contour>
        <pt x="129" y="194" on="1"/>
        <pt x="129" y="166" on="0"/>
        <pt x="152" y="116" on="0"/>
        <pt x="195" y="78" on="0"/>
        <pt x="257" y="56" on="0"/>
        <pt x="296" y="56" on="1"/>
        <pt x="332" y="56" on="0"/>
        <pt x="394" y="76" on="0"/>
        <pt x="440" y="112" on="0"/>
        <pt x="466" y="160" on="0"/>
        <pt x="466" y="187" on="1"/>
        <pt x="466" y="219" on="0"/>
        <pt x="421" y="268" on="0"/>
        <pt x="360" y="295" on="1"/>
        <pt x="255" y="342" on="1"/>
        <pt x="248" y="345" on="0"/>
        <pt x="237" y="345" on="0"/>
        <pt x="229" y="340" on="1"/>
        <pt x="184" y="316" on="0"/>
        <pt x="129" y="242" on="0"/>
      </contour>
      <contour>
        <pt x="367" y="365" on="1"/>
        <pt x="375" y="362" on="0"/>
        <pt x="384" y="363" on="0"/>
        <pt x="392" y="368" on="1"/>
        <pt x="425" y="393" on="0"/>
        <pt x="471" y="464" on="0"/>
        <pt x="471" y="504" on="1"/>
        <pt x="471" y="552" on="0"/>
        <pt x="397" y="607" on="0"/>
        <pt x="340" y="607" on="1"/>
        <pt x="310" y="607" on="0"/>
        <pt x="258" y="592" on="0"/>
        <pt x="220" y="565" on="0"/>
        <pt x="198" y="526" on="0"/>
        <pt x="198" y="502" on="1"/>
        <pt x="198" y="463" on="0"/>
        <pt x="259" y="415" on="0"/>
        <pt x="308" y="392" on="1"/>
      </contour>
    </TTGlyph>
    <TTGlyph name="eight.lprop" xMin="47" yMin="-10" xMax="536" yMax="673">
      <component glyphName="eight" x="-7" y="0" flags="0x4"/>
    </TTGlyph>
    <TTGlyph name="eight.oprop" xMin="30" yMin="-8" xMax="510" yMax="673">
      <component glyphName="eight.otab" x="-20" y="0" flags="0x4"/>
    </TTGlyph>
    <TTGlyph name="eight.otab" xMin="50" yMin="-8" xMax="530" yMax="673">
      <contour>
        <pt x="284" y="-8" on="1"/>
        <pt x="234" y="-8" on="0"/>
        <pt x="149" y="23" on="0"/>
        <pt x="86" y="76" on="0"/>
        <pt x="50" y="147" on="0"/>
        <pt x="50" y="187" on="1"/>
        <pt x="50" y="219" on="0"/>
        <pt x="72" y="275" on="0"/>
        <pt x="109" y="323" on="0"/>
        <pt x="158" y="361" on="0"/>
        <pt x="186" y="375" on="1"/>
        <pt x="159" y="397" on="0"/>
        <pt x="120" y="457" on="0"/>
        <pt x="120" y="496" on="1"/>
        <pt x="120" y="534" on="0"/>
        <pt x="155" y="599" on="0"/>
        <pt x="214" y="646" on="0"/>
        <pt x="291" y="673" on="0"/>
        <pt x="332" y="673" on="1"/>
        <pt x="375" y="673" on="0"/>
        <pt x="448" y="647" on="0"/>
        <pt x="500" y="602" on="0"/>
        <pt x="529" y="541" on="0"/>
        <pt x="529" y="506" on="1"/>
        <pt x="529" y="479" on="0"/>
        <pt x="511" y="430" on="0"/>
        <pt x="481" y="387" on="0"/>
        <pt x="441" y="349" on="0"/>
        <pt x="419" y="334" on="1"/>
        <pt x="470" y="308" on="0"/>
        <pt x="530" y="240" on="0"/>
        <pt x="530" y="192" on="1"/>
        <pt x="530" y="148" on="0"/>
        <pt x="489" y="75" on="0"/>
        <pt x="421" y="22" on="0"/>
        <pt x="332" y="-8" on="0"/>
      </contour>
      <contour>
        <pt x="249" y="341" on="1"/>
        <pt x="241" y="345" on="0"/>
        <pt x="229" y="344" on="0"/>
        <pt x="221" y="339" on="1"/>
        <pt x="178" y="314" on="0"/>
        <pt x="124" y="242" on="0"/>
        <pt x="124" y="196" on="1"/>
        <pt x="124" y="167" on="0"/>
        <pt x="146" y="117" on="0"/>
        <pt x="188" y="78" on="0"/>
        <pt x="249" y="56" on="0"/>
        <pt x="289" y="56" on="1"/>
        <pt x="324" y="56" on="0"/>
        <pt x="385" y="77" on="0"/>
        <pt x="431" y="112" on="0"/>
        <pt x="457" y="159" on="0"/>
        <pt x="457" y="186" on="1"/>
        <pt x="457" y="215" on="0"/>
        <pt x="412" y="267" on="0"/>
        <pt x="350" y="295" on="1"/>
      </contour>
      <contour>
        <pt x="355" y="369" on="1"/>
        <pt x="364" y="365" on="0"/>
        <pt x="373" y="364" on="0"/>
        <pt x="380" y="369" on="1"/>
        <pt x="413" y="392" on="0"/>
        <pt x="460" y="464" on="0"/>
        <pt x="460" y="501" on="1"/>
        <pt x="460" y="551" on="0"/>
        <pt x="386" y="609" on="0"/>
        <pt x="331" y="609" on="1"/>
        <pt x="301" y="609" on="0"/>
        <pt x="250" y="593" on="0"/>
        <pt x="212" y="565" on="0"/>
        <pt x="191" y="525" on="0"/>
        <pt x="191" y="501" on="1"/>
        <pt x="191" y="463" on="0"/>
        <pt x="252" y="411" on="0"/>
        <pt x="300" y="391" on="1"/>
      </contour>
    </TTGlyph>
    <TTGlyph name="ellipsis" xMin="26" yMin="0" xMax="514" yMax="91">
      <contour>
        <pt x="36" y="91" on="1"/>
        <pt x="107" y="91" on="1"/>
        <pt x="117" y="91" on="0"/>
        <pt x="122" y="84" on="0"/>
        <pt x="121" y="76" on="1"/>
        <pt x="113" y="0" on="1"/>
        <pt x="26" y="0" on="1"/>
      </contour>
      <contour>
        <pt x="232" y="91" on="1"/>
        <pt x="303" y="91" on="1"/>
        <pt x="313" y="91" on="0"/>
        <pt x="318" y="84" on="0"/>
        <pt x="317" y="76" on="1"/>
        <pt x="309" y="0" on="1"/>
        <pt x="222" y="0" on="1"/>
      </contour>
      <contour>
        <pt x="428" y="91" on="1"/>
        <pt x="499" y="91" on="1"/>
        <pt x="509" y="91" on="0"/>
        <pt x="514" y="84" on="0"/>
        <pt x="513" y="76" on="1"/>
        <pt x="505" y="0" on="1"/>
        <pt x="418" y="0" on="1"/>
      </contour>
    </TTGlyph>
    <TTGlyph name="emacron" xMin="34" yMin="-8" xMax="478" yMax="642">
      <component glyphName="e" x="0" y="0" flags="0x204"/>
      <component glyphName="macron" x="67" y="0" flags="0x4"/>
    </TTGlyph>
    <TTGlyph name="emdash" xMin="51" yMin="213" xMax="1019" yMax="275">
      <contour>
        <pt x="51" y="213" on="1"/>
        <pt x="59" y="275" on="1"/>
        <pt x="1019" y="275" on="1"/>
        <pt x="1011" y="213" on="1"/>
      </contour>
    </TTGlyph>
    <TTGlyph name="emdash.cap" xMin="61" yMin="300" xMax="1029" yMax="362">
      <component glyphName="emdash" x="10" y="87" flags="0x204"/>
    </TTGlyph>
    <TTGlyph name="endash" xMin="51" yMin="213" xMax="539" yMax="275">
      <contour>
        <pt x="51" y="213" on="1"/>
        <pt x="59" y="275" on="1"/>
        <pt x="539" y="275" on="1"/>
        <pt x="531" y="213" on="1"/>
      </contour>
    </TTGlyph>
    <TTGlyph name="endash.cap" xMin="61" yMin="300" xMax="549" yMax="362">
      <component glyphName="endash" x="10" y="87" flags="0x204"/>
    </TTGlyph>
    <TTGlyph name="eng" xMin="38" yMin="-192" xMax="483" yMax="496">
      <contour>
        <pt x="114" y="0" on="1"/>
        <pt x="38" y="0" on="1"/>
        <pt x="95" y="488" on="1"/>
        <pt x="150" y="488" on="1"/>
        <pt x="159" y="444" on="1"/>
        <pt x="188" y="459" on="1"/>
        <pt x="220" y="476" on="0"/>
        <pt x="289" y="496" on="0"/>
        <pt x="322" y="496" on="1"/>
        <pt x="356" y="496" on="0"/>
        <pt x="415" y="475" on="0"/>
        <pt x="459" y="436" on="0"/>
        <pt x="483" y="383" on="0"/>
        <pt x="483" y="350" on="1"/>
        <pt x="483" y="337" on="0"/>
        <pt x="479" y="302" on="0"/>
        <pt x="477" y="282" on="1"/>
        <pt x="440" y="-38" on="1"/>
        <pt x="435" y="-79" on="0"/>
        <pt x="415" y="-135" on="0"/>
        <pt x="397" y="-154" on="1"/>
        <pt x="361" y="-192" on="0"/>
        <pt x="291" y="-192" on="1"/>
        <pt x="273" y="-192" on="0"/>
        <pt x="234" y="-188" on="0"/>
        <pt x="219" y="-184" on="1"/>
        <pt x="224" y="-143" on="1"/>
        <pt x="262" y="-139" on="1"/>
        <pt x="291" y="-136" on="0"/>
        <pt x="327" y="-124" on="0"/>
        <pt x="349" y="-103" on="0"/>
        <pt x="360" y="-70" on="0"/>
        <pt x="363" y="-45" on="1"/>
        <pt x="402" y="290" on="1"/>
        <pt x="404" y="302" on="0"/>
        <pt x="407" y="333" on="0"/>
        <pt x="407" y="343" on="1"/>
        <pt x="407" y="424" on="0"/>
        <pt x="303" y="424" on="1"/>
        <pt x="249" y="424" on="0"/>
        <pt x="186" y="402" on="1"/>
        <pt x="166" y="395" on="0"/>
        <pt x="160" y="389" on="0"/>
        <pt x="158" y="379" on="1"/>
      </contour>
    </TTGlyph>
    <TTGlyph name="eogonek" xMin="34" yMin="-197" xMax="478" yMax="496">
      <contour>
        <pt x="278" y="428" on="1"/>
        <pt x="214" y="428" on="0"/>
        <pt x="132" y="347" on="0"/>
        <pt x="118" y="284" on="1"/>
        <pt x="406" y="284" on="1"/>
        <pt x="406" y="350" on="0"/>
        <pt x="340" y="428" on="0"/>
      </contour>
      <contour>
        <pt x="247" y="-8" on="1"/>
        <pt x="200" y="-8" on="0"/>
        <pt x="122" y="25" on="0"/>
        <pt x="65" y="84" on="0"/>
        <pt x="34" y="167" on="0"/>
        <pt x="34" y="218" on="1"/>
        <pt x="34" y="276" on="0"/>
        <pt x="74" y="378" on="0"/>
        <pt x="142" y="453" on="0"/>
        <pt x="233" y="496" on="0"/>
        <pt x="283" y="496" on="1"/>
        <pt x="327" y="496" on="0"/>
        <pt x="399" y="463" on="0"/>
        <pt x="450" y="405" on="0"/>
        <pt x="478" y="328" on="0"/>
        <pt x="478" y="285" on="1"/>
        <pt x="478" y="249" on="0"/>
        <pt x="461" y="226" on="0"/>
        <pt x="444" y="226" on="1"/>
        <pt x="110" y="226" on="1"/>
        <pt x="109" y="152" on="0"/>
        <pt x="179" y="59" on="0"/>
        <pt x="256" y="59" on="1"/>
        <pt x="279" y="59" on="0"/>
        <pt x="333" y="70" on="0"/>
        <pt x="369" y="82" on="1"/>
        <pt x="432" y="103" on="1"/>
        <pt x="452" y="63" on="1"/>
        <pt x="423" y="44" on="0"/>
        <pt x="369" y="4" on="0"/>
        <pt x="327" y="-36" on="0"/>
        <pt x="301" y="-77" on="0"/>
        <pt x="301" y="-97" on="1"/>
        <pt x="301" y="-141" on="0"/>
        <pt x="350" y="-141" on="1"/>
        <pt x="362" y="-141" on="0"/>
        <pt x="399" y="-136" on="0"/>
        <pt x="412" y="-133" on="1"/>
        <pt x="419" y="-172" on="1"/>
        <pt x="402" y="-183" on="0"/>
        <pt x="354" y="-197" on="0"/>
        <pt x="331" y="-197" on="1"/>
        <pt x="286" y="-197" on="0"/>
        <pt x="235" y="-144" on="0"/>
        <pt x="235" y="-110" on="1"/>
        <pt x="235" y="-79" on="0"/>
        <pt x="274" y="-26" on="0"/>
        <pt x="303" y="-4" on="1"/>
        <pt x="292" y="-6" on="0"/>
        <pt x="262" y="-8" on="0"/>
      </contour>
    </TTGlyph>
    <TTGlyph name="equal" xMin="61" yMin="123" xMax="449" yMax="368">
      <contour>
        <pt x="449" y="368" on="1"/>
        <pt x="442" y="307" on="1"/>
        <pt x="83" y="307" on="1"/>
        <pt x="90" y="368" on="1"/>
      </contour>
      <contour>
        <pt x="427" y="184" on="1"/>
        <pt x="420" y="123" on="1"/>
        <pt x="61" y="123" on="1"/>
        <pt x="68" y="184" on="1"/>
      </contour>
    </TTGlyph>
    <TTGlyph name="estimated" xMin="55" yMin="-10" xMax="818" yMax="673">
      <contour>
        <pt x="201" y="323" on="1"/>
        <pt x="193" y="323" on="0"/>
        <pt x="193" y="317" on="1"/>
        <pt x="193" y="130" on="1"/>
        <pt x="193" y="123" on="0"/>
        <pt x="199" y="115" on="0"/>
        <pt x="205" y="109" on="1"/>
        <pt x="249" y="64" on="0"/>
        <pt x="370" y="11" on="0"/>
        <pt x="439" y="11" on="1"/>
        <pt x="513" y="11" on="0"/>
        <pt x="638" y="71" on="0"/>
        <pt x="683" y="121" on="1"/>
        <pt x="739" y="121" on="1"/>
        <pt x="685" y="61" on="0"/>
        <pt x="529" y="-10" on="0"/>
        <pt x="438" y="-10" on="1"/>
        <pt x="359" y="-10" on="0"/>
        <pt x="219" y="43" on="0"/>
        <pt x="115" y="135" on="0"/>
        <pt x="55" y="260" on="0"/>
        <pt x="55" y="331" on="1"/>
        <pt x="55" y="402" on="0"/>
        <pt x="115" y="527" on="0"/>
        <pt x="219" y="620" on="0"/>
        <pt x="359" y="673" on="0"/>
        <pt x="438" y="673" on="1"/>
        <pt x="516" y="673" on="0"/>
        <pt x="654" y="620" on="0"/>
        <pt x="757" y="527" on="0"/>
        <pt x="818" y="402" on="0"/>
        <pt x="818" y="331" on="1"/>
        <pt x="818" y="323" on="1"/>
      </contour>
      <contour>
        <pt x="679" y="537" on="1"/>
        <pt x="679" y="543" on="0"/>
        <pt x="672" y="553" on="0"/>
        <pt x="666" y="559" on="1"/>
        <pt x="624" y="603" on="0"/>
        <pt x="505" y="653" on="0"/>
        <pt x="439" y="653" on="1"/>
        <pt x="370" y="653" on="0"/>
        <pt x="250" y="601" on="0"/>
        <pt x="205" y="556" on="1"/>
        <pt x="199" y="550" on="0"/>
        <pt x="193" y="540" on="0"/>
        <pt x="193" y="532" on="1"/>
        <pt x="193" y="347" on="1"/>
        <pt x="193" y="342" on="0"/>
        <pt x="201" y="342" on="1"/>
        <pt x="671" y="342" on="1"/>
        <pt x="679" y="342" on="0"/>
        <pt x="679" y="347" on="1"/>
      </contour>
    </TTGlyph>
    <TTGlyph name="eth" xMin="34" yMin="-8" xMax="496" yMax="727">
      <contour>
        <pt x="287" y="622" on="1"/>
        <pt x="266" y="639" on="0"/>
        <pt x="214" y="672" on="0"/>
        <pt x="187" y="688" on="1"/>
        <pt x="213" y="727" on="1"/>
        <pt x="287" y="696" on="0"/>
        <pt x="347" y="649" on="1"/>
        <pt x="472" y="705" on="1"/>
        <pt x="496" y="658" on="1"/>
        <pt x="392" y="611" on="1"/>
        <pt x="495" y="501" on="0"/>
        <pt x="495" y="339" on="1"/>
        <pt x="495" y="262" on="0"/>
        <pt x="457" y="134" on="0"/>
        <pt x="389" y="42" on="0"/>
        <pt x="296" y="-8" on="0"/>
        <pt x="241" y="-8" on="1"/>
        <pt x="194" y="-8" on="0"/>
        <pt x="117" y="27" on="0"/>
        <pt x="63" y="87" on="0"/>
        <pt x="34" y="168" on="0"/>
        <pt x="34" y="215" on="1"/>
        <pt x="34" y="269" on="0"/>
        <pt x="71" y="361" on="0"/>
        <pt x="136" y="427" on="0"/>
        <pt x="222" y="465" on="0"/>
        <pt x="271" y="465" on="1"/>
        <pt x="306" y="465" on="0"/>
        <pt x="378" y="441" on="0"/>
        <pt x="414" y="421" on="1"/>
        <pt x="409" y="464" on="0"/>
        <pt x="362" y="553" on="0"/>
        <pt x="330" y="583" on="1"/>
        <pt x="201" y="524" on="1"/>
        <pt x="177" y="571" on="1"/>
      </contour>
      <contour>
        <pt x="283" y="401" on="1"/>
        <pt x="238" y="401" on="0"/>
        <pt x="172" y="373" on="0"/>
        <pt x="129" y="325" on="0"/>
        <pt x="108" y="258" on="0"/>
        <pt x="108" y="219" on="1"/>
        <pt x="108" y="186" on="0"/>
        <pt x="125" y="127" on="0"/>
        <pt x="158" y="84" on="0"/>
        <pt x="208" y="58" on="0"/>
        <pt x="242" y="58" on="1"/>
        <pt x="278" y="58" on="0"/>
        <pt x="344" y="92" on="0"/>
        <pt x="394" y="161" on="0"/>
        <pt x="423" y="265" on="0"/>
        <pt x="423" y="335" on="1"/>
        <pt x="423" y="349" on="0"/>
        <pt x="415" y="362" on="0"/>
        <pt x="407" y="368" on="1"/>
        <pt x="388" y="382" on="0"/>
        <pt x="319" y="401" on="0"/>
      </contour>
    </TTGlyph>
    <TTGlyph name="exclam" xMin="44" yMin="0" xMax="202" yMax="663">
      <contour>
        <pt x="88" y="245" on="1"/>
        <pt x="90" y="291" on="0"/>
        <pt x="95" y="381" on="0"/>
        <pt x="100" y="425" on="1"/>
        <pt x="128" y="663" on="1"/>
        <pt x="202" y="663" on="1"/>
        <pt x="174" y="431" on="1"/>
        <pt x="169" y="384" on="0"/>
        <pt x="144" y="246" on="0"/>
        <pt x="127" y="172" on="1"/>
        <pt x="86" y="172" on="1"/>
      </contour>
      <contour>
        <pt x="54" y="88" on="1"/>
        <pt x="125" y="88" on="1"/>
        <pt x="135" y="88" on="0"/>
        <pt x="140" y="81" on="0"/>
        <pt x="139" y="73" on="1"/>
        <pt x="131" y="0" on="1"/>
        <pt x="44" y="0" on="1"/>
      </contour>
    </TTGlyph>
    <TTGlyph name="exclamdown" xMin="26" yMin="-175" xMax="184" yMax="488">
      <component glyphName="exclam" x="228" y="488" scale="-0.99994" flags="0x4"/>
    </TTGlyph>
    <TTGlyph name="exclamdown.cap" xMin="46" yMin="0" xMax="204" yMax="663">
      <component glyphName="exclam" x="248" y="663" scale="-0.99994" flags="0x4"/>
    </TTGlyph>
    <TTGlyph name="f" xMin="27" yMin="-206" xMax="428" yMax="717">
      <contour>
        <pt x="32" y="470" on="1"/>
        <pt x="121" y="486" on="1"/>
        <pt x="115" y="510" on="0"/>
        <pt x="115" y="544" on="1"/>
        <pt x="115" y="583" on="0"/>
        <pt x="143" y="647" on="0"/>
        <pt x="191" y="692" on="0"/>
        <pt x="254" y="717" on="0"/>
        <pt x="289" y="717" on="1"/>
        <pt x="324" y="717" on="0"/>
        <pt x="395" y="696" on="0"/>
        <pt x="428" y="676" on="1"/>
        <pt x="410" y="632" on="1"/>
        <pt x="378" y="640" on="1"/>
        <pt x="327" y="653" on="0"/>
        <pt x="290" y="653" on="1"/>
        <pt x="241" y="653" on="0"/>
        <pt x="188" y="598" on="0"/>
        <pt x="188" y="545" on="1"/>
        <pt x="188" y="530" on="0"/>
        <pt x="191" y="499" on="0"/>
        <pt x="194" y="488" on="1"/>
        <pt x="368" y="488" on="1"/>
        <pt x="361" y="430" on="1"/>
        <pt x="193" y="430" on="1"/>
        <pt x="118" y="-206" on="1"/>
        <pt x="42" y="-206" on="1"/>
        <pt x="117" y="430" on="1"/>
        <pt x="27" y="430" on="1"/>
      </contour>
    </TTGlyph>
</ttFont>
